<svg width="62" height="70" xmlns="http://www.w3.org/2000/svg" xmlns:svg="http://www.w3.org/2000/svg">
    <g id="hex_js">
        <path
            d="m31.008,69.29801l31.005,-17.307l0,-34.684l-31.006,-17.307l-31.007,17.307l0,34.684l31.008,17.307zm-28.751,-50.664l28.75,-16.05l28.751,16.05l0,32.031l-28.75,16.05l-28.751,-16.05l0,-32.031z"
            id="outline_17_" />
        <polygon fill="#E5A228" id="background_24_"
            points="59.758004943847936,50.66499499511747 59.758004943847936,18.633989135742468 31.00699786376981,2.5840013427737176 2.254998962402624,18.633989135742468 2.254998962402624,50.66499499511747 31.008004943847936,66.71501330566434 " />
        <polygon fill="#F1BF26" id="background_19_"
            points="30.92299822998075,9.385011474609655 54.17800311279325,22.369005004883093 54.17800311279325,48.27900866699247 30.924997131347936,61.26002673339872 " />
        <g id="svg_44">
            <g id="svg_45">
                <polygon fill="none" id="svg_46"
                    points="30.92299822998075,50.53199938964872 36.004998962402624,48.97401599121122 36.614999572754186,43.56300524902372 30.935006896972936,43.56300524902372 30.935006896972936,50.50602893066434 " />
                <polygon fill="#FFFFFF" id="svg_47"
                    points="30.935006896972936,43.56300524902372 36.614999572754186,43.56300524902372 35.961007873535436,48.97401599121122 30.92299822998075,50.55101184082059 30.935006896972936,50.50602893066434 30.935006896972936,55.15300158691434 30.92299822998075,55.16999987792997 40.08400897216825,52.44099597167997 41.38601092529325,38.41200427246122 30.935006896972936,38.41200427246122 " />
                <polygon fill="#FFFFFF" id="svg_48"
                    points="36.28800372314481,31.716996948242468 36.79799822998075,36.31099108886747 41.38601092529325,36.21901110839872 40.651010314941686,26.565995971679968 30.935006896972936,26.565995971679968 30.935006896972936,31.716996948242468 " />
            </g>
            <g id="svg_49">
                <polygon fill="none" id="svg_50"
                    points="30.92299822998075,50.53199938964872 36.004998962402624,48.97401599121122 36.614999572754186,43.56300524902372 30.935006896972936,43.56300524902372 30.935006896972936,50.50602893066434 " />
                <polygon fill="#ECEDEE" id="svg_51"
                    points="20.83201007080106,43.56300524902372 30.935006896972936,43.56300524902372 30.935006896972936,38.41200427246122 25.8470094604495,38.41200427246122 26.46000079345731,31.716996948242468 30.935006896972936,31.716996948242468 30.935006896972936,26.565995971679968 22.42299822998075,26.565995971679968 " />
                <polygon fill="#ECEDEE" id="svg_52"
                    points="25.935006896972936,48.94899157714872 25.478997985840124,45.62202624511747 20.62900714111356,45.62202624511747 21.3680055541995,52.68098620605497 30.935006896972936,55.15300158691434 30.935006896972936,50.50602893066434 " />
            </g>
        </g>
        <g id="svg_53">
            <path
                d="m17.285,19.94501c-0.081,0.011 -0.149,0.02 -0.206,0.031c-0.056,0.01 -0.119,0.023 -0.188,0.041c-0.082,0.022 -0.136,0.063 -0.16,0.119c-0.022,0.056 -0.033,0.12 -0.033,0.191l0,2.364c0,0.216 -0.043,0.415 -0.133,0.597c-0.086,0.179 -0.206,0.333 -0.358,0.457c-0.156,0.119 -0.329,0.211 -0.52,0.271c-0.191,0.062 -0.396,0.094 -0.612,0.094c-0.378,0 -0.68,-0.092 -0.911,-0.271c-0.231,-0.182 -0.345,-0.43 -0.345,-0.746c0,-0.188 0.053,-0.342 0.158,-0.466c0.105,-0.121 0.251,-0.183 0.436,-0.183c0.175,0 0.315,0.054 0.418,0.154c0.105,0.103 0.156,0.229 0.156,0.379c0,0.13 -0.045,0.248 -0.136,0.36c-0.088,0.108 -0.191,0.208 -0.305,0.302l0,0.038c0.019,0.041 0.058,0.075 0.12,0.104c0.058,0.029 0.118,0.043 0.183,0.043c0.24,0 0.432,-0.088 0.57,-0.262c0.139,-0.171 0.208,-0.435 0.208,-0.785l0,-2.419c0,-0.071 -0.013,-0.132 -0.034,-0.182c-0.021,-0.048 -0.075,-0.092 -0.161,-0.126c-0.061,-0.025 -0.134,-0.049 -0.22,-0.066c-0.085,-0.02 -0.158,-0.03 -0.215,-0.04l0,-0.235l2.288,0l0,0.236l0,0z"
                id="svg_54" />
            <path
                d="m21.07,23.92801c-0.089,0.039 -0.194,0.074 -0.313,0.105s-0.248,0.048 -0.381,0.048c-0.248,0 -0.431,-0.036 -0.548,-0.107c-0.115,-0.077 -0.193,-0.181 -0.237,-0.318l-0.017,0c-0.068,0.069 -0.136,0.129 -0.199,0.175c-0.063,0.051 -0.13,0.091 -0.203,0.123c-0.095,0.046 -0.186,0.08 -0.273,0.101c-0.088,0.022 -0.211,0.033 -0.366,0.033c-0.236,0 -0.435,-0.068 -0.601,-0.206c-0.164,-0.138 -0.247,-0.322 -0.247,-0.548c0,-0.132 0.019,-0.245 0.054,-0.334c0.038,-0.092 0.088,-0.173 0.154,-0.243c0.062,-0.064 0.132,-0.119 0.211,-0.16c0.079,-0.043 0.167,-0.081 0.259,-0.12c0.182,-0.066 0.401,-0.134 0.654,-0.205c0.254,-0.07 0.439,-0.137 0.558,-0.192l0,-0.289c0,-0.054 -0.005,-0.119 -0.012,-0.2c-0.009,-0.083 -0.027,-0.153 -0.052,-0.208c-0.028,-0.065 -0.072,-0.117 -0.134,-0.162c-0.06,-0.045 -0.14,-0.067 -0.237,-0.067c-0.089,0 -0.165,0.013 -0.224,0.038c-0.058,0.026 -0.106,0.051 -0.144,0.077c0.007,0.038 0.024,0.101 0.052,0.184c0.029,0.083 0.042,0.161 0.042,0.238c0,0.034 -0.006,0.076 -0.027,0.128c-0.018,0.05 -0.043,0.092 -0.077,0.122c-0.047,0.04 -0.098,0.073 -0.154,0.096c-0.06,0.021 -0.148,0.031 -0.267,0.031c-0.17,0 -0.298,-0.041 -0.385,-0.122c-0.087,-0.08 -0.13,-0.188 -0.13,-0.318c0,-0.112 0.045,-0.213 0.135,-0.303c0.089,-0.09 0.198,-0.163 0.328,-0.224c0.126,-0.059 0.271,-0.106 0.437,-0.139c0.165,-0.033 0.317,-0.051 0.46,-0.051c0.195,0 0.375,0.011 0.537,0.034c0.163,0.023 0.31,0.07 0.44,0.143c0.123,0.072 0.223,0.174 0.297,0.309c0.074,0.134 0.11,0.307 0.11,0.524c0,0.227 -0.006,0.495 -0.014,0.807c-0.008,0.311 -0.014,0.519 -0.014,0.615c0,0.092 0.014,0.164 0.041,0.216s0.068,0.092 0.126,0.115c0.033,0.018 0.087,0.026 0.159,0.031c0.075,0.003 0.141,0.005 0.201,0.005l0,0.218l0.001,0zm-1.497,-1.572c-0.114,0.037 -0.226,0.083 -0.337,0.133c-0.111,0.047 -0.202,0.099 -0.273,0.154c-0.074,0.055 -0.131,0.129 -0.173,0.217c-0.046,0.089 -0.065,0.189 -0.065,0.311c0,0.157 0.035,0.271 0.107,0.342c0.071,0.071 0.161,0.104 0.265,0.104c0.111,0 0.203,-0.021 0.275,-0.068c0.071,-0.043 0.135,-0.101 0.188,-0.167l0.013,-1.026z"
                id="svg_55" />
            <path
                d="m24.743,21.21901c-0.092,0.014 -0.178,0.048 -0.265,0.102c-0.087,0.056 -0.156,0.139 -0.214,0.254c-0.139,0.292 -0.278,0.589 -0.414,0.888c-0.135,0.299 -0.271,0.587 -0.399,0.868c-0.04,0.083 -0.087,0.192 -0.138,0.325c-0.051,0.134 -0.095,0.254 -0.127,0.363l-0.556,0c-0.231,-0.539 -0.43,-0.984 -0.594,-1.336c-0.164,-0.356 -0.338,-0.735 -0.521,-1.142c-0.041,-0.095 -0.107,-0.169 -0.197,-0.224c-0.089,-0.054 -0.18,-0.087 -0.273,-0.099l0,-0.22l1.861,0l0,0.22c-0.07,0.002 -0.149,0.017 -0.243,0.045c-0.092,0.029 -0.139,0.064 -0.139,0.108c0,0.012 0.004,0.03 0.012,0.053c0.008,0.024 0.019,0.052 0.031,0.082c0.065,0.153 0.16,0.373 0.291,0.661c0.13,0.286 0.268,0.591 0.414,0.908c0.099,-0.22 0.196,-0.436 0.287,-0.645c0.091,-0.211 0.203,-0.478 0.339,-0.804c0.02,-0.049 0.028,-0.087 0.033,-0.117c0.003,-0.032 0.003,-0.052 0.003,-0.062c0,-0.037 -0.017,-0.068 -0.053,-0.097c-0.036,-0.024 -0.076,-0.05 -0.126,-0.069c-0.051,-0.02 -0.098,-0.036 -0.145,-0.047c-0.046,-0.008 -0.084,-0.016 -0.116,-0.02l0,-0.221l1.248,0l0,0.226l0.001,0z"
                id="svg_56" />
            <path
                d="m28.255,23.92801c-0.087,0.039 -0.193,0.074 -0.313,0.105c-0.119,0.031 -0.247,0.048 -0.381,0.048c-0.248,0 -0.43,-0.036 -0.546,-0.107c-0.117,-0.077 -0.195,-0.181 -0.238,-0.318l-0.017,0c-0.069,0.069 -0.135,0.129 -0.199,0.175c-0.063,0.051 -0.129,0.091 -0.204,0.123c-0.094,0.046 -0.185,0.08 -0.272,0.101c-0.088,0.022 -0.209,0.033 -0.367,0.033c-0.233,0 -0.434,-0.068 -0.598,-0.206c-0.166,-0.138 -0.249,-0.322 -0.249,-0.548c0,-0.132 0.019,-0.245 0.054,-0.334c0.037,-0.092 0.089,-0.173 0.155,-0.243c0.06,-0.064 0.129,-0.119 0.209,-0.16c0.078,-0.043 0.166,-0.081 0.261,-0.12c0.183,-0.066 0.399,-0.134 0.653,-0.205c0.254,-0.07 0.439,-0.137 0.558,-0.192l0,-0.289c0,-0.054 -0.004,-0.119 -0.013,-0.2c-0.009,-0.083 -0.026,-0.153 -0.052,-0.208c-0.027,-0.065 -0.073,-0.117 -0.132,-0.162c-0.062,-0.045 -0.141,-0.067 -0.239,-0.067c-0.087,0 -0.162,0.013 -0.223,0.038c-0.059,0.026 -0.108,0.051 -0.143,0.077c0.006,0.038 0.023,0.101 0.051,0.184c0.029,0.083 0.044,0.161 0.044,0.238c0,0.034 -0.011,0.076 -0.027,0.128c-0.021,0.05 -0.045,0.092 -0.079,0.122c-0.047,0.04 -0.101,0.073 -0.156,0.096c-0.058,0.021 -0.146,0.031 -0.264,0.031c-0.171,0 -0.299,-0.041 -0.387,-0.122c-0.086,-0.08 -0.128,-0.188 -0.128,-0.318c0,-0.112 0.043,-0.213 0.135,-0.303c0.088,-0.09 0.198,-0.163 0.325,-0.224c0.126,-0.059 0.273,-0.106 0.439,-0.139c0.163,-0.033 0.317,-0.051 0.459,-0.051c0.195,0 0.374,0.011 0.537,0.034c0.162,0.023 0.309,0.07 0.44,0.143c0.123,0.072 0.223,0.174 0.296,0.309c0.076,0.134 0.109,0.307 0.109,0.524c0,0.227 -0.003,0.495 -0.012,0.807c-0.01,0.311 -0.014,0.519 -0.014,0.615c0,0.092 0.014,0.164 0.039,0.216c0.027,0.052 0.071,0.092 0.127,0.115c0.034,0.018 0.087,0.026 0.161,0.031c0.073,0.003 0.141,0.005 0.201,0.005l0,0.22l0,0l0,-0.002zm-1.495,-1.572c-0.115,0.037 -0.227,0.083 -0.337,0.133c-0.111,0.047 -0.203,0.099 -0.272,0.154c-0.077,0.055 -0.134,0.129 -0.177,0.217c-0.042,0.089 -0.063,0.189 -0.063,0.311c0,0.157 0.036,0.271 0.105,0.342c0.072,0.071 0.161,0.104 0.267,0.104c0.11,0 0.203,-0.021 0.274,-0.068c0.07,-0.043 0.135,-0.101 0.189,-0.167l0.014,-1.026z"
                id="svg_57" />
            <path
                d="m30.317,24.10901c-0.264,0 -0.508,-0.032 -0.732,-0.099c-0.227,-0.063 -0.418,-0.142 -0.576,-0.229l-0.207,0.211l-0.257,0l-0.04,-1.548l0.261,0c0.059,0.146 0.133,0.303 0.224,0.465c0.089,0.164 0.195,0.311 0.313,0.438c0.123,0.138 0.261,0.245 0.413,0.331c0.152,0.084 0.328,0.127 0.531,0.127c0.274,0 0.484,-0.067 0.63,-0.202c0.146,-0.136 0.218,-0.302 0.218,-0.505c0,-0.166 -0.061,-0.306 -0.184,-0.42c-0.124,-0.115 -0.316,-0.215 -0.574,-0.298c-0.17,-0.054 -0.327,-0.104 -0.468,-0.149c-0.142,-0.047 -0.277,-0.095 -0.4,-0.143c-0.286,-0.113 -0.501,-0.279 -0.641,-0.492c-0.138,-0.215 -0.209,-0.452 -0.209,-0.717c0,-0.169 0.035,-0.327 0.109,-0.483c0.072,-0.152 0.178,-0.291 0.316,-0.413c0.132,-0.116 0.301,-0.209 0.51,-0.282c0.207,-0.073 0.431,-0.107 0.675,-0.107c0.237,0 0.462,0.03 0.669,0.097c0.206,0.068 0.369,0.133 0.487,0.2l0.186,-0.181l0.262,0l0.024,1.459l-0.259,0c-0.062,-0.155 -0.132,-0.316 -0.213,-0.479c-0.082,-0.166 -0.167,-0.303 -0.26,-0.412c-0.099,-0.116 -0.212,-0.209 -0.341,-0.277c-0.13,-0.071 -0.279,-0.106 -0.453,-0.106c-0.217,0 -0.395,0.062 -0.531,0.185c-0.138,0.123 -0.209,0.275 -0.209,0.456c0,0.172 0.063,0.31 0.184,0.423c0.119,0.105 0.305,0.202 0.56,0.285c0.147,0.052 0.3,0.102 0.455,0.15c0.153,0.051 0.293,0.1 0.412,0.146c0.294,0.111 0.514,0.268 0.666,0.467c0.151,0.197 0.229,0.443 0.229,0.738c0,0.186 -0.043,0.366 -0.131,0.537c-0.084,0.175 -0.202,0.317 -0.349,0.432c-0.163,0.129 -0.35,0.226 -0.559,0.294c-0.211,0.068 -0.459,0.101 -0.741,0.101z"
                id="svg_58" />
            <path
                d="m34.222,24.08701c-0.279,0 -0.525,-0.04 -0.741,-0.12c-0.214,-0.083 -0.391,-0.192 -0.528,-0.333c-0.14,-0.144 -0.242,-0.313 -0.312,-0.507c-0.067,-0.195 -0.103,-0.408 -0.103,-0.639c0,-0.209 0.043,-0.408 0.126,-0.597c0.081,-0.19 0.196,-0.354 0.337,-0.497c0.148,-0.147 0.332,-0.268 0.549,-0.354c0.219,-0.085 0.461,-0.132 0.723,-0.132c0.372,0 0.661,0.07 0.879,0.211c0.214,0.14 0.321,0.329 0.321,0.566c0,0.146 -0.037,0.262 -0.114,0.349c-0.075,0.09 -0.207,0.134 -0.396,0.134c-0.151,0 -0.276,-0.036 -0.376,-0.109c-0.103,-0.072 -0.155,-0.166 -0.155,-0.282c0,-0.1 0.017,-0.195 0.048,-0.294c0.034,-0.095 0.053,-0.169 0.057,-0.22c-0.02,-0.035 -0.049,-0.063 -0.082,-0.083c-0.036,-0.02 -0.089,-0.028 -0.16,-0.028c-0.092,0 -0.174,0.021 -0.248,0.064c-0.075,0.043 -0.145,0.115 -0.209,0.221c-0.062,0.103 -0.111,0.237 -0.148,0.406c-0.038,0.168 -0.055,0.372 -0.055,0.608c0,0.359 0.083,0.646 0.251,0.868c0.169,0.22 0.369,0.329 0.603,0.329c0.226,0 0.4,-0.052 0.532,-0.149c0.132,-0.101 0.249,-0.243 0.352,-0.424l0.226,0.156c-0.062,0.121 -0.138,0.234 -0.223,0.337c-0.088,0.101 -0.19,0.191 -0.311,0.27c-0.128,0.082 -0.256,0.144 -0.388,0.187c-0.131,0.044 -0.283,0.062 -0.455,0.062z"
                id="svg_59" />
            <path
                d="m38.787,21.54901c0,0.152 -0.046,0.287 -0.143,0.404c-0.092,0.114 -0.216,0.172 -0.372,0.172c-0.148,0 -0.273,-0.037 -0.375,-0.111c-0.101,-0.073 -0.152,-0.181 -0.152,-0.326c0,-0.072 0.006,-0.126 0.016,-0.162c0.01,-0.042 0.02,-0.077 0.027,-0.111c-0.093,0.003 -0.189,0.036 -0.292,0.097c-0.102,0.059 -0.193,0.139 -0.271,0.239l0,1.656c0,0.07 0.01,0.128 0.032,0.176c0.023,0.045 0.058,0.082 0.111,0.107c0.045,0.022 0.115,0.042 0.215,0.056c0.101,0.016 0.173,0.024 0.216,0.027l0,0.219l-2.018,0l0,-0.221c0.05,-0.003 0.1,-0.01 0.152,-0.017c0.052,-0.007 0.095,-0.017 0.132,-0.029c0.065,-0.021 0.108,-0.055 0.132,-0.102c0.024,-0.047 0.035,-0.107 0.035,-0.181l0,-1.759c0,-0.072 -0.016,-0.137 -0.049,-0.192c-0.036,-0.057 -0.077,-0.103 -0.123,-0.139c-0.039,-0.023 -0.084,-0.044 -0.14,-0.06c-0.056,-0.015 -0.116,-0.026 -0.181,-0.033l0,-0.22l1.438,-0.078l0.047,0.045l0,0.438l0.012,0c0.139,-0.161 0.286,-0.288 0.441,-0.379s0.317,-0.137 0.486,-0.137c0.188,0 0.338,0.057 0.453,0.173c0.114,0.118 0.171,0.266 0.171,0.448z"
                id="svg_60" />
            <path
                d="m40.903,23.99201l-1.906,0l0,-0.221c0.051,-0.003 0.102,-0.009 0.152,-0.017c0.051,-0.003 0.095,-0.015 0.129,-0.029c0.065,-0.022 0.111,-0.058 0.138,-0.104c0.024,-0.046 0.041,-0.105 0.041,-0.179l0,-1.759c0,-0.068 -0.019,-0.131 -0.05,-0.184c-0.033,-0.052 -0.073,-0.097 -0.121,-0.128c-0.037,-0.025 -0.093,-0.048 -0.166,-0.069c-0.072,-0.022 -0.139,-0.036 -0.201,-0.043l0,-0.22l1.479,-0.078l0.047,0.045l0,2.396c0,0.071 0.015,0.13 0.045,0.181c0.029,0.048 0.071,0.084 0.13,0.109c0.04,0.019 0.084,0.033 0.133,0.047c0.048,0.015 0.098,0.026 0.15,0.033l0,0.22l0,0zm-0.441,-4.116c0,0.151 -0.059,0.282 -0.177,0.391c-0.117,0.105 -0.255,0.161 -0.418,0.161c-0.162,0 -0.302,-0.056 -0.421,-0.161c-0.116,-0.108 -0.177,-0.239 -0.177,-0.391c0,-0.155 0.061,-0.283 0.177,-0.394c0.119,-0.109 0.259,-0.163 0.421,-0.163c0.163,0 0.303,0.054 0.42,0.163c0.116,0.111 0.175,0.239 0.175,0.394z"
                id="svg_61" />
            <path
                d="m44.857,22.52101c0,0.426 -0.142,0.79 -0.428,1.092c-0.279,0.306 -0.641,0.458 -1.074,0.458c-0.193,0 -0.35,-0.021 -0.471,-0.061c-0.121,-0.036 -0.22,-0.087 -0.298,-0.143l-0.024,0l0,0.85c0,0.068 0.016,0.13 0.047,0.182c0.032,0.053 0.074,0.092 0.131,0.116c0.056,0.021 0.132,0.043 0.231,0.06c0.099,0.019 0.182,0.029 0.249,0.032l0,0.224l-2.183,0l0,-0.224c0.051,-0.003 0.115,-0.011 0.19,-0.022c0.076,-0.012 0.136,-0.021 0.172,-0.034c0.063,-0.021 0.107,-0.06 0.131,-0.112c0.023,-0.055 0.035,-0.114 0.035,-0.184l0,-3.087c-0.005,-0.067 -0.022,-0.124 -0.047,-0.176c-0.024,-0.051 -0.064,-0.094 -0.119,-0.133c-0.04,-0.026 -0.094,-0.048 -0.159,-0.064c-0.067,-0.016 -0.133,-0.027 -0.196,-0.034l0,-0.22l1.472,-0.078l0.046,0.039l0,0.334l0.024,0.008c0.133,-0.137 0.28,-0.241 0.441,-0.316c0.16,-0.072 0.321,-0.111 0.481,-0.111c0.415,0 0.743,0.146 0.984,0.442c0.243,0.294 0.365,0.682 0.365,1.162zm-1.084,0.013c0,-0.151 -0.011,-0.294 -0.033,-0.435c-0.021,-0.137 -0.062,-0.26 -0.118,-0.368c-0.054,-0.107 -0.126,-0.192 -0.214,-0.259c-0.091,-0.064 -0.2,-0.096 -0.327,-0.096c-0.131,0 -0.235,0.021 -0.314,0.066c-0.077,0.044 -0.146,0.104 -0.204,0.176l0,1.712c0.012,0.04 0.036,0.091 0.071,0.155c0.032,0.063 0.067,0.114 0.102,0.153c0.051,0.053 0.106,0.094 0.173,0.119c0.063,0.026 0.134,0.039 0.209,0.039c0.199,0 0.357,-0.105 0.477,-0.32c0.12,-0.213 0.178,-0.527 0.178,-0.942z"
                id="svg_62" />
            <path
                d="m47.491,23.85401c-0.129,0.054 -0.267,0.106 -0.414,0.15c-0.146,0.045 -0.325,0.068 -0.538,0.068c-0.313,0 -0.545,-0.077 -0.697,-0.229c-0.15,-0.152 -0.228,-0.37 -0.228,-0.654l0,-1.851l-0.543,0l0,-0.329l0.556,0l0,-0.914l0.977,0l0,0.914l0.848,0l0,0.329l-0.844,0l0,1.651c0,0.234 0.035,0.401 0.102,0.5c0.065,0.098 0.181,0.148 0.352,0.148c0.055,0 0.131,-0.004 0.229,-0.013c0.095,-0.008 0.162,-0.018 0.202,-0.028l0,0.258l-0.002,0z"
                id="svg_63" />
        </g>
    </g>
</svg>