<svg width="62" height="70" xmlns="http://www.w3.org/2000/svg" xmlns:svg="http://www.w3.org/2000/svg">
    <g id="hex_python">
        <path
            d="m31.01201,69.29901l31.004,-17.31l0,-34.681l-31.007,-17.308l-31.009,17.308l0,34.681l31.012,17.31zm-28.754,-50.665l28.751,-16.048l28.751,16.048l0,32.031l-28.751,16.048l-28.751,-16.048l0,-32.031z"
            id="outline_18_" />
        <polygon fill="#00B3A1" id="background_32_"
            points="59.760011474609655,50.66501025390653 59.760011474609655,18.63400439453153 31.00900439453153,2.586000244140905 2.257997314453405,18.63400439453153 2.257997314453405,50.66501025390653 31.00900439453153,66.7150285644534 " />
        <polygon fill="#00BFB4" id="background_31_"
            points="30.92202929687528,9.385011474609655 54.179017822265905,22.364991943359655 54.179017822265905,48.276002685547155 30.924989501953405,61.260011474609655 " />
        <g id="svg_20" transform="translate(0 -308.27)">
            <path
                d="m30.35801,361.04801c-3.194,-0.117 -5.173,-1.064 -5.676,-2.719l-0.061,-0.193l-0.009,-3.247c-0.007,-3.716 -0.004,-3.791 0.192,-4.383c0.361,-1.079 1.217,-1.775 2.55,-2.077l0.295,-0.069l3.67,-0.017c2.629,-0.009 3.72,-0.022 3.845,-0.045c0.736,-0.126 1.219,-0.319 1.67,-0.659c0.54,-0.404 0.986,-1.101 1.187,-1.849c0.149,-0.563 0.146,-0.504 0.162,-2.477l0.014,-1.834l2.645,0l0.255,0.07c1.377,0.386 2.374,1.688 2.799,3.652c0.164,0.758 0.166,0.784 0.167,2.712c0,1.877 -0.001,1.896 -0.132,2.507c-0.129,0.608 -0.298,1.101 -0.551,1.605c-0.508,1.022 -1.258,1.714 -2.206,2.035c-0.541,0.183 -0.086,0.171 -5.413,0.183l-4.8,0.015l0,0.872l3.183,0.014l3.183,0.013l0.013,1.566c0.006,0.858 0.004,1.638 -0.008,1.728c-0.026,0.221 -0.118,0.479 -0.249,0.704c-0.139,0.231 -0.551,0.648 -0.835,0.832c-0.853,0.569 -2.157,0.916 -3.874,1.029c-0.58,0.04 -1.4,0.053 -2.016,0.032l0,0z"
                fill="#FED142" id="svg_21" stroke="#000000" stroke-miterlimit="10" stroke-width="4" />
            <path
                d="m21.09801,354.38701c-0.723,-0.13 -1.432,-0.567 -1.936,-1.19c-0.953,-1.177 -1.43,-3.142 -1.372,-5.611c0.038,-1.536 0.27,-2.676 0.735,-3.647c0.602,-1.251 1.505,-1.992 2.719,-2.24c0.266,-0.054 0.279,-0.054 4.969,-0.054c2.584,0 4.72,-0.004 4.744,-0.013c0.035,-0.014 0.041,-0.072 0.041,-0.451c0,-0.237 -0.003,-0.437 -0.006,-0.439c-0.006,-0.004 -1.439,-0.013 -3.188,-0.02l-3.184,-0.013l-0.008,-1.653c-0.006,-1.813 -0.007,-1.789 0.149,-2.123c0.536,-1.154 2.119,-1.855 4.658,-2.062c0.184,-0.016 0.679,-0.033 1.103,-0.043c2.811,-0.054 4.871,0.46 5.954,1.485c0.121,0.112 0.277,0.281 0.349,0.377c0.162,0.211 0.364,0.616 0.439,0.888l0.061,0.204l0,3.414c0,3.188 -0.004,3.428 -0.048,3.658c-0.055,0.292 -0.189,0.707 -0.302,0.93c-0.388,0.767 -1.104,1.321 -2.049,1.586c-0.615,0.173 -0.336,0.163 -4.404,0.181c-4.04,0.018 -3.795,0.009 -4.362,0.168c-1.1,0.311 -1.907,1.169 -2.237,2.371c-0.148,0.54 -0.145,0.49 -0.161,2.477l-0.014,1.848l-1.232,0.005c-0.929,0.002 -1.277,-0.006 -1.418,-0.033l0,0z"
                fill="#3571A3" id="svg_22" stroke="#000000" stroke-miterlimit="10" stroke-width="4" />
        </g>
        <g id="svg_23">
            <path
                d="m23.31401,18.72001c0,0.24 -0.052,0.449 -0.152,0.621c-0.098,0.178 -0.235,0.316 -0.411,0.427c-0.184,0.111 -0.388,0.193 -0.62,0.243c-0.232,0.052 -0.492,0.077 -0.784,0.077l-0.349,0l0,1.203c0,0.071 0.013,0.137 0.041,0.188c0.026,0.056 0.078,0.099 0.154,0.13c0.04,0.016 0.106,0.031 0.196,0.051c0.09,0.019 0.167,0.031 0.228,0.038l0,0.234l-2.319,0l0,-0.234c0.058,-0.007 0.138,-0.018 0.232,-0.028c0.096,-0.012 0.165,-0.023 0.202,-0.038c0.078,-0.036 0.132,-0.074 0.157,-0.121c0.024,-0.046 0.037,-0.11 0.037,-0.192l0,-3.02c0,-0.072 -0.013,-0.131 -0.037,-0.184c-0.023,-0.051 -0.075,-0.094 -0.157,-0.127c-0.056,-0.025 -0.132,-0.046 -0.226,-0.066c-0.094,-0.019 -0.162,-0.03 -0.209,-0.036l0,-0.237l2.363,0c0.554,0 0.967,0.089 1.241,0.267c0.273,0.174 0.413,0.443 0.413,0.804zm-1.18,0.156c0,-0.323 -0.063,-0.564 -0.194,-0.721c-0.128,-0.154 -0.36,-0.234 -0.691,-0.234l-0.251,0l0,1.882l0.128,0c0.328,0 0.58,-0.077 0.75,-0.228c0.172,-0.153 0.258,-0.384 0.258,-0.699z"
                id="svg_24" />
            <path
                d="m27.00801,19.15801c-0.09,0.011 -0.177,0.047 -0.264,0.101c-0.085,0.054 -0.156,0.141 -0.211,0.253c-0.176,0.366 -0.352,0.758 -0.535,1.173c-0.183,0.411 -0.388,0.858 -0.611,1.34c-0.124,0.269 -0.244,0.484 -0.361,0.647c-0.115,0.158 -0.225,0.282 -0.33,0.37c-0.096,0.08 -0.191,0.138 -0.285,0.175c-0.095,0.036 -0.19,0.053 -0.288,0.053c-0.192,0 -0.345,-0.053 -0.462,-0.16c-0.117,-0.106 -0.178,-0.227 -0.178,-0.359c0,-0.057 0.007,-0.107 0.022,-0.155c0.013,-0.049 0.038,-0.1 0.08,-0.151c0.032,-0.045 0.082,-0.083 0.149,-0.113c0.067,-0.031 0.144,-0.047 0.229,-0.047c0.112,0 0.22,0.039 0.322,0.118c0.103,0.078 0.208,0.188 0.32,0.327c0.064,-0.066 0.147,-0.166 0.246,-0.299c0.096,-0.134 0.168,-0.269 0.215,-0.407c-0.24,-0.502 -0.451,-0.939 -0.638,-1.31c-0.185,-0.366 -0.393,-0.779 -0.62,-1.233c-0.05,-0.096 -0.119,-0.171 -0.202,-0.225c-0.084,-0.052 -0.174,-0.086 -0.269,-0.097l0,-0.22l1.848,0l0,0.22c-0.069,0.003 -0.147,0.017 -0.238,0.045c-0.086,0.028 -0.133,0.064 -0.133,0.107c0,0.02 0.003,0.034 0.009,0.053c0.007,0.021 0.02,0.049 0.035,0.084c0.068,0.14 0.163,0.334 0.29,0.586c0.126,0.249 0.27,0.541 0.438,0.876c0.124,-0.284 0.232,-0.53 0.318,-0.735c0.088,-0.206 0.174,-0.406 0.254,-0.605c0.02,-0.05 0.032,-0.09 0.036,-0.121c0.002,-0.026 0.005,-0.048 0.005,-0.056c0,-0.035 -0.018,-0.069 -0.054,-0.098c-0.035,-0.026 -0.077,-0.05 -0.124,-0.07c-0.05,-0.02 -0.099,-0.035 -0.146,-0.044c-0.046,-0.012 -0.085,-0.019 -0.114,-0.021l0,-0.22l1.246,0l0,0.218l0.001,0z"
                id="svg_25" />
            <path
                d="m29.31601,21.79201c-0.128,0.056 -0.266,0.105 -0.412,0.152c-0.146,0.044 -0.325,0.067 -0.537,0.067c-0.313,0 -0.546,-0.075 -0.697,-0.23c-0.153,-0.148 -0.229,-0.368 -0.229,-0.652l0,-1.852l-0.542,0l0,-0.329l0.555,0l0,-0.915l0.977,0l0,0.915l0.849,0l0,0.329l-0.843,0l0,1.652c0,0.233 0.034,0.4 0.099,0.5c0.067,0.098 0.184,0.147 0.354,0.147c0.054,0 0.13,-0.005 0.228,-0.011c0.098,-0.01 0.165,-0.017 0.201,-0.028l0,0.255l-0.003,0z"
                id="svg_26" />
            <path
                d="m33.45301,21.93201l-1.813,0l0,-0.22c0.039,-0.005 0.088,-0.011 0.142,-0.015c0.055,-0.007 0.096,-0.019 0.121,-0.032c0.042,-0.021 0.071,-0.056 0.088,-0.097c0.018,-0.042 0.025,-0.105 0.025,-0.188l0,-1.411c0,-0.207 -0.037,-0.361 -0.116,-0.465c-0.077,-0.104 -0.188,-0.155 -0.33,-0.155c-0.08,0 -0.156,0.013 -0.224,0.037c-0.07,0.025 -0.138,0.058 -0.205,0.105c-0.06,0.041 -0.106,0.082 -0.141,0.123c-0.035,0.042 -0.066,0.081 -0.09,0.11l0,1.623c0,0.073 0.01,0.133 0.028,0.176c0.02,0.044 0.052,0.079 0.101,0.108c0.031,0.017 0.072,0.032 0.121,0.046c0.048,0.016 0.097,0.025 0.143,0.033l0,0.22l-1.842,0l0,-0.22c0.054,-0.005 0.104,-0.011 0.156,-0.015c0.048,-0.007 0.092,-0.019 0.13,-0.032c0.065,-0.025 0.109,-0.06 0.132,-0.105c0.025,-0.044 0.036,-0.104 0.036,-0.179l0,-3.365c0,-0.063 -0.017,-0.132 -0.045,-0.203c-0.03,-0.074 -0.073,-0.127 -0.127,-0.165c-0.041,-0.027 -0.098,-0.045 -0.177,-0.06c-0.075,-0.015 -0.144,-0.026 -0.203,-0.029l0,-0.221l1.503,-0.08l0.044,0.051l0,2.075l0.012,0c0.077,-0.067 0.146,-0.132 0.208,-0.186c0.06,-0.055 0.135,-0.111 0.225,-0.17c0.074,-0.046 0.171,-0.088 0.289,-0.122c0.12,-0.03 0.249,-0.052 0.388,-0.052c0.326,0 0.571,0.096 0.734,0.284c0.165,0.185 0.246,0.431 0.246,0.737l0,1.479c0,0.075 0.01,0.135 0.033,0.18c0.021,0.043 0.063,0.077 0.124,0.104c0.036,0.017 0.075,0.03 0.12,0.041c0.045,0.013 0.097,0.023 0.162,0.032l0,0.22l0.002,0l0,0.003z"
                id="svg_27" />
            <path
                d="m36.81101,19.29401c0.149,0.14 0.262,0.304 0.341,0.496c0.079,0.194 0.116,0.402 0.116,0.628c0,0.225 -0.037,0.436 -0.115,0.634s-0.189,0.367 -0.339,0.508c-0.16,0.152 -0.349,0.267 -0.568,0.348c-0.22,0.078 -0.473,0.12 -0.757,0.12c-0.246,0 -0.47,-0.035 -0.677,-0.105c-0.207,-0.071 -0.388,-0.177 -0.548,-0.317c-0.151,-0.136 -0.274,-0.3 -0.36,-0.5c-0.09,-0.198 -0.134,-0.418 -0.134,-0.665c0,-0.242 0.037,-0.456 0.114,-0.644c0.08,-0.188 0.196,-0.356 0.352,-0.502c0.147,-0.143 0.332,-0.251 0.548,-0.327c0.221,-0.079 0.464,-0.118 0.733,-0.118c0.282,0 0.53,0.039 0.742,0.118c0.218,0.075 0.4,0.183 0.552,0.326zm-0.774,2.09c0.046,-0.114 0.077,-0.248 0.098,-0.412c0.022,-0.16 0.033,-0.347 0.033,-0.559c0,-0.142 -0.011,-0.304 -0.03,-0.482c-0.022,-0.184 -0.051,-0.326 -0.091,-0.428c-0.051,-0.129 -0.115,-0.229 -0.201,-0.3c-0.085,-0.074 -0.193,-0.11 -0.325,-0.11c-0.141,0 -0.257,0.04 -0.343,0.117c-0.084,0.082 -0.15,0.183 -0.197,0.306c-0.041,0.116 -0.07,0.251 -0.086,0.403c-0.016,0.153 -0.025,0.313 -0.025,0.482c0,0.219 0.008,0.399 0.022,0.543c0.013,0.146 0.046,0.288 0.101,0.436c0.047,0.123 0.111,0.224 0.2,0.295c0.086,0.071 0.195,0.106 0.328,0.106c0.121,0 0.226,-0.031 0.313,-0.102c0.085,-0.064 0.154,-0.163 0.203,-0.295z"
                id="svg_28" />
            <path
                d="m41.64201,21.93201l-1.813,0l0,-0.22c0.039,-0.005 0.084,-0.011 0.139,-0.015c0.056,-0.007 0.096,-0.019 0.126,-0.032c0.041,-0.021 0.072,-0.056 0.089,-0.097c0.019,-0.042 0.027,-0.105 0.027,-0.188l0,-1.411c0,-0.205 -0.038,-0.361 -0.113,-0.464c-0.076,-0.104 -0.187,-0.156 -0.334,-0.156c-0.08,0 -0.157,0.013 -0.226,0.037c-0.07,0.025 -0.138,0.058 -0.204,0.105c-0.058,0.041 -0.105,0.082 -0.141,0.123c-0.037,0.042 -0.064,0.081 -0.09,0.11l0,1.623c0,0.068 0.012,0.128 0.031,0.176c0.021,0.048 0.054,0.083 0.101,0.108c0.031,0.017 0.071,0.032 0.118,0.046c0.049,0.016 0.097,0.025 0.142,0.033l0,0.22l-1.835,0l0,-0.22c0.05,-0.005 0.103,-0.011 0.154,-0.02c0.05,-0.004 0.092,-0.015 0.13,-0.027c0.064,-0.021 0.109,-0.057 0.133,-0.102c0.024,-0.047 0.035,-0.107 0.035,-0.183l0,-1.756c0,-0.063 -0.015,-0.122 -0.046,-0.184c-0.035,-0.062 -0.074,-0.109 -0.128,-0.147c-0.038,-0.024 -0.081,-0.043 -0.138,-0.062c-0.058,-0.016 -0.116,-0.027 -0.182,-0.033l0,-0.22l1.439,-0.079l0.045,0.047l0,0.437l0.012,0c0.057,-0.05 0.124,-0.111 0.205,-0.181c0.08,-0.07 0.154,-0.127 0.223,-0.175c0.074,-0.046 0.172,-0.088 0.294,-0.122c0.118,-0.03 0.249,-0.052 0.387,-0.052c0.327,0 0.572,0.096 0.737,0.28c0.163,0.187 0.245,0.434 0.245,0.741l0,1.479c0,0.075 0.013,0.135 0.033,0.18c0.022,0.043 0.063,0.077 0.124,0.104c0.032,0.012 0.071,0.026 0.119,0.041c0.047,0.015 0.1,0.024 0.161,0.032l0,0.224l0.001,0z"
                id="svg_29" />
        </g>
    </g>
</svg>