<svg width="62" height="70" xmlns="http://www.w3.org/2000/svg" xmlns:svg="http://www.w3.org/2000/svg">
    <g id="hex_ai">
        <path
            d="m31.008,0l-31.008,17.31l0,34.681l31.008,17.308l31.006,-17.308l0,-34.681l-31.006,-17.31zm28.749,50.664l-28.749,16.051l-28.751,-16.051l0,-32.031l28.751,-16.049l28.749,16.049l0,32.031z"
            fill="#FF7C00" id="outline_1_" />
        <polygon fill="#261300" id="background_1_"
            points="2.257001916885656,18.633004943847936 2.257001916885656,50.664003173828405 31.00800112915067,66.71500567626981 59.756994049072546,50.664003173828405 59.756994049072546,18.635003845215124 31.00800112915067,2.5840013427737176 " />
        <g id="content">
            <path
                d="m20.768,42.326l-2.375,9.026c-0.062,0.241 -0.151,0.301 -0.452,0.301l-4.424,0c-0.302,0 -0.361,-0.089 -0.302,-0.451l8.549,-29.916c0.149,-0.543 0.239,-1.022 0.299,-2.498c0,-0.21 0.093,-0.301 0.242,-0.301l6.321,0c0.21,0 0.299,0.063 0.359,0.301l9.572,32.476c0.061,0.239 0,0.39 -0.241,0.39l-4.997,0c-0.239,0 -0.392,-0.06 -0.452,-0.27l-2.499,-9.058l-9.6,0l0,0zm8.37,-4.879c-0.842,-3.339 -2.828,-10.623 -3.583,-14.146l-0.06,0c-0.632,3.523 -2.228,9.483 -3.491,14.146l7.134,0zm13.544,-16.731c0,-1.928 1.353,-3.069 3.067,-3.069c1.836,0 3.07,1.232 3.07,3.069c0,1.985 -1.295,3.068 -3.131,3.068c-1.744,0 -3.006,-1.083 -3.006,-3.068l0,0zm0.36,6.831c0,-0.242 0.09,-0.362 0.36,-0.362l4.725,0c0.24,0 0.363,0.091 0.363,0.362l0,23.745c0,0.241 -0.063,0.361 -0.363,0.361l-4.666,0c-0.3,0 -0.391,-0.15 -0.391,-0.39l0,-23.716l-0.028,0l0,0z"
                fill="#FF7C00" id="svg_4" />
        </g>
    </g>
</svg>