<svg width="62" height="70" xmlns="http://www.w3.org/2000/svg" xmlns:svg="http://www.w3.org/2000/svg">
    <g id="hex_mysql">
        <path
            d="m31.009,69.29801l31.006,-17.308l0,-34.681l-31.007,-17.309l-31.008,17.31l0,34.681l31.009,17.307zm-28.752,-50.664l28.751,-16.048l28.75,16.048l0,32.03l-28.749,16.05l-28.752,-16.05l0,-32.03z"
            id="outline_21_" />
        <polygon fill="#00546B" id="background_34_"
            points="59.757997314453405,50.664003173828405 59.757997314453405,18.63400439453153 31.007997314453405,2.586000244140905 2.2559984130862176,18.63400439453153 2.2559984130862176,50.664003173828405 31.00900439453153,66.71402148437528 " />
        <polygon fill="#2E456B" id="background_33_"
            points="30.92299822998075,9.385988037109655 54.18100146484403,22.367006103515905 54.18100146484403,48.27700976562528 30.92299822998075,61.25900439453153 " />
        <g id="svg_14">
            <path
                d="m25.699,21.93201l-2.322,0l0,-0.235c0.069,-0.007 0.155,-0.017 0.252,-0.03c0.1,-0.017 0.169,-0.029 0.203,-0.046c0.076,-0.03 0.128,-0.072 0.16,-0.123c0.033,-0.053 0.048,-0.119 0.048,-0.2l0,-3.2l-1.469,3.765l-0.381,0c-0.021,-0.066 -0.064,-0.198 -0.135,-0.397c-0.073,-0.196 -0.13,-0.352 -0.174,-0.473l-1.085,-2.941l0,2.605c0,0.248 0.017,0.438 0.051,0.567c0.033,0.128 0.088,0.227 0.159,0.286c0.053,0.041 0.143,0.082 0.272,0.12c0.131,0.037 0.219,0.061 0.273,0.067l0,0.235l-1.842,0l0,-0.235c0.05,-0.007 0.134,-0.019 0.245,-0.043c0.115,-0.021 0.209,-0.057 0.279,-0.108c0.082,-0.056 0.136,-0.151 0.163,-0.285c0.029,-0.133 0.043,-0.325 0.043,-0.572l0,-2.122c0,-0.127 -0.016,-0.234 -0.048,-0.321c-0.033,-0.086 -0.081,-0.151 -0.146,-0.202c-0.081,-0.063 -0.163,-0.104 -0.248,-0.121c-0.084,-0.019 -0.169,-0.029 -0.256,-0.037l0,-0.235l1.974,0l1.056,2.821l0.891,-2.287c0.03,-0.086 0.06,-0.186 0.087,-0.304c0.028,-0.117 0.043,-0.194 0.045,-0.23l1.896,0l0,0.235c-0.063,0.006 -0.132,0.013 -0.201,0.027c-0.071,0.013 -0.14,0.026 -0.202,0.045c-0.079,0.027 -0.132,0.07 -0.156,0.125c-0.026,0.055 -0.038,0.118 -0.038,0.186l0,3.035c0,0.072 0.012,0.132 0.038,0.183c0.024,0.047 0.077,0.091 0.156,0.127c0.041,0.02 0.104,0.036 0.197,0.052c0.092,0.017 0.163,0.026 0.214,0.033l0,0.233l0.001,0z"
                fill="#FFFFFF" id="svg_15" />
            <path
                d="m29.515,19.15701c-0.09,0.015 -0.18,0.048 -0.265,0.104c-0.086,0.054 -0.155,0.139 -0.212,0.253c-0.174,0.364 -0.353,0.756 -0.535,1.169c-0.182,0.414 -0.386,0.86 -0.608,1.342c-0.125,0.27 -0.245,0.486 -0.361,0.646c-0.118,0.16 -0.227,0.285 -0.331,0.372c-0.096,0.081 -0.191,0.138 -0.287,0.174c-0.096,0.037 -0.188,0.052 -0.286,0.052c-0.19,0 -0.345,-0.052 -0.462,-0.157c-0.119,-0.108 -0.18,-0.229 -0.18,-0.359c0,-0.058 0.008,-0.111 0.022,-0.157c0.013,-0.049 0.04,-0.101 0.083,-0.15c0.032,-0.046 0.081,-0.083 0.148,-0.114s0.145,-0.047 0.229,-0.047c0.111,0 0.219,0.039 0.322,0.118c0.101,0.08 0.207,0.188 0.32,0.327c0.067,-0.066 0.146,-0.166 0.245,-0.3s0.169,-0.268 0.216,-0.406c-0.24,-0.504 -0.451,-0.939 -0.636,-1.308c-0.186,-0.368 -0.393,-0.779 -0.622,-1.234c-0.05,-0.097 -0.117,-0.17 -0.203,-0.225c-0.085,-0.053 -0.174,-0.086 -0.269,-0.099l0,-0.219l1.848,0l0,0.219c-0.068,0.004 -0.146,0.019 -0.235,0.046c-0.091,0.028 -0.136,0.064 -0.136,0.109c0,0.018 0.004,0.033 0.01,0.052c0.006,0.021 0.019,0.048 0.032,0.083c0.069,0.14 0.166,0.337 0.292,0.587c0.125,0.25 0.271,0.54 0.438,0.877c0.125,-0.286 0.229,-0.532 0.316,-0.737c0.089,-0.204 0.173,-0.407 0.256,-0.606c0.021,-0.049 0.031,-0.089 0.034,-0.118c0.004,-0.029 0.005,-0.05 0.005,-0.059c0,-0.036 -0.019,-0.067 -0.053,-0.095c-0.035,-0.028 -0.076,-0.052 -0.124,-0.07c-0.051,-0.022 -0.098,-0.037 -0.146,-0.047c-0.044,-0.011 -0.083,-0.017 -0.113,-0.021l0,-0.219l1.247,0l0,0.217l0.001,0z"
                fill="#FFFFFF" id="svg_16" />
            <path
                d="m31.407,22.04901c-0.26,0 -0.504,-0.031 -0.731,-0.098c-0.227,-0.063 -0.418,-0.143 -0.574,-0.232l-0.208,0.213l-0.257,0l-0.041,-1.55l0.261,0c0.059,0.147 0.135,0.305 0.224,0.468c0.093,0.161 0.196,0.311 0.313,0.437c0.123,0.135 0.26,0.249 0.412,0.332c0.153,0.084 0.33,0.126 0.535,0.126c0.271,0 0.481,-0.065 0.628,-0.201c0.145,-0.135 0.22,-0.302 0.22,-0.504c0,-0.168 -0.064,-0.308 -0.187,-0.421c-0.123,-0.115 -0.314,-0.213 -0.574,-0.297c-0.17,-0.056 -0.326,-0.104 -0.466,-0.15c-0.143,-0.048 -0.275,-0.094 -0.4,-0.144c-0.288,-0.114 -0.503,-0.277 -0.643,-0.491c-0.139,-0.215 -0.208,-0.451 -0.208,-0.716c0,-0.17 0.034,-0.326 0.11,-0.481c0.072,-0.156 0.177,-0.293 0.313,-0.415c0.135,-0.117 0.303,-0.21 0.512,-0.282c0.207,-0.075 0.431,-0.11 0.676,-0.11c0.238,0 0.46,0.031 0.667,0.099s0.369,0.134 0.488,0.2l0.184,-0.182l0.264,0l0.024,1.46l-0.262,0c-0.061,-0.156 -0.132,-0.317 -0.214,-0.479c-0.079,-0.168 -0.166,-0.303 -0.258,-0.411c-0.097,-0.116 -0.212,-0.211 -0.34,-0.28c-0.129,-0.071 -0.28,-0.104 -0.453,-0.104c-0.217,0 -0.395,0.061 -0.532,0.184c-0.139,0.123 -0.206,0.274 -0.206,0.456c0,0.17 0.059,0.311 0.178,0.418c0.121,0.111 0.309,0.205 0.561,0.291c0.148,0.049 0.3,0.099 0.458,0.149c0.155,0.049 0.29,0.099 0.413,0.144c0.29,0.115 0.511,0.27 0.664,0.469c0.151,0.199 0.229,0.444 0.229,0.738c0,0.187 -0.044,0.366 -0.13,0.538c-0.085,0.173 -0.204,0.317 -0.35,0.432c-0.164,0.127 -0.349,0.225 -0.56,0.293c-0.211,0.068 -0.457,0.101 -0.74,0.101z"
                fill="#FFFFFF" id="svg_17" />
            <path
                d="m37.58,18.12301c0.21,0.195 0.376,0.429 0.501,0.7c0.124,0.273 0.186,0.589 0.186,0.938c0,0.496 -0.124,0.933 -0.373,1.309c-0.249,0.377 -0.601,0.646 -1.054,0.812c0.005,0.24 0.076,0.447 0.217,0.623c0.139,0.176 0.302,0.262 0.491,0.262c0.117,0 0.219,-0.007 0.307,-0.021c0.087,-0.012 0.167,-0.028 0.237,-0.047l0,0.265c-0.113,0.049 -0.284,0.098 -0.511,0.147c-0.226,0.049 -0.463,0.075 -0.709,0.075c-0.339,0 -0.616,-0.103 -0.833,-0.305c-0.221,-0.202 -0.342,-0.485 -0.369,-0.846c-0.285,-0.029 -0.55,-0.102 -0.795,-0.213c-0.247,-0.111 -0.464,-0.264 -0.648,-0.456c-0.185,-0.188 -0.329,-0.412 -0.438,-0.673c-0.108,-0.26 -0.162,-0.545 -0.162,-0.856c0,-0.352 0.061,-0.668 0.181,-0.951c0.121,-0.285 0.284,-0.531 0.493,-0.732c0.207,-0.199 0.455,-0.354 0.739,-0.459c0.283,-0.108 0.587,-0.162 0.908,-0.162s0.621,0.054 0.903,0.155c0.28,0.103 0.521,0.25 0.729,0.435zm-0.777,3.065c0.09,-0.183 0.155,-0.39 0.196,-0.622c0.041,-0.23 0.06,-0.494 0.06,-0.784c0,-0.249 -0.017,-0.489 -0.051,-0.721c-0.036,-0.238 -0.097,-0.445 -0.181,-0.63c-0.087,-0.182 -0.201,-0.329 -0.344,-0.441c-0.144,-0.108 -0.32,-0.165 -0.535,-0.165c-0.363,0 -0.64,0.173 -0.829,0.52c-0.189,0.346 -0.284,0.832 -0.284,1.462c0,0.27 0.02,0.521 0.061,0.76c0.042,0.236 0.107,0.443 0.197,0.621c0.089,0.179 0.203,0.319 0.342,0.419c0.14,0.1 0.311,0.149 0.514,0.149c0.2,0 0.369,-0.05 0.514,-0.151c0.142,-0.102 0.254,-0.242 0.34,-0.417z"
                fill="#FFFFFF" id="svg_18" />
            <path
                d="m42.718,20.55801l-0.085,1.374l-3.944,0l0,-0.235c0.071,-0.007 0.154,-0.017 0.248,-0.03s0.157,-0.022 0.188,-0.035c0.072,-0.029 0.122,-0.068 0.149,-0.12c0.028,-0.051 0.042,-0.114 0.042,-0.19l0,-3.022c0,-0.072 -0.011,-0.132 -0.031,-0.18c-0.023,-0.047 -0.077,-0.092 -0.16,-0.129c-0.063,-0.029 -0.14,-0.052 -0.227,-0.065c-0.087,-0.019 -0.158,-0.032 -0.21,-0.04l0,-0.235l2.352,0l0,0.235c-0.064,0.008 -0.141,0.013 -0.229,0.027c-0.087,0.01 -0.162,0.025 -0.226,0.045c-0.079,0.027 -0.132,0.067 -0.158,0.122c-0.025,0.056 -0.038,0.118 -0.038,0.188l0,2.816c0,0.133 0.009,0.238 0.027,0.313c0.016,0.076 0.053,0.132 0.105,0.168c0.051,0.039 0.123,0.064 0.22,0.076c0.092,0.009 0.221,0.015 0.385,0.015c0.163,0 0.319,-0.008 0.472,-0.026c0.152,-0.021 0.26,-0.062 0.326,-0.127c0.103,-0.104 0.208,-0.245 0.315,-0.433c0.108,-0.188 0.193,-0.358 0.259,-0.512l0.22,0l0,0z"
                fill="#FFFFFF" id="svg_19" />
        </g>
        <g id="g3001_1_" opacity="0.88" transform="translate(230.46 6.4962)">
            <path
                d="m-187.357,40.03401c-1.534,-0.038 -2.72,0.113 -3.716,0.533c-0.286,0.116 -0.747,0.116 -0.783,0.479c0.15,0.154 0.171,0.403 0.305,0.612c0.229,0.383 0.632,0.902 0.997,1.168c0.4,0.307 0.804,0.615 1.225,0.883c0.747,0.457 1.588,0.727 2.315,1.186c0.422,0.269 0.844,0.611 1.267,0.9c0.208,0.151 0.341,0.401 0.609,0.495c0,-0.017 0,-0.037 0,-0.055c-0.134,-0.172 -0.172,-0.422 -0.306,-0.613c-0.191,-0.191 -0.383,-0.364 -0.574,-0.555c-0.556,-0.745 -1.244,-1.397 -1.991,-1.935c-0.613,-0.42 -1.953,-0.995 -2.199,-1.702c0,0 -0.021,-0.02 -0.04,-0.038c0.421,-0.041 0.919,-0.192 1.322,-0.306c0.65,-0.174 1.244,-0.135 1.912,-0.309c0.309,-0.077 0.612,-0.17 0.921,-0.268c0,-0.057 0,-0.114 0,-0.169c-0.346,-0.347 -0.594,-0.808 -0.959,-1.132c-0.976,-0.842 -2.047,-1.665 -3.156,-2.354c-0.594,-0.384 -1.362,-0.632 -1.992,-0.957c-0.229,-0.116 -0.612,-0.173 -0.746,-0.364c-0.345,-0.421 -0.537,-0.977 -0.784,-1.474c-0.557,-1.054 -1.092,-2.222 -1.571,-3.331c-0.344,-0.747 -0.556,-1.493 -0.977,-2.184c-1.97,-3.253 -4.115,-5.224 -7.407,-7.158c-0.708,-0.401 -1.552,-0.574 -2.45,-0.784c-0.479,-0.02 -0.957,-0.057 -1.436,-0.077c-0.307,-0.132 -0.613,-0.497 -0.88,-0.67c-1.093,-0.69 -3.906,-2.181 -4.71,-0.211c-0.518,1.245 0.765,2.471 1.205,3.104c0.325,0.438 0.746,0.938 0.979,1.435c0.133,0.324 0.17,0.669 0.305,1.015c0.307,0.842 0.593,1.78 0.995,2.565c0.213,0.4 0.441,0.821 0.708,1.187c0.153,0.21 0.423,0.308 0.479,0.649c-0.266,0.383 -0.287,0.957 -0.438,1.438c-0.689,2.162 -0.422,4.843 0.555,6.43c0.306,0.48 1.034,1.533 2.009,1.132c0.861,-0.346 0.671,-1.438 0.919,-2.395c0.06,-0.228 0.021,-0.381 0.136,-0.536c0,0.021 0,0.038 0,0.038c0.268,0.538 0.535,1.054 0.784,1.589c0.592,0.939 1.628,1.914 2.487,2.565c0.46,0.348 0.824,0.938 1.399,1.149c0,-0.021 0,-0.04 0,-0.059c-0.021,0 -0.021,0 -0.039,0c-0.117,-0.172 -0.287,-0.249 -0.44,-0.383c-0.345,-0.345 -0.726,-0.765 -0.997,-1.147c-0.801,-1.074 -1.511,-2.26 -2.144,-3.484c-0.306,-0.594 -0.574,-1.244 -0.822,-1.838c-0.114,-0.23 -0.114,-0.573 -0.308,-0.688c-0.287,0.42 -0.707,0.784 -0.917,1.301c-0.363,0.824 -0.401,1.839 -0.537,2.891c-0.075,0.018 -0.038,0 -0.075,0.038c-0.613,-0.154 -0.822,-0.783 -1.052,-1.321c-0.575,-1.358 -0.672,-3.54 -0.174,-5.111c0.134,-0.402 0.709,-1.664 0.479,-2.049c-0.114,-0.362 -0.498,-0.573 -0.708,-0.86c-0.25,-0.364 -0.518,-0.824 -0.688,-1.226c-0.461,-1.073 -0.688,-2.259 -1.188,-3.33c-0.229,-0.5 -0.631,-1.016 -0.957,-1.473c-0.363,-0.518 -0.765,-0.883 -1.053,-1.493c-0.096,-0.212 -0.23,-0.555 -0.075,-0.786c0.039,-0.151 0.114,-0.211 0.268,-0.247c0.249,-0.212 0.957,0.056 1.206,0.172c0.708,0.287 1.303,0.557 1.896,0.956c0.269,0.19 0.556,0.556 0.898,0.651c0.135,0 0.269,0 0.402,0c0.613,0.134 1.304,0.039 1.877,0.212c1.014,0.324 1.935,0.802 2.757,1.318c2.508,1.59 4.576,3.849 5.973,6.547c0.229,0.44 0.326,0.845 0.536,1.301c0.401,0.938 0.9,1.897 1.301,2.816c0.401,0.898 0.784,1.818 1.36,2.563c0.287,0.402 1.436,0.613 1.953,0.823c0.38,0.172 0.976,0.326 1.319,0.536c0.65,0.402 1.302,0.862 1.913,1.303c0.303,0.229 1.26,0.708 1.318,1.092l0,0l0,0z"
                fill="#FFFFFF" id="path16_1_" />
            <path
                d="m-206.885,23.39801c-0.324,0 -0.556,0.037 -0.784,0.097c0,0 0,0.017 0,0.04c0.019,0 0.019,0 0.039,0c0.152,0.305 0.421,0.516 0.611,0.782c0.154,0.305 0.286,0.611 0.439,0.92c0.02,-0.022 0.038,-0.039 0.038,-0.039c0.268,-0.192 0.402,-0.499 0.402,-0.957c-0.114,-0.135 -0.136,-0.27 -0.229,-0.401c-0.112,-0.193 -0.363,-0.288 -0.516,-0.442l0,0z"
                fill="#FFFFFF" id="path18_1_" />
        </g>
    </g>
</svg>