<svg width="62" height="70" xmlns="http://www.w3.org/2000/svg" xmlns:svg="http://www.w3.org/2000/svg">
    <g id="hex_css3">
        <path
            d="m31.008,69.3l31.006,-17.311l0,-34.681l-31.006,-17.308l-31.008,17.309l0,34.681l31.008,17.31zm-28.751,-50.665l28.751,-16.05l28.749,16.05l0,32.031l-28.749,16.048l-28.751,-16.048l0,-32.031z"
            id="outline_15_" />
        <polygon fill="#264DE4" id="background_21_"
            points="59.75700549316434,50.66599444580106 59.75700549316434,18.635005752563757 31.008004943847936,2.585002700805944 2.256006042480749,18.635005752563757 2.256006042480749,50.66599444580106 31.008004943847936,66.71399859619169 " />
        <polygon fill="#2965F1" id="background_20_"
            points="30.922006408691686,9.38599757385282 54.17900256347684,22.368999282837194 54.17900256347684,48.2790048522952 30.925004760742468,61.260003845215124 " />
        <polygon fill="#EBEBEB" id="polygon2993"
            points="19.622003356933874,36.350003997803014 20.03800372314481,40.98899630737333 30.417001525879186,40.98899630737333 30.417001525879186,36.350003997803014 " />
        <polygon fill="#EBEBEB" id="polygon2995"
            points="18.78800372314481,26.960994522095007 19.21000079345731,31.60000209045438 30.417001525879186,31.60000209045438 30.417001525879186,26.960994522095007 30.40000323486356,26.960994522095007 " />
        <polygon fill="#EBEBEB" id="polygon2997"
            points="30.417001525879186,48.394006530762 30.395005981445593,48.398996154785436 25.231004516601843,47.00500277709989 24.90200213623075,43.305002014160436 22.39200000000028,43.305002014160436 20.24600390625028,43.305002014160436 20.894006530762,50.5869996948245 30.395005981445593,53.22599200439481 30.417001525879186,53.219003479004186 " />
        <polygon fill="#FFFFFF" id="polygon3005"
            points="41.18100146484403,36.350003997803014 42.017999450683874,26.960994522095007 30.40000323486356,26.960994522095007 30.40000323486356,31.60000209045438 36.934999267578405,31.60000209045438 36.513002197265905,36.350003997803014 30.40000323486356,36.350003997803014 30.40000323486356,40.98899630737333 36.11000231933622,40.98899630737333 35.572999755859655,47.00199298095731 30.40000323486356,48.39600924682645 30.40000323486356,53.22300128173856 39.90799884033231,50.5869996948245 39.97800616455106,49.80399874877958 41.06700305175809,37.594999114990514 " />
        <g id="svg_35">
            <path
                d="m26.54,21.487c-0.314,0 -0.607,-0.051 -0.88,-0.152c-0.274,-0.102 -0.514,-0.25 -0.716,-0.441c-0.198,-0.19 -0.356,-0.425 -0.472,-0.704c-0.114,-0.28 -0.172,-0.586 -0.172,-0.919c0,-0.334 0.058,-0.643 0.174,-0.925c0.117,-0.281 0.279,-0.527 0.487,-0.736c0.205,-0.204 0.451,-0.36 0.739,-0.473c0.287,-0.111 0.596,-0.165 0.924,-0.165c0.238,0 0.455,0.026 0.648,0.086c0.196,0.059 0.361,0.123 0.496,0.195l0.186,-0.166l0.264,0l0.027,1.564l-0.267,0c-0.15,-0.479 -0.33,-0.828 -0.543,-1.053c-0.211,-0.225 -0.468,-0.338 -0.771,-0.338c-0.378,0 -0.664,0.169 -0.862,0.503c-0.196,0.331 -0.297,0.801 -0.297,1.403c0,0.339 0.036,0.632 0.104,0.874c0.066,0.239 0.154,0.432 0.264,0.58c0.115,0.153 0.254,0.265 0.412,0.338c0.161,0.071 0.336,0.106 0.527,0.106c0.282,0 0.532,-0.076 0.751,-0.229c0.222,-0.154 0.422,-0.385 0.604,-0.695l0.26,0.157c-0.087,0.177 -0.184,0.337 -0.297,0.476c-0.11,0.139 -0.238,0.26 -0.383,0.36c-0.159,0.111 -0.335,0.197 -0.526,0.261c-0.191,0.062 -0.418,0.093 -0.681,0.093z"
                fill="#FFFFFF" id="svg_36" />
            <path
                d="m30.511,21.487c-0.261,0 -0.504,-0.034 -0.731,-0.099s-0.419,-0.143 -0.575,-0.231l-0.207,0.212l-0.256,0l-0.039,-1.549l0.259,0c0.06,0.147 0.134,0.304 0.224,0.467c0.092,0.163 0.195,0.309 0.313,0.438c0.122,0.136 0.262,0.244 0.412,0.33c0.151,0.085 0.331,0.127 0.532,0.127c0.273,0 0.485,-0.067 0.63,-0.202c0.146,-0.134 0.219,-0.302 0.219,-0.505c0,-0.165 -0.062,-0.309 -0.186,-0.421c-0.124,-0.114 -0.315,-0.211 -0.574,-0.294c-0.17,-0.055 -0.324,-0.105 -0.467,-0.15c-0.141,-0.049 -0.274,-0.097 -0.399,-0.146c-0.288,-0.113 -0.501,-0.277 -0.641,-0.49c-0.141,-0.214 -0.21,-0.453 -0.21,-0.717c0,-0.169 0.035,-0.327 0.109,-0.483c0.071,-0.152 0.177,-0.293 0.315,-0.416c0.132,-0.113 0.304,-0.207 0.511,-0.279c0.206,-0.073 0.433,-0.107 0.676,-0.107c0.238,0 0.46,0.03 0.666,0.098c0.209,0.067 0.372,0.134 0.49,0.199l0.184,-0.182l0.262,0l0.025,1.46l-0.26,0c-0.061,-0.157 -0.133,-0.317 -0.213,-0.481c-0.081,-0.165 -0.167,-0.302 -0.257,-0.411c-0.1,-0.117 -0.213,-0.211 -0.343,-0.279c-0.128,-0.069 -0.279,-0.104 -0.452,-0.104c-0.219,0 -0.395,0.06 -0.531,0.185c-0.139,0.122 -0.207,0.273 -0.207,0.455c0,0.172 0.059,0.312 0.179,0.419c0.12,0.11 0.307,0.205 0.561,0.289c0.149,0.05 0.3,0.101 0.455,0.151c0.156,0.05 0.293,0.098 0.414,0.143c0.293,0.115 0.513,0.27 0.666,0.469c0.151,0.199 0.228,0.444 0.228,0.74c0,0.183 -0.044,0.363 -0.13,0.535c-0.088,0.175 -0.204,0.317 -0.35,0.435c-0.16,0.126 -0.348,0.223 -0.56,0.291c-0.213,0.067 -0.46,0.103 -0.742,0.103z"
                fill="#FFFFFF" id="svg_37" />
            <path
                d="m34.523,21.487c-0.262,0 -0.505,-0.034 -0.732,-0.099c-0.227,-0.064 -0.417,-0.143 -0.575,-0.231l-0.209,0.212l-0.256,0l-0.038,-1.549l0.259,0c0.06,0.147 0.132,0.304 0.225,0.467c0.089,0.163 0.194,0.309 0.313,0.438c0.121,0.136 0.26,0.244 0.413,0.33c0.15,0.085 0.327,0.127 0.531,0.127c0.274,0 0.483,-0.067 0.628,-0.202c0.147,-0.134 0.219,-0.302 0.219,-0.505c0,-0.165 -0.06,-0.309 -0.184,-0.421c-0.124,-0.114 -0.317,-0.211 -0.575,-0.294c-0.17,-0.055 -0.325,-0.105 -0.466,-0.15c-0.143,-0.049 -0.274,-0.097 -0.4,-0.146c-0.288,-0.113 -0.501,-0.277 -0.641,-0.49c-0.142,-0.214 -0.212,-0.453 -0.212,-0.717c0,-0.169 0.039,-0.327 0.11,-0.483c0.073,-0.152 0.18,-0.293 0.317,-0.416c0.133,-0.113 0.304,-0.207 0.509,-0.279c0.208,-0.073 0.434,-0.107 0.677,-0.107c0.236,0 0.46,0.03 0.667,0.098s0.371,0.134 0.488,0.199l0.186,-0.182l0.261,0l0.026,1.46l-0.261,0c-0.061,-0.157 -0.13,-0.317 -0.212,-0.481c-0.083,-0.165 -0.167,-0.302 -0.259,-0.411c-0.1,-0.117 -0.213,-0.211 -0.34,-0.279c-0.129,-0.069 -0.28,-0.104 -0.454,-0.104c-0.218,0 -0.395,0.06 -0.532,0.185c-0.137,0.122 -0.208,0.273 -0.208,0.455c0,0.172 0.061,0.312 0.183,0.419c0.117,0.11 0.305,0.205 0.558,0.289c0.149,0.05 0.302,0.101 0.456,0.151c0.154,0.05 0.294,0.098 0.413,0.143c0.291,0.115 0.515,0.27 0.667,0.469s0.226,0.444 0.226,0.74c0,0.183 -0.042,0.363 -0.129,0.535c-0.085,0.175 -0.202,0.317 -0.35,0.435c-0.161,0.126 -0.348,0.223 -0.559,0.291c-0.212,0.067 -0.457,0.103 -0.74,0.103z"
                fill="#FFFFFF" id="svg_38" />
        </g>
    </g>
</svg>