<svg width="62" height="70" xmlns="http://www.w3.org/2000/svg" xmlns:svg="http://www.w3.org/2000/svg">
    <g id="hex_html5">
        <path
            d="m31.007,69.299l31.008,-17.311l0,-34.68l-31.008,-17.308l-31.007,17.308l0,34.68l31.007,17.311zm-28.751,-50.664l28.751,-16.05l28.75,16.05l0,32.031l-28.75,16.049l-28.751,-16.049l0,-32.031z"
            id="outline_14_" />
        <polygon fill="#E44D26" id="background_26_"
            points="59.75699786376981,50.66600207519559 59.75699786376981,18.634996215820593 31.00699786376981,2.58499316406278 2.255006591797155,18.634996215820593 2.255006591797155,50.66600207519559 31.00699786376981,66.71499804687528 " />
        <polygon fill="#F16529" id="background_25_"
            points="30.922006408691686,9.386003295898718 54.17800311279325,22.369005004883093 54.17800311279325,48.278993408203405 30.924005310058874,61.26100329589872 " />
        <g id="svg_39">
            <path
                d="m26.622,21.885l-2.318,0l0,-0.236c0.052,-0.005 0.127,-0.01 0.222,-0.018c0.098,-0.008 0.164,-0.022 0.201,-0.036c0.073,-0.029 0.125,-0.069 0.153,-0.12c0.029,-0.049 0.041,-0.111 0.041,-0.188l0,-1.475l-1.828,0l0,1.442c0,0.068 0.016,0.128 0.044,0.183c0.029,0.055 0.08,0.098 0.15,0.129c0.037,0.015 0.103,0.033 0.195,0.05c0.092,0.019 0.168,0.029 0.224,0.034l0,0.235l-2.313,0l0,-0.235c0.052,-0.002 0.125,-0.01 0.225,-0.021c0.096,-0.009 0.167,-0.021 0.212,-0.04c0.072,-0.025 0.122,-0.065 0.148,-0.117c0.031,-0.055 0.045,-0.118 0.045,-0.189l0,-3.029c0,-0.072 -0.013,-0.131 -0.038,-0.18s-0.077,-0.091 -0.155,-0.126c-0.06,-0.026 -0.137,-0.051 -0.23,-0.071c-0.093,-0.021 -0.163,-0.034 -0.205,-0.039l0,-0.232l2.314,0l0,0.232c-0.063,0.005 -0.136,0.016 -0.223,0.032c-0.088,0.016 -0.152,0.03 -0.198,0.044c-0.08,0.026 -0.132,0.069 -0.156,0.126c-0.025,0.056 -0.038,0.118 -0.038,0.182l0,1.28l1.828,0l0,-1.248c0,-0.072 -0.012,-0.131 -0.039,-0.18c-0.026,-0.049 -0.078,-0.091 -0.155,-0.126c-0.054,-0.024 -0.124,-0.049 -0.21,-0.069c-0.088,-0.021 -0.158,-0.034 -0.209,-0.041l0,-0.235l2.314,0l0,0.235c-0.064,0.005 -0.137,0.013 -0.218,0.026c-0.082,0.014 -0.152,0.03 -0.219,0.05c-0.074,0.026 -0.127,0.067 -0.153,0.124c-0.026,0.056 -0.038,0.117 -0.038,0.184l0,3.034c0,0.071 0.012,0.133 0.038,0.183s0.079,0.093 0.153,0.129c0.049,0.019 0.119,0.036 0.21,0.051c0.092,0.018 0.167,0.027 0.227,0.032l0,0.234l-0.001,0z"
                id="svg_40" />
            <path
                d="m31.017,18.827l-0.234,0c-0.063,-0.181 -0.162,-0.378 -0.299,-0.587c-0.139,-0.21 -0.265,-0.322 -0.38,-0.338c-0.065,-0.009 -0.146,-0.015 -0.238,-0.021c-0.096,-0.007 -0.176,-0.01 -0.246,-0.01l-0.141,0l0,3.358c0,0.071 0.013,0.138 0.04,0.191c0.025,0.055 0.074,0.1 0.153,0.13c0.047,0.02 0.117,0.038 0.215,0.059c0.099,0.019 0.182,0.031 0.249,0.04l0,0.234l-2.387,0l0,-0.234c0.057,-0.007 0.14,-0.015 0.246,-0.027s0.178,-0.022 0.216,-0.039c0.078,-0.034 0.13,-0.077 0.157,-0.131s0.04,-0.119 0.04,-0.192l0,-3.389l-0.143,0c-0.068,0 -0.148,0.003 -0.244,0.009c-0.095,0.005 -0.174,0.012 -0.237,0.02c-0.115,0.018 -0.244,0.131 -0.382,0.338c-0.137,0.21 -0.237,0.407 -0.3,0.59l-0.234,0l0,-1.226l4.149,0l0,1.225l0,0z"
                id="svg_41" />
            <path
                d="m37.149,21.885l-2.322,0l0,-0.236c0.071,-0.007 0.155,-0.016 0.253,-0.032c0.101,-0.013 0.168,-0.028 0.205,-0.045c0.074,-0.029 0.127,-0.07 0.159,-0.123c0.032,-0.051 0.049,-0.118 0.049,-0.198l0,-3.199l-1.471,3.763l-0.382,0c-0.019,-0.066 -0.064,-0.198 -0.134,-0.396c-0.073,-0.196 -0.129,-0.355 -0.174,-0.474l-1.085,-2.942l0,2.604c0,0.25 0.018,0.438 0.052,0.57c0.033,0.127 0.086,0.223 0.159,0.285c0.052,0.041 0.142,0.082 0.271,0.12c0.13,0.037 0.22,0.06 0.272,0.066l0,0.234l-1.841,0l0,-0.234c0.051,-0.007 0.133,-0.021 0.247,-0.04c0.112,-0.022 0.205,-0.061 0.277,-0.114c0.08,-0.054 0.136,-0.149 0.163,-0.283c0.028,-0.135 0.042,-0.322 0.042,-0.571l0,-2.121c0,-0.13 -0.015,-0.236 -0.048,-0.321s-0.08,-0.155 -0.145,-0.204c-0.08,-0.061 -0.164,-0.103 -0.246,-0.12c-0.086,-0.02 -0.172,-0.032 -0.257,-0.037l0,-0.235l1.973,0l1.056,2.822l0.891,-2.289c0.03,-0.085 0.059,-0.187 0.086,-0.304c0.029,-0.116 0.043,-0.192 0.045,-0.229l1.898,0l0,0.235c-0.063,0.005 -0.132,0.013 -0.203,0.024c-0.069,0.013 -0.14,0.028 -0.202,0.049c-0.078,0.027 -0.13,0.066 -0.156,0.123c-0.025,0.055 -0.036,0.119 -0.036,0.188l0,3.032c0,0.073 0.011,0.134 0.036,0.183c0.026,0.05 0.078,0.092 0.156,0.128c0.041,0.02 0.107,0.036 0.198,0.051c0.091,0.018 0.162,0.028 0.212,0.035l0,0.235l0.002,0z"
                id="svg_42" />
            <path
                d="m41.619,20.512l-0.085,1.373l-3.944,0l0,-0.236c0.071,-0.007 0.153,-0.015 0.247,-0.029c0.096,-0.013 0.158,-0.025 0.188,-0.037c0.071,-0.029 0.122,-0.068 0.15,-0.118c0.028,-0.051 0.041,-0.113 0.041,-0.192l0,-3.022c0,-0.071 -0.01,-0.13 -0.032,-0.178c-0.021,-0.048 -0.074,-0.092 -0.159,-0.129c-0.064,-0.028 -0.139,-0.052 -0.225,-0.067c-0.088,-0.02 -0.158,-0.032 -0.211,-0.039l0,-0.235l2.35,0l0,0.235c-0.063,0.005 -0.14,0.016 -0.227,0.026c-0.088,0.013 -0.163,0.026 -0.229,0.047c-0.076,0.027 -0.131,0.066 -0.156,0.12c-0.026,0.056 -0.04,0.119 -0.04,0.19l0,2.814c0,0.134 0.011,0.239 0.028,0.316c0.019,0.074 0.053,0.131 0.104,0.167c0.055,0.039 0.125,0.063 0.22,0.075c0.093,0.011 0.223,0.016 0.389,0.016c0.159,0 0.316,-0.01 0.47,-0.028c0.15,-0.021 0.261,-0.061 0.326,-0.127c0.102,-0.102 0.207,-0.244 0.314,-0.432c0.109,-0.186 0.195,-0.357 0.258,-0.51l0.223,0l0,0z"
                id="svg_43" />
        </g>
        <polygon fill="#EBEBEB" id="polygon3032_2_"
            points="24.34500292968778,32.31700305175809 31.019006530762,32.31700305175809 31.019006530762,27.599000732422155 31.004998962402624,27.599000732422155 19.18600634765653,27.599000732422155 19.299005310058874,28.864000122070593 20.459001342773718,41.86900500488309 31.019006530762,41.86900500488309 31.019006530762,37.151002685547155 24.77500323486356,37.151002685547155 " />
        <polygon fill="#EBEBEB" id="polygon3034_2_"
            points="25.40700701904325,44.229005615234655 22.854005615234655,44.229005615234655 20.67099932861356,44.229005615234655 21.333001892090124,51.64200000000028 30.99900225830106,54.32600573730497 31.019006530762,54.317994873047155 31.019006530762,49.40800646972684 30.99900225830106,49.41200427246122 25.7430055541995,47.99400500488309 " />
        <polygon fill="#FFFFFF" id="polygon3044_2_"
            points="31.004998962402624,41.86900500488309 36.814996520996374,41.86900500488309 36.269006530762,47.99099902343778 31.004998962402624,49.41200427246122 31.004998962402624,54.31999377441434 40.680002014160436,51.64200000000028 40.752008239746374,50.84300402832059 41.859002868652624,38.41800097656278 41.976999084472936,37.151002685547155 40.70400408935575,37.151002685547155 31.004998962402624,37.151002685547155 " />
        <polygon fill="#FFFFFF" id="polygon3046_2_"
            points="31.004998962402624,32.30699328613309 31.004998962402624,32.31700305175809 42.390008728027624,32.31700305175809 42.390008728027624,32.31700305175809 42.40500811767606,32.31700305175809 42.49900225830106,31.25399951171903 42.715997497558874,28.864000122070593 42.827997009277624,27.599000732422155 31.004998962402624,27.599000732422155 31.004998962402624,30.528993408203405 " />
    </g>
</svg>