<?xml version="1.0" encoding="utf-8"?>
<svg version="1.1" id="Layer_1" xmlns:svg="http://www.w3.org/2000/svg"
	 xmlns="http://www.w3.org/2000/svg" xmlns:xlink="http://www.w3.org/1999/xlink" x="0px" y="0px" width="62px" height="70px"
	 viewBox="0 0 62 70" enable-background="new 0 0 62 70" xml:space="preserve">
<g id="hex_drupal">
	<path id="outline_9_" d="M31.002,69.65l31.061-17.339V17.568L31.001,0.23L-0.063,17.568v34.743L31.002,69.65z M2.2,18.896L31,2.818
		l28.801,16.077v32.089L31.002,67.061L2.2,50.984V18.896z"/>
	<polygon id="background_12_" fill="#0678BE" points="59.801,50.985 59.801,18.896 31,2.818 2.198,18.896 2.198,50.985 
		31.002,67.061 	"/>
	<polygon id="background_13_" fill="#003399" points="30.915,9.631 54.212,22.636 54.212,48.592 30.916,61.597 	"/>
	<path fill="#FFFFFF" d="M35.765,30.868c-2.356-2.357-4.607-4.604-5.276-7.137c-0.671,2.533-2.92,4.779-5.277,7.137
		c-3.534,3.533-7.544,7.539-7.544,13.546c0,7.079,5.739,12.821,12.822,12.821c7.081,0,12.821-5.742,12.821-12.821
		C43.311,38.407,39.302,34.401,35.765,30.868 M23.115,47.401c-0.785-0.027-3.687-5.027,1.696-10.354l3.563,3.893
		c0.119,0.117,0.121,0.311,0.002,0.431c-0.009,0.009-0.018,0.017-0.026,0.023c-0.851,0.871-4.474,4.505-4.924,5.761
		C23.333,47.415,23.197,47.403,23.115,47.401 M30.489,53.993c-2.438,0-4.412-1.975-4.412-4.41l0,0c0-1.115,0.446-2.11,1.101-2.913
		c0.794-0.972,3.311-3.707,3.311-3.707s2.478,2.774,3.306,3.698c0.719,0.802,1.113,1.844,1.104,2.922
		C34.898,52.019,32.924,53.993,30.489,53.993 M38.93,46.841c-0.096,0.208-0.312,0.556-0.602,0.566
		c-0.52,0.019-0.575-0.247-0.958-0.814c-0.843-1.245-8.189-8.923-9.563-10.407c-1.209-1.308-0.17-2.228,0.313-2.71
		c0.603-0.604,2.368-2.367,2.368-2.367s5.258,4.99,7.45,8.399C40.129,42.918,39.374,45.866,38.93,46.841"/>
	<g>
		<path fill="#FFFFFF" d="M21.699,16.956c0-0.16-0.019-1.039-0.03-1.133c-0.019-0.147-0.1-0.172-0.205-0.172h-0.309
			c-0.03,0-0.049-0.006-0.049-0.044v-0.18c0-0.024,0.019-0.03,0.043-0.03c0.08,0,0.351,0.02,0.972,0.02
			c0.16,0,0.779-0.02,0.921-0.02c0.843,0,1.51,0.073,2.099,0.563c0.408,0.341,0.692,0.853,0.692,1.571
			c0,0.71-0.204,1.182-0.612,1.627c-0.599,0.65-1.658,0.656-2.048,0.656c-0.1,0-0.829-0.018-1.17-0.018
			c-0.539,0-0.788,0.018-0.874,0.018c-0.029,0-0.043-0.012-0.043-0.056v-0.161c0-0.025,0.021-0.037,0.05-0.037h0.322
			c0.119,0,0.186-0.05,0.199-0.148c0.018-0.13,0.042-1.522,0.042-1.992V16.956z M22.628,17.558c0,0.079,0.007,1.132,0.013,1.516
			c0,0.124,0.023,0.223,0.105,0.34c0.072,0.111,0.284,0.148,0.494,0.148c0.358,0,0.835-0.18,1.158-0.605
			c0.247-0.328,0.438-0.836,0.438-1.412c0-0.506-0.209-1.027-0.5-1.35c-0.329-0.363-0.872-0.562-1.23-0.562
			c-0.176,0-0.268,0.007-0.348,0.049c-0.094,0.044-0.117,0.142-0.123,0.267c-0.007,0.26-0.007,1.07-0.007,1.17V17.558z"/>
		<path fill="#FFFFFF" d="M27.459,19.327c0,0.191,0.06,0.254,0.189,0.254h0.254c0.037,0,0.044,0.018,0.044,0.056v0.123
			c0,0.038-0.007,0.056-0.03,0.056c-0.037,0-0.322-0.018-0.88-0.018c-0.477,0-0.735,0.018-0.772,0.018
			c-0.024,0-0.039-0.012-0.039-0.063v-0.116c0-0.044,0.015-0.056,0.07-0.056h0.179c0.094,0,0.146-0.037,0.16-0.149
			c0.013-0.173,0.013-0.39,0.013-0.698V18.22c0-0.268-0.061-0.379-0.247-0.484l-0.104-0.061c-0.038-0.019-0.051-0.031-0.051-0.057
			v-0.056c0-0.024,0.013-0.036,0.051-0.05l0.865-0.377c0.037-0.012,0.062-0.023,0.099-0.023c0.043,0,0.068,0.036,0.076,0.072
			l0.054,0.483h0.044c0.192-0.409,0.463-0.594,0.735-0.594c0.186,0,0.329,0.144,0.329,0.359c0,0.165-0.192,0.353-0.396,0.353
			c-0.086,0-0.169-0.019-0.223-0.057c-0.051-0.031-0.105-0.043-0.155-0.043c-0.062,0-0.124,0.031-0.16,0.111
			c-0.081,0.167-0.104,0.285-0.104,0.365V19.327z"/>
		<path fill="#FFFFFF" d="M31.022,19.858c-0.037,0.013-0.079,0.025-0.135,0.025c-0.063,0-0.101-0.031-0.105-0.074l-0.037-0.335
			h-0.037c-0.123,0.217-0.483,0.409-0.816,0.409c-0.249,0-0.434,0-0.649-0.285c-0.262-0.346-0.236-0.544-0.236-1.077l0.008-0.271
			c0-0.236,0-0.483-0.008-0.619c-0.006-0.149-0.136-0.205-0.211-0.217c-0.105-0.02-0.135-0.013-0.135-0.043v-0.124
			c0-0.038,0.012-0.051,0.067-0.051h0.902c0.038,0,0.063-0.005,0.088-0.013c0.024,0,0.049-0.006,0.068-0.006
			c0.042,0,0.074,0.031,0.066,0.075c-0.005,0.055-0.024,0.345-0.024,0.835v0.334c0,0.247-0.036,0.711,0.118,0.954
			c0.093,0.142,0.192,0.129,0.304,0.129c0.105,0,0.241-0.081,0.335-0.197c0.055-0.063,0.098-0.161,0.098-0.225l-0.006-1.452
			c0-0.155-0.111-0.205-0.267-0.217c-0.073-0.008-0.104-0.013-0.104-0.043v-0.118c0-0.05,0.01-0.057,0.073-0.057h0.921
			c0.046,0,0.074-0.005,0.105-0.013c0.03,0,0.057-0.006,0.075-0.006c0.037,0,0.063,0.031,0.055,0.063
			c-0.005,0.055-0.036,0.217-0.036,0.842v0.457c0,0.299,0,0.602,0.012,0.713c0.02,0.191,0.089,0.217,0.11,0.217
			c0.039,0,0.132,0,0.206-0.02c0.05-0.012,0.068,0,0.073,0.024l0.02,0.118c0.006,0.029-0.006,0.044-0.031,0.049L31.022,19.858z"/>
		<path fill="#FFFFFF" d="M32.449,18.145c0-0.212-0.02-0.304-0.206-0.401l-0.141-0.075c-0.031-0.019-0.045-0.031-0.045-0.056v-0.08
			c0-0.02,0.014-0.031,0.045-0.044l0.805-0.315c0.08-0.031,0.135-0.061,0.19-0.061c0.037,0,0.057,0.042,0.076,0.129l0.042,0.229
			h0.024c0.154-0.19,0.476-0.357,0.785-0.357c0.335,0,0.563,0.092,0.769,0.314c0.26,0.284,0.347,0.5,0.334,0.86
			c0.007,0.94-0.626,1.597-1.412,1.597c-0.104,0-0.302-0.006-0.464-0.1l0.007,0.947c0.007,0.502,0.068,0.532,0.216,0.532h0.155
			c0.049,0,0.056,0.024,0.056,0.062v0.117c0,0.037-0.014,0.057-0.056,0.057c-0.03,0-0.241-0.02-0.792-0.02
			c-0.451,0-0.668,0.02-0.719,0.02c-0.041,0-0.056-0.02-0.056-0.063v-0.123c0-0.03,0.015-0.05,0.076-0.05h0.143
			c0.104,0,0.147-0.062,0.16-0.161c0.012-0.137,0.012-0.322,0.012-0.674L32.449,18.145z M33.252,19.142
			c0,0.1,0.045,0.26,0.169,0.357c0.092,0.074,0.223,0.143,0.371,0.143c0.257,0,0.487-0.229,0.487-0.822
			c0-0.391-0.043-1.281-0.642-1.281c-0.119,0-0.287,0.05-0.386,0.167V19.142z"/>
		<path fill="#FFFFFF" d="M36.887,17.823c0-0.125-0.013-0.266-0.094-0.341c-0.061-0.056-0.16-0.075-0.259-0.075
			c-0.111,0-0.218,0.026-0.327,0.101c-0.095,0.062-0.021,0.167-0.021,0.364c0,0.211-0.155,0.354-0.401,0.354
			c-0.142,0-0.267-0.087-0.267-0.223c0-0.137,0.044-0.322,0.174-0.434c0.26-0.234,0.686-0.457,1.188-0.457
			c0.396,0,0.502,0.061,0.634,0.178c0.135,0.125,0.17,0.303,0.17,0.527l0.016,1.231c0.005,0.321,0.022,0.421,0.14,0.421
			c0.088,0,0.157-0.068,0.182-0.112c0.023-0.038,0.043-0.044,0.06-0.03l0.089,0.05c0.022,0.011,0.041,0.03,0.017,0.086
			c-0.055,0.13-0.24,0.421-0.623,0.421c-0.243,0-0.471-0.086-0.589-0.378h-0.03c-0.155,0.142-0.285,0.228-0.531,0.321
			c-0.125,0.044-0.268,0.057-0.447,0.057c-0.216,0-0.408-0.236-0.408-0.57c0-0.271,0.131-0.557,0.533-0.754
			c0.481-0.229,0.637-0.297,0.797-0.408V17.823z M36.895,18.398c-0.305,0.173-0.558,0.267-0.558,0.692
			c0,0.286,0.128,0.404,0.264,0.408c0.169-0.012,0.294-0.166,0.294-0.222V18.398z"/>
		<path fill="#FFFFFF" d="M39.438,18.56c0,0.246,0,0.649,0.019,0.828c0.006,0.107,0.024,0.193,0.154,0.193h0.209
			c0.059,0,0.07,0.018,0.07,0.056v0.116c0,0.038-0.012,0.063-0.038,0.063c-0.043,0-0.314-0.018-0.805-0.018
			c-0.519,0-0.768,0.018-0.823,0.018c-0.03,0-0.042-0.024-0.042-0.074v-0.104c0-0.044,0.012-0.056,0.081-0.056h0.186
			c0.066,0,0.165-0.043,0.165-0.268v-1.967c0-0.439,0-0.941-0.012-1.102c-0.011-0.21-0.143-0.297-0.339-0.359l-0.112-0.037
			c-0.043-0.018-0.051-0.037-0.051-0.068v-0.093c0-0.019,0.014-0.042,0.057-0.048c0.277-0.057,0.922-0.267,1.102-0.36
			c0.068-0.03,0.105-0.042,0.135-0.042c0.038,0,0.063,0.03,0.056,0.11c-0.006,0.34-0.011,1.628-0.011,2.055V18.56z"/>
	</g>
</g>
</svg>
