<svg width="62" height="70" xmlns="http://www.w3.org/2000/svg" xmlns:svg="http://www.w3.org/2000/svg">
    <g id="hex_apache">
        <path
            d="m31.01,69.29801l31.005,-17.31l0,-34.68l-31.008,-17.308l-31.007,17.308l0,34.68l31.01,17.31zm-28.753,-50.664l28.75,-16.048l28.752,16.048l0,32.031l-28.749,16.05l-28.753,-16.05l0,-32.031z"
            id="outline_22_" />
        <polygon fill="#DFA800" id="background_36_"
            points="59.75900439453153,50.66501025390653 59.75900439453153,18.63400439453153 31.007005493164343,2.586000244140905 2.2570054931643426,18.63400439453153 2.2570054931643426,50.66501025390653 31.010011474609655,66.7150285644534 " />
        <polygon fill="#DF9000" id="background_35_"
            points="30.921998779297155,9.385988037109655 54.17801074218778,22.367006103515905 54.17801074218778,48.27798632812528 30.924989501953405,61.260011474609655 " />
        <g id="svg_5">
            <path
                d="m23.945,21.93101l-2.332,0l0,-0.233c0.107,-0.009 0.236,-0.03 0.382,-0.059c0.147,-0.031 0.219,-0.07 0.219,-0.118c0,-0.015 0,-0.034 -0.001,-0.053c-0.003,-0.021 -0.013,-0.049 -0.026,-0.084l-0.367,-0.887l-1.477,0c-0.035,0.083 -0.072,0.18 -0.112,0.29c-0.044,0.113 -0.076,0.209 -0.107,0.296c-0.038,0.113 -0.063,0.195 -0.067,0.244c-0.008,0.053 -0.013,0.086 -0.013,0.108c0,0.063 0.05,0.118 0.147,0.161c0.098,0.048 0.259,0.079 0.486,0.101l0,0.233l-1.756,0l0,-0.233c0.067,-0.003 0.142,-0.015 0.224,-0.033c0.085,-0.017 0.151,-0.04 0.199,-0.071c0.081,-0.05 0.151,-0.107 0.21,-0.178c0.057,-0.07 0.104,-0.154 0.143,-0.251c0.233,-0.566 0.468,-1.13 0.702,-1.7c0.232,-0.567 0.493,-1.192 0.778,-1.876l0.601,0c0.396,0.969 0.703,1.736 0.929,2.299c0.224,0.565 0.412,1.031 0.569,1.401c0.026,0.061 0.061,0.114 0.1,0.164c0.041,0.048 0.098,0.097 0.171,0.141c0.057,0.031 0.123,0.057 0.197,0.071c0.074,0.019 0.142,0.027 0.202,0.032l0,0.235l-0.001,0zm-2.25,-1.732l-0.62,-1.547l-0.61,1.547l1.23,0z"
                id="svg_6" />
            <path
                d="m27.628,20.46001c0,0.426 -0.144,0.79 -0.426,1.095c-0.284,0.305 -0.643,0.455 -1.077,0.455c-0.192,0 -0.35,-0.02 -0.469,-0.06c-0.121,-0.04 -0.221,-0.088 -0.298,-0.144l-0.025,0l0,0.85c0,0.07 0.016,0.132 0.045,0.182c0.035,0.053 0.077,0.093 0.132,0.117c0.056,0.021 0.133,0.042 0.232,0.059c0.1,0.019 0.184,0.031 0.25,0.033l0,0.225l-2.183,0l0,-0.225c0.05,-0.004 0.113,-0.011 0.19,-0.022c0.076,-0.011 0.136,-0.022 0.172,-0.034c0.063,-0.021 0.106,-0.06 0.131,-0.113s0.034,-0.116 0.034,-0.184l0,-3.085c-0.005,-0.067 -0.021,-0.126 -0.047,-0.176c-0.024,-0.049 -0.064,-0.096 -0.118,-0.133c-0.039,-0.027 -0.094,-0.048 -0.16,-0.066c-0.066,-0.017 -0.13,-0.028 -0.195,-0.032l0,-0.222l1.474,-0.077l0.044,0.038l0,0.334l0.023,0.006c0.133,-0.135 0.281,-0.239 0.441,-0.312c0.162,-0.076 0.323,-0.112 0.48,-0.112c0.417,0 0.745,0.148 0.986,0.441c0.241,0.295 0.364,0.682 0.364,1.162zm-1.086,0.014c0,-0.15 -0.011,-0.296 -0.031,-0.434c-0.022,-0.138 -0.063,-0.26 -0.119,-0.369c-0.054,-0.108 -0.125,-0.195 -0.213,-0.259c-0.093,-0.064 -0.199,-0.098 -0.327,-0.098c-0.13,0 -0.235,0.022 -0.313,0.069c-0.078,0.045 -0.148,0.103 -0.205,0.176l0,1.71c0.013,0.041 0.035,0.093 0.068,0.155c0.034,0.063 0.069,0.114 0.104,0.154c0.048,0.054 0.106,0.095 0.17,0.12c0.066,0.026 0.134,0.037 0.211,0.037c0.199,0 0.358,-0.105 0.477,-0.321c0.119,-0.212 0.178,-0.527 0.178,-0.94z"
                id="svg_7" />
            <path
                d="m31.464,21.86701c-0.087,0.038 -0.192,0.075 -0.313,0.106c-0.119,0.031 -0.247,0.049 -0.381,0.049c-0.247,0 -0.43,-0.036 -0.545,-0.112c-0.117,-0.073 -0.197,-0.178 -0.239,-0.315l-0.017,0c-0.067,0.069 -0.134,0.129 -0.198,0.176c-0.064,0.051 -0.131,0.091 -0.204,0.125c-0.095,0.043 -0.185,0.076 -0.273,0.099c-0.087,0.022 -0.21,0.034 -0.367,0.034c-0.234,0 -0.433,-0.07 -0.6,-0.207c-0.164,-0.138 -0.247,-0.321 -0.247,-0.549c0,-0.133 0.018,-0.243 0.053,-0.333c0.039,-0.093 0.09,-0.174 0.155,-0.244c0.062,-0.063 0.13,-0.118 0.21,-0.16c0.081,-0.042 0.168,-0.081 0.262,-0.12c0.181,-0.064 0.399,-0.135 0.653,-0.205c0.254,-0.072 0.438,-0.135 0.557,-0.193l0,-0.29c0,-0.05 -0.004,-0.116 -0.013,-0.199c-0.007,-0.082 -0.025,-0.15 -0.051,-0.208c-0.027,-0.064 -0.073,-0.118 -0.133,-0.162s-0.14,-0.066 -0.238,-0.066c-0.088,0 -0.163,0.014 -0.222,0.038c-0.061,0.024 -0.106,0.051 -0.144,0.076c0.006,0.04 0.022,0.104 0.05,0.184c0.03,0.081 0.044,0.162 0.044,0.239c0,0.034 -0.008,0.076 -0.026,0.127c-0.021,0.053 -0.046,0.093 -0.08,0.123c-0.046,0.039 -0.1,0.071 -0.155,0.094c-0.059,0.022 -0.146,0.03 -0.265,0.03c-0.169,0 -0.297,-0.039 -0.385,-0.12c-0.087,-0.082 -0.13,-0.186 -0.13,-0.317c0,-0.112 0.044,-0.215 0.135,-0.306c0.088,-0.089 0.198,-0.163 0.328,-0.222c0.126,-0.059 0.271,-0.106 0.437,-0.141c0.163,-0.031 0.319,-0.048 0.46,-0.048c0.193,0 0.372,0.011 0.537,0.036c0.164,0.022 0.31,0.069 0.439,0.14c0.125,0.071 0.225,0.174 0.297,0.31c0.075,0.132 0.11,0.309 0.11,0.523c0,0.227 -0.005,0.497 -0.015,0.808c-0.008,0.313 -0.012,0.518 -0.012,0.615c0,0.092 0.012,0.163 0.039,0.215c0.029,0.054 0.071,0.09 0.127,0.117c0.034,0.017 0.088,0.026 0.16,0.028c0.073,0.005 0.141,0.007 0.202,0.007l0,0.22l-0.002,0l0,-0.002zm-1.495,-1.571c-0.115,0.038 -0.225,0.082 -0.336,0.133c-0.111,0.048 -0.202,0.1 -0.272,0.153c-0.077,0.056 -0.134,0.13 -0.176,0.218c-0.042,0.087 -0.064,0.19 -0.064,0.311c0,0.156 0.035,0.27 0.106,0.341c0.072,0.071 0.161,0.105 0.267,0.105c0.11,0 0.2,-0.021 0.273,-0.068c0.071,-0.044 0.136,-0.099 0.189,-0.166l0.013,-1.027z"
                id="svg_8" />
            <path
                d="m33.42,22.02801c-0.279,0 -0.525,-0.041 -0.74,-0.123c-0.214,-0.08 -0.39,-0.191 -0.528,-0.33c-0.138,-0.146 -0.243,-0.314 -0.313,-0.51c-0.069,-0.194 -0.103,-0.406 -0.103,-0.637c0,-0.209 0.042,-0.407 0.125,-0.596c0.084,-0.188 0.197,-0.357 0.34,-0.499c0.147,-0.146 0.329,-0.266 0.547,-0.353c0.221,-0.088 0.46,-0.131 0.724,-0.131c0.37,0 0.663,0.07 0.879,0.211c0.215,0.14 0.322,0.327 0.322,0.566c0,0.143 -0.037,0.259 -0.114,0.35c-0.077,0.089 -0.208,0.131 -0.396,0.131c-0.149,0 -0.277,-0.036 -0.378,-0.107c-0.103,-0.073 -0.152,-0.168 -0.152,-0.283c0,-0.099 0.015,-0.196 0.048,-0.293c0.032,-0.098 0.052,-0.17 0.057,-0.222c-0.022,-0.035 -0.05,-0.063 -0.084,-0.081c-0.033,-0.021 -0.087,-0.031 -0.161,-0.031c-0.09,0 -0.171,0.022 -0.246,0.064c-0.073,0.043 -0.145,0.117 -0.209,0.224c-0.061,0.102 -0.111,0.236 -0.147,0.406c-0.038,0.168 -0.058,0.371 -0.058,0.608c0,0.357 0.086,0.646 0.253,0.866c0.167,0.219 0.367,0.329 0.603,0.329c0.224,0 0.4,-0.051 0.532,-0.15s0.248,-0.24 0.352,-0.425l0.226,0.159c-0.062,0.122 -0.137,0.234 -0.223,0.337c-0.088,0.1 -0.19,0.191 -0.312,0.27c-0.127,0.082 -0.256,0.145 -0.386,0.186c-0.133,0.044 -0.285,0.064 -0.458,0.064z"
                id="svg_9" />
            <path
                d="m38.904,21.93101l-1.813,0l0,-0.219c0.041,-0.005 0.088,-0.011 0.144,-0.015c0.055,-0.007 0.095,-0.018 0.121,-0.032c0.041,-0.021 0.07,-0.054 0.086,-0.095c0.02,-0.046 0.028,-0.106 0.028,-0.188l0,-1.412c0,-0.207 -0.039,-0.361 -0.116,-0.465c-0.078,-0.104 -0.188,-0.154 -0.333,-0.154c-0.079,0 -0.154,0.013 -0.226,0.037c-0.068,0.024 -0.136,0.058 -0.203,0.105c-0.057,0.04 -0.104,0.082 -0.139,0.122c-0.037,0.044 -0.065,0.081 -0.089,0.113l0,1.62c0,0.073 0.009,0.133 0.027,0.176c0.017,0.044 0.051,0.079 0.103,0.108c0.029,0.017 0.069,0.032 0.118,0.047c0.048,0.017 0.097,0.025 0.142,0.032l0,0.219l-1.839,0l0,-0.219c0.052,-0.005 0.104,-0.011 0.152,-0.015c0.049,-0.007 0.096,-0.018 0.132,-0.032c0.064,-0.024 0.107,-0.058 0.133,-0.103c0.022,-0.047 0.036,-0.106 0.036,-0.181l0,-3.364c0,-0.065 -0.016,-0.133 -0.047,-0.207c-0.028,-0.071 -0.072,-0.125 -0.127,-0.161c-0.039,-0.026 -0.098,-0.047 -0.174,-0.062s-0.144,-0.027 -0.206,-0.029l0,-0.222l1.504,-0.077l0.046,0.049l0,2.076l0.011,0c0.077,-0.068 0.146,-0.13 0.207,-0.187c0.061,-0.053 0.137,-0.111 0.225,-0.165c0.075,-0.05 0.171,-0.092 0.291,-0.125c0.117,-0.034 0.246,-0.052 0.386,-0.052c0.326,0 0.57,0.094 0.734,0.28c0.163,0.188 0.245,0.433 0.245,0.739l0,1.479c0,0.075 0.013,0.134 0.033,0.18c0.023,0.045 0.063,0.078 0.124,0.105c0.037,0.014 0.076,0.029 0.121,0.043c0.041,0.012 0.099,0.022 0.162,0.029l0.001,0.222l0,0z"
                id="svg_10" />
            <path
                d="m42.426,21.21001c-0.069,0.115 -0.156,0.223 -0.253,0.325c-0.102,0.101 -0.215,0.188 -0.34,0.26c-0.135,0.078 -0.272,0.134 -0.41,0.175c-0.139,0.039 -0.296,0.059 -0.475,0.059c-0.3,0 -0.557,-0.042 -0.772,-0.126c-0.215,-0.086 -0.395,-0.201 -0.535,-0.343c-0.139,-0.143 -0.246,-0.31 -0.313,-0.505c-0.071,-0.194 -0.105,-0.404 -0.105,-0.632c0,-0.205 0.037,-0.401 0.112,-0.59c0.077,-0.188 0.183,-0.357 0.322,-0.503c0.138,-0.143 0.309,-0.258 0.517,-0.347c0.21,-0.09 0.441,-0.133 0.699,-0.133c0.282,0 0.514,0.034 0.695,0.102c0.181,0.068 0.33,0.164 0.451,0.284c0.112,0.114 0.196,0.248 0.249,0.406c0.052,0.154 0.078,0.318 0.078,0.489l0,0.196l-2.04,0c0,0.414 0.078,0.727 0.237,0.941c0.159,0.216 0.412,0.323 0.757,0.323c0.19,0 0.358,-0.052 0.511,-0.156c0.15,-0.104 0.279,-0.234 0.387,-0.394l0.228,0.169zm-1.152,-1.147c0,-0.12 -0.006,-0.242 -0.019,-0.371c-0.014,-0.127 -0.033,-0.229 -0.064,-0.311c-0.033,-0.096 -0.078,-0.166 -0.139,-0.215c-0.06,-0.048 -0.134,-0.073 -0.225,-0.073c-0.156,0 -0.278,0.079 -0.373,0.237c-0.091,0.156 -0.141,0.402 -0.148,0.745l0.968,-0.012z"
                id="svg_11" />
        </g>
        <g id="svg_12" opacity="0.86">
            <path
                d="m31.057,24.00601l-15.452,26.767l30.907,0l-15.455,-26.767zm-0.135,26.331c-3.418,0 -6.19,-2.772 -6.19,-6.192c0,-3.418 2.772,-6.191 6.19,-6.191c3.421,0 6.191,2.773 6.191,6.191c0.001,3.42 -2.771,6.192 -6.191,6.192z"
                fill="#FFFFFF" id="svg_13" />
        </g>
    </g>
</svg>