<svg width="62" height="70" xmlns="http://www.w3.org/2000/svg" xmlns:svg="http://www.w3.org/2000/svg">
    <g id="hex_ps">
        <path
            d="m31.008,0l-31.008,17.309l0,34.682l31.008,17.307l31.009,-17.307l0,-34.682l-31.009,-17.309zm28.751,50.663l-28.751,16.05l-28.75,-16.05l0,-32.03l28.75,-16.049l28.751,16.049l0,32.03z"
            fill="#00C8FF" id="outline_4_" />
        <polygon fill="#261300" id="background_4_"
            points="2.258001605987829,18.63300112915067 2.258001605987829,50.662999908447546 31.00800112915067,66.71300677490262 59.759008209228796,50.662999908447546 59.759008209228796,18.63300112915067 31.00800112915067,2.5840053958895624 " />
        <g id="content_4_">
            <path
                d="m12.019,18.306c0,-0.21 0.42,-0.362 0.662,-0.362c1.925,-0.09 4.784,-0.149 7.765,-0.149c8.336,0 11.587,4.575 11.587,10.444c0,7.644 -5.537,10.924 -12.341,10.924c-1.143,0 -1.534,-0.061 -2.345,-0.061l0,11.559c0,0.24 -0.091,0.359 -0.361,0.359l-4.605,0c-0.241,0 -0.361,-0.091 -0.361,-0.359l0,-32.355l-0.001,0z"
                fill="#00C8FF" id="svg_1" />
            <path
                d="m17.375,34.286c0.692,0.063 1.232,0.063 2.438,0.063c3.52,0 6.831,-1.234 6.831,-6.02c0,-3.824 -2.378,-5.749 -6.38,-5.749c-1.204,0 -2.347,0.061 -2.889,0.091l0,11.615l0,0z"
                fill="#261300" id="svg_2" />
            <path
                d="m43.256,30.706c-2.377,0 -3.188,1.203 -3.188,2.197c0,1.083 0.54,1.837 3.731,3.491c4.725,2.287 6.198,4.484 6.198,7.704c0,4.816 -3.668,7.403 -8.637,7.403c-2.617,0 -4.875,-0.543 -6.17,-1.294c-0.209,-0.089 -0.24,-0.24 -0.24,-0.482l0,-4.424c0,-0.301 0.15,-0.392 0.362,-0.241c1.895,1.234 4.061,1.776 6.048,1.776c2.378,0 3.371,-0.995 3.371,-2.348c0,-1.083 -0.693,-2.047 -3.73,-3.612c-4.275,-2.047 -6.051,-4.121 -6.051,-7.584c0,-3.882 3.039,-7.102 8.308,-7.102c2.587,0 4.392,0.391 5.385,0.842c0.242,0.149 0.302,0.392 0.302,0.604l0,4.121c0,0.241 -0.151,0.391 -0.451,0.301c-1.325,-0.841 -3.281,-1.352 -5.238,-1.352l0,0z"
                fill="#00C8FF" id="svg_3" />
        </g>
    </g>
</svg>