<svg width="62" height="70" xmlns="http://www.w3.org/2000/svg" xmlns:svg="http://www.w3.org/2000/svg">
  <g id="hex_wp">
   <path d="m31.168,69.657l31.167,-17.398l0,-34.861l-31.168,-17.398l-31.167,17.398l0,34.86l31.168,17.399zm-28.899,-50.929l28.898,-16.131l28.899,16.131l0,32.197l-28.898,16.133l-28.899,-16.133l0,-32.197z" id="svg_64"/>
   <polygon fill="#FFFFFF" points="60.06599597167997,50.927003662109655 60.06599597167997,18.729997436523718 31.166993896484655,2.5970018310549676 2.268007080078405,18.729997436523718 2.268007080078405,50.927003662109655 31.16800097656278,67.05800036621122 "/>
   <path fill="#464646" d="m22.383,36.549c-2.01,-5.966 -3.653,-10.958 -3.652,-11.093c0,-0.141 0.521,-0.289 1.212,-0.347c1.422,-0.118 2.089,-0.594 1.622,-1.155c-0.256,-0.309 -0.723,-0.333 -3.853,-0.196c-1.959,0.083 -3.561,0.083 -3.561,-0.004c0,-0.375 1.4,-2.103 2.873,-3.546c3.769,-3.695 8.798,-5.735 14.138,-5.735c2.417,0 4.223,0.305 6.729,1.136c2.031,0.674 5.202,2.459 6.417,3.612l0.604,0.575l-0.959,0.279c-1.221,0.356 -2.215,1.371 -2.516,2.565c-0.313,1.247 0.069,2.5 1.503,4.914c2.555,4.302 2.57,6.008 0.132,14.044c-0.907,2.986 -1.698,5.478 -1.759,5.538c-0.059,0.059 -0.158,-0.026 -0.22,-0.194c-0.333,-0.923 -7.314,-21.636 -7.314,-21.705c0,-0.043 0.418,-0.091 0.928,-0.102c1.508,-0.037 2.016,-0.254 2.016,-0.859l0,-0.535l-5.937,-0.01c-4.659,-0.009 -5.96,0.049 -6.044,0.271c-0.223,0.577 0.149,0.917 1.151,1.049c0.559,0.073 1.154,0.151 1.323,0.174c0.187,0.025 0.931,1.731 1.911,4.392l1.603,4.351l-2.233,6.717c-1.23,3.695 -2.287,6.717 -2.349,6.715s-1.754,-4.884 -3.765,-10.851l0,0zm18.811,15.811c0,-0.029 1.488,-4.323 3.305,-9.539c4.084,-11.719 4.358,-12.704 4.373,-15.688c0.009,-1.988 0.048,-2.224 0.312,-1.865c0.512,0.702 1.552,3.626 1.915,5.387c0.396,1.924 0.455,5.803 0.117,7.711c-0.752,4.243 -3.032,8.456 -6.129,11.323c-1.662,1.537 -3.893,3.069 -3.893,2.671zm-20.936,-0.338c-4.829,-3.098 -8.158,-8.067 -9.148,-13.657c-0.359,-2.03 -0.274,-5.656 0.188,-7.891c0.394,-1.909 1.22,-4.189 1.438,-3.972c0.092,0.094 9.703,26.343 9.703,26.504c0,0.267 -0.786,-0.088 -2.181,-0.984zm8.186,2.982c-2.256,-0.29 -3.229,-0.592 -3.089,-0.958c0.065,-0.17 1.409,-4.064 2.986,-8.656c1.576,-4.591 2.947,-8.495 3.047,-8.674c0.14,-0.257 0.234,-0.186 0.43,0.325c0.972,2.541 6.104,16.731 6.104,16.88c0,0.45 -4.989,1.371 -7.082,1.304c-0.482,-0.015 -1.56,-0.114 -2.396,-0.221zm6.533,1.879c11.369,-1.982 19.72,-12.935 18.451,-24.201c-0.636,-5.649 -2.675,-9.823 -6.77,-13.85c-4.288,-4.217 -9.508,-6.358 -15.496,-6.358c-4.136,0 -7.999,1.071 -11.599,3.22c-2.24,1.336 -5.643,4.624 -7.047,6.811c-5.277,8.218 -4.936,18.083 0.897,25.842c4.968,6.607 13.426,9.955 21.564,8.536l0,0zm-8.033,1.308c-4.826,-0.913 -9.031,-3.117 -12.469,-6.539c-9.159,-9.121 -9.364,-23.827 -0.461,-33.2c3.4,-3.583 7.813,-6.011 12.557,-6.91c2.348,-0.445 6.836,-0.445 9.182,0c8.617,1.635 15.735,8.176 18.18,16.709c3.236,11.294 -2.167,23.113 -12.858,28.124c-2.968,1.39 -5.534,1.961 -9.258,2.057c-2.195,0.056 -3.687,-0.017 -4.873,-0.241z"/>
  </g>
</svg>