<svg width="62" height="70" xmlns="http://www.w3.org/2000/svg" xmlns:svg="http://www.w3.org/2000/svg">
    <g id="hex_php">
        <path
            d="m31.009,69.29801l31.004,-17.308l0,-34.681l-31.007,-17.309l-31.006,17.309l0,34.681l31.009,17.308zm-28.751,-50.664l28.748,-16.048l28.751,16.048l0,32.03l-28.748,16.05l-28.751,-16.05l0,-32.03l0,0z"
            id="outline_16_" />
        <polygon fill="#777BB3" id="background_23_"
            points="59.75699023437528,50.664003173828405 59.75699023437528,18.63400439453153 31.005983154297155,2.586000244140905 2.256989757538122,18.63400439453153 2.256989757538122,50.664003173828405 31.00900439453153,66.71400622558622 " />
        <polygon fill="#9F97B6" id="background_22_"
            points="30.921998779297155,9.386003295898718 54.17898730468778,22.367006103515905 54.17898730468778,48.27700976562528 30.921998779297155,61.25900439453153 " />
        <polygon fill="#FFFFFF" id="svg_30" opacity="0.78"
            points="21.66299609375028,26.05301074218778 21.66299609375028,52.31900195312528 28.359010498047155,52.31900195312528 28.359010498047155,39.20601062011747 28.359010498047155,31.71701220703153 33.507997314453405,31.71701220703153 33.507997314453405,37.89900378417997 30.934022705078405,37.89900378417997 30.934022705078405,42.53300646972684 40.205995361328405,42.53300646972684 40.205995361328405,26.05301074218778 " />
        <g id="svg_31">
            <path
                d="m28.605,20.43801c0,0.423 -0.142,0.785 -0.426,1.089c-0.283,0.306 -0.642,0.458 -1.075,0.458c-0.192,0 -0.35,-0.019 -0.471,-0.06c-0.119,-0.037 -0.22,-0.086 -0.298,-0.142l-0.024,0l0,0.847c0,0.071 0.018,0.133 0.049,0.185c0.03,0.051 0.075,0.091 0.13,0.115c0.056,0.021 0.131,0.043 0.232,0.058c0.099,0.021 0.181,0.03 0.248,0.034l0,0.224l-2.183,0l0,-0.224c0.05,-0.005 0.114,-0.011 0.19,-0.022c0.075,-0.012 0.135,-0.023 0.171,-0.036c0.064,-0.02 0.108,-0.058 0.132,-0.111c0.024,-0.053 0.035,-0.115 0.035,-0.181l0,-3.089c-0.007,-0.066 -0.022,-0.124 -0.046,-0.177c-0.027,-0.049 -0.065,-0.093 -0.121,-0.133c-0.04,-0.023 -0.094,-0.046 -0.158,-0.064c-0.067,-0.017 -0.132,-0.029 -0.196,-0.032l0,-0.222l1.473,-0.078l0.044,0.039l0,0.334l0.024,0.008c0.133,-0.137 0.281,-0.242 0.441,-0.313c0.162,-0.077 0.323,-0.112 0.48,-0.112c0.416,0 0.744,0.147 0.986,0.44c0.242,0.295 0.363,0.681 0.363,1.165zm-1.084,0.009c0,-0.149 -0.01,-0.295 -0.032,-0.433c-0.022,-0.139 -0.061,-0.261 -0.118,-0.368c-0.053,-0.109 -0.126,-0.197 -0.214,-0.261c-0.089,-0.064 -0.2,-0.099 -0.329,-0.099s-0.232,0.023 -0.312,0.069c-0.078,0.047 -0.146,0.104 -0.205,0.176l0,1.713c0.013,0.04 0.036,0.091 0.069,0.153c0.036,0.063 0.067,0.115 0.104,0.155c0.05,0.054 0.105,0.094 0.171,0.12c0.063,0.027 0.135,0.038 0.212,0.038c0.197,0 0.356,-0.106 0.477,-0.322c0.116,-0.211 0.177,-0.525 0.177,-0.941z"
                fill="#FFFFFF" id="svg_32" />
            <path
                d="m32.918,21.90501l-1.813,0l0,-0.22c0.04,-0.006 0.086,-0.008 0.14,-0.016c0.056,-0.007 0.095,-0.018 0.121,-0.029c0.043,-0.022 0.071,-0.056 0.09,-0.098c0.018,-0.041 0.027,-0.104 0.027,-0.188l0,-1.411c0,-0.208 -0.04,-0.362 -0.117,-0.465c-0.078,-0.104 -0.188,-0.154 -0.33,-0.154c-0.081,0 -0.158,0.012 -0.227,0.036c-0.069,0.024 -0.137,0.059 -0.204,0.104c-0.06,0.042 -0.104,0.083 -0.14,0.125c-0.035,0.04 -0.065,0.08 -0.089,0.111l0,1.62c0,0.074 0.011,0.134 0.027,0.176c0.017,0.045 0.053,0.082 0.103,0.109c0.031,0.017 0.069,0.033 0.118,0.046c0.051,0.014 0.098,0.025 0.144,0.032l0,0.22l-1.84,0l0,-0.22c0.053,-0.006 0.104,-0.008 0.151,-0.016c0.05,-0.007 0.095,-0.018 0.134,-0.029c0.063,-0.025 0.108,-0.06 0.132,-0.104c0.022,-0.047 0.035,-0.105 0.035,-0.182l0,-3.366c0,-0.063 -0.016,-0.13 -0.046,-0.203c-0.03,-0.072 -0.073,-0.126 -0.128,-0.164c-0.04,-0.026 -0.098,-0.045 -0.173,-0.062c-0.077,-0.015 -0.146,-0.024 -0.206,-0.028l0,-0.221l1.505,-0.078l0.044,0.049l0,2.076l0.012,0c0.075,-0.068 0.146,-0.129 0.206,-0.186c0.061,-0.053 0.136,-0.11 0.226,-0.166c0.072,-0.051 0.171,-0.09 0.29,-0.125s0.248,-0.05 0.388,-0.05c0.324,0 0.569,0.092 0.732,0.28c0.165,0.186 0.246,0.433 0.246,0.738l0,1.479c0,0.073 0.011,0.134 0.033,0.179c0.021,0.045 0.063,0.077 0.123,0.104c0.036,0.018 0.076,0.031 0.121,0.042c0.043,0.011 0.098,0.023 0.162,0.03l0,0.22l0.003,0l0,0.005z"
                fill="#FFFFFF" id="svg_33" />
            <path
                d="m36.871,20.43801c0,0.423 -0.142,0.785 -0.425,1.089c-0.283,0.306 -0.644,0.458 -1.076,0.458c-0.193,0 -0.351,-0.019 -0.471,-0.06c-0.121,-0.037 -0.221,-0.086 -0.299,-0.142l-0.024,0l0,0.847c0,0.071 0.016,0.133 0.048,0.185c0.03,0.051 0.074,0.091 0.132,0.115c0.055,0.021 0.131,0.043 0.23,0.058c0.098,0.021 0.182,0.03 0.248,0.034l0,0.224l-2.182,0l0,-0.224c0.05,-0.005 0.114,-0.011 0.189,-0.022s0.135,-0.023 0.173,-0.036c0.063,-0.02 0.106,-0.058 0.132,-0.111c0.022,-0.053 0.033,-0.115 0.033,-0.181l0,-3.089c-0.006,-0.066 -0.021,-0.124 -0.046,-0.177c-0.026,-0.049 -0.064,-0.093 -0.119,-0.133c-0.039,-0.023 -0.094,-0.046 -0.16,-0.064c-0.066,-0.017 -0.133,-0.029 -0.197,-0.032l0,-0.222l1.472,-0.078l0.047,0.039l0,0.334l0.024,0.008c0.131,-0.137 0.28,-0.242 0.441,-0.313c0.162,-0.077 0.322,-0.112 0.48,-0.112c0.416,0 0.743,0.147 0.985,0.44c0.244,0.295 0.365,0.681 0.365,1.165zm-1.084,0.009c0,-0.149 -0.012,-0.295 -0.035,-0.433c-0.019,-0.139 -0.061,-0.261 -0.116,-0.368c-0.053,-0.109 -0.126,-0.197 -0.214,-0.261c-0.09,-0.064 -0.199,-0.099 -0.327,-0.099c-0.129,0 -0.236,0.023 -0.313,0.069c-0.078,0.047 -0.146,0.104 -0.203,0.176l0,1.713c0.01,0.04 0.033,0.091 0.067,0.153c0.034,0.063 0.067,0.115 0.103,0.155c0.051,0.054 0.107,0.094 0.171,0.12c0.063,0.027 0.135,0.038 0.213,0.038c0.197,0 0.355,-0.106 0.476,-0.322c0.119,-0.211 0.178,-0.525 0.178,-0.941z"
                fill="#FFFFFF" id="svg_34" />
        </g>
    </g>
</svg>