<svg width="62" height="70" xmlns="http://www.w3.org/2000/svg" xmlns:svg="http://www.w3.org/2000/svg">
 <g class="layer">
  <title>Layer 1</title>
  <g id="hex_ps">
   <path d="m31.008,0l-31.008,17.309l0,34.682l31.008,17.307l31.009,-17.307l0,-34.682l-31.009,-17.309zm28.751,50.663l-28.751,16.05l-28.75,-16.05l0,-32.03l28.75,-16.049l28.751,16.049l0,32.03z" fill="#00C8FF" id="outline_4_"/>
   <polygon fill="#261300" id="background_4_" points="2.258001605987829,18.63300112915067 2.258001605987829,50.662999908447546 31.00800112915067,66.71300677490262 59.759008209228796,50.662999908447546 59.759008209228796,18.63300112915067 31.00800112915067,2.5840053958895624 "/>
   <g id="content_4_">
    <path d="m12.019,18.306c0,-0.21 0.42,-0.362 0.662,-0.362c1.925,-0.09 4.784,-0.149 7.765,-0.149c8.336,0 11.587,4.575 11.587,10.444c0,7.644 -5.537,10.924 -12.341,10.924c-1.143,0 -1.534,-0.061 -2.345,-0.061l0,11.559c0,0.24 -0.091,0.359 -0.361,0.359l-4.605,0c-0.241,0 -0.361,-0.091 -0.361,-0.359l0,-32.355l-0.001,0z" fill="#00C8FF" id="svg_1"/>
    <path d="m17.375,34.286c0.692,0.063 1.232,0.063 2.438,0.063c3.52,0 6.831,-1.234 6.831,-6.02c0,-3.824 -2.378,-5.749 -6.38,-5.749c-1.204,0 -2.347,0.061 -2.889,0.091l0,11.615l0,0z" fill="#261300" id="svg_2"/>
    <path d="m43.256,30.706c-2.377,0 -3.188,1.203 -3.188,2.197c0,1.083 0.54,1.837 3.731,3.491c4.725,2.287 6.198,4.484 6.198,7.704c0,4.816 -3.668,7.403 -8.637,7.403c-2.617,0 -4.875,-0.543 -6.17,-1.294c-0.209,-0.089 -0.24,-0.24 -0.24,-0.482l0,-4.424c0,-0.301 0.15,-0.392 0.362,-0.241c1.895,1.234 4.061,1.776 6.048,1.776c2.378,0 3.371,-0.995 3.371,-2.348c0,-1.083 -0.693,-2.047 -3.73,-3.612c-4.275,-2.047 -6.051,-4.121 -6.051,-7.584c0,-3.882 3.039,-7.102 8.308,-7.102c2.587,0 4.392,0.391 5.385,0.842c0.242,0.149 0.302,0.392 0.302,0.604l0,4.121c0,0.241 -0.151,0.391 -0.451,0.301c-1.325,-0.841 -3.281,-1.352 -5.238,-1.352l0,0z" fill="#00C8FF" id="svg_3"/>
   </g>
  </g>
  <g id="hex_ai">
   <path d="m31.008,0l-31.008,17.31l0,34.681l31.008,17.308l31.006,-17.308l0,-34.681l-31.006,-17.31zm28.749,50.664l-28.749,16.051l-28.751,-16.051l0,-32.031l28.751,-16.049l28.749,16.049l0,32.031z" fill="#FF7C00" id="outline_1_"/>
   <polygon fill="#261300" id="background_1_" points="2.257001916885656,18.633004943847936 2.257001916885656,50.664003173828405 31.00800112915067,66.71500567626981 59.756994049072546,50.664003173828405 59.756994049072546,18.635003845215124 31.00800112915067,2.5840013427737176 "/>
   <g id="content">
    <path d="m20.768,42.326l-2.375,9.026c-0.062,0.241 -0.151,0.301 -0.452,0.301l-4.424,0c-0.302,0 -0.361,-0.089 -0.302,-0.451l8.549,-29.916c0.149,-0.543 0.239,-1.022 0.299,-2.498c0,-0.21 0.093,-0.301 0.242,-0.301l6.321,0c0.21,0 0.299,0.063 0.359,0.301l9.572,32.476c0.061,0.239 0,0.39 -0.241,0.39l-4.997,0c-0.239,0 -0.392,-0.06 -0.452,-0.27l-2.499,-9.058l-9.6,0l0,0zm8.37,-4.879c-0.842,-3.339 -2.828,-10.623 -3.583,-14.146l-0.06,0c-0.632,3.523 -2.228,9.483 -3.491,14.146l7.134,0zm13.544,-16.731c0,-1.928 1.353,-3.069 3.067,-3.069c1.836,0 3.07,1.232 3.07,3.069c0,1.985 -1.295,3.068 -3.131,3.068c-1.744,0 -3.006,-1.083 -3.006,-3.068l0,0zm0.36,6.831c0,-0.242 0.09,-0.362 0.36,-0.362l4.725,0c0.24,0 0.363,0.091 0.363,0.362l0,23.745c0,0.241 -0.063,0.361 -0.363,0.361l-4.666,0c-0.3,0 -0.391,-0.15 -0.391,-0.39l0,-23.716l-0.028,0l0,0z" fill="#FF7C00" id="svg_4"/>
   </g>
  </g>
  <g id="hex_ap">
   <path d="m31.01,69.29801l31.005,-17.31l0,-34.68l-31.008,-17.308l-31.007,17.308l0,34.68l31.01,17.31zm-28.753,-50.664l28.75,-16.048l28.752,16.048l0,32.031l-28.749,16.05l-28.753,-16.05l0,-32.031z" id="outline_22_"/>
   <polygon fill="#DFA800" id="background_36_" points="59.75900439453153,50.66501025390653 59.75900439453153,18.63400439453153 31.007005493164343,2.586000244140905 2.2570054931643426,18.63400439453153 2.2570054931643426,50.66501025390653 31.010011474609655,66.7150285644534 "/>
   <polygon fill="#DF9000" id="background_35_" points="30.921998779297155,9.385988037109655 54.17801074218778,22.367006103515905 54.17801074218778,48.27798632812528 30.924989501953405,61.260011474609655 "/>
   <g id="svg_5">
    <path d="m23.945,21.93101l-2.332,0l0,-0.233c0.107,-0.009 0.236,-0.03 0.382,-0.059c0.147,-0.031 0.219,-0.07 0.219,-0.118c0,-0.015 0,-0.034 -0.001,-0.053c-0.003,-0.021 -0.013,-0.049 -0.026,-0.084l-0.367,-0.887l-1.477,0c-0.035,0.083 -0.072,0.18 -0.112,0.29c-0.044,0.113 -0.076,0.209 -0.107,0.296c-0.038,0.113 -0.063,0.195 -0.067,0.244c-0.008,0.053 -0.013,0.086 -0.013,0.108c0,0.063 0.05,0.118 0.147,0.161c0.098,0.048 0.259,0.079 0.486,0.101l0,0.233l-1.756,0l0,-0.233c0.067,-0.003 0.142,-0.015 0.224,-0.033c0.085,-0.017 0.151,-0.04 0.199,-0.071c0.081,-0.05 0.151,-0.107 0.21,-0.178c0.057,-0.07 0.104,-0.154 0.143,-0.251c0.233,-0.566 0.468,-1.13 0.702,-1.7c0.232,-0.567 0.493,-1.192 0.778,-1.876l0.601,0c0.396,0.969 0.703,1.736 0.929,2.299c0.224,0.565 0.412,1.031 0.569,1.401c0.026,0.061 0.061,0.114 0.1,0.164c0.041,0.048 0.098,0.097 0.171,0.141c0.057,0.031 0.123,0.057 0.197,0.071c0.074,0.019 0.142,0.027 0.202,0.032l0,0.235l-0.001,0zm-2.25,-1.732l-0.62,-1.547l-0.61,1.547l1.23,0z" id="svg_6"/>
    <path d="m27.628,20.46001c0,0.426 -0.144,0.79 -0.426,1.095c-0.284,0.305 -0.643,0.455 -1.077,0.455c-0.192,0 -0.35,-0.02 -0.469,-0.06c-0.121,-0.04 -0.221,-0.088 -0.298,-0.144l-0.025,0l0,0.85c0,0.07 0.016,0.132 0.045,0.182c0.035,0.053 0.077,0.093 0.132,0.117c0.056,0.021 0.133,0.042 0.232,0.059c0.1,0.019 0.184,0.031 0.25,0.033l0,0.225l-2.183,0l0,-0.225c0.05,-0.004 0.113,-0.011 0.19,-0.022c0.076,-0.011 0.136,-0.022 0.172,-0.034c0.063,-0.021 0.106,-0.06 0.131,-0.113s0.034,-0.116 0.034,-0.184l0,-3.085c-0.005,-0.067 -0.021,-0.126 -0.047,-0.176c-0.024,-0.049 -0.064,-0.096 -0.118,-0.133c-0.039,-0.027 -0.094,-0.048 -0.16,-0.066c-0.066,-0.017 -0.13,-0.028 -0.195,-0.032l0,-0.222l1.474,-0.077l0.044,0.038l0,0.334l0.023,0.006c0.133,-0.135 0.281,-0.239 0.441,-0.312c0.162,-0.076 0.323,-0.112 0.48,-0.112c0.417,0 0.745,0.148 0.986,0.441c0.241,0.295 0.364,0.682 0.364,1.162zm-1.086,0.014c0,-0.15 -0.011,-0.296 -0.031,-0.434c-0.022,-0.138 -0.063,-0.26 -0.119,-0.369c-0.054,-0.108 -0.125,-0.195 -0.213,-0.259c-0.093,-0.064 -0.199,-0.098 -0.327,-0.098c-0.13,0 -0.235,0.022 -0.313,0.069c-0.078,0.045 -0.148,0.103 -0.205,0.176l0,1.71c0.013,0.041 0.035,0.093 0.068,0.155c0.034,0.063 0.069,0.114 0.104,0.154c0.048,0.054 0.106,0.095 0.17,0.12c0.066,0.026 0.134,0.037 0.211,0.037c0.199,0 0.358,-0.105 0.477,-0.321c0.119,-0.212 0.178,-0.527 0.178,-0.94z" id="svg_7"/>
    <path d="m31.464,21.86701c-0.087,0.038 -0.192,0.075 -0.313,0.106c-0.119,0.031 -0.247,0.049 -0.381,0.049c-0.247,0 -0.43,-0.036 -0.545,-0.112c-0.117,-0.073 -0.197,-0.178 -0.239,-0.315l-0.017,0c-0.067,0.069 -0.134,0.129 -0.198,0.176c-0.064,0.051 -0.131,0.091 -0.204,0.125c-0.095,0.043 -0.185,0.076 -0.273,0.099c-0.087,0.022 -0.21,0.034 -0.367,0.034c-0.234,0 -0.433,-0.07 -0.6,-0.207c-0.164,-0.138 -0.247,-0.321 -0.247,-0.549c0,-0.133 0.018,-0.243 0.053,-0.333c0.039,-0.093 0.09,-0.174 0.155,-0.244c0.062,-0.063 0.13,-0.118 0.21,-0.16c0.081,-0.042 0.168,-0.081 0.262,-0.12c0.181,-0.064 0.399,-0.135 0.653,-0.205c0.254,-0.072 0.438,-0.135 0.557,-0.193l0,-0.29c0,-0.05 -0.004,-0.116 -0.013,-0.199c-0.007,-0.082 -0.025,-0.15 -0.051,-0.208c-0.027,-0.064 -0.073,-0.118 -0.133,-0.162s-0.14,-0.066 -0.238,-0.066c-0.088,0 -0.163,0.014 -0.222,0.038c-0.061,0.024 -0.106,0.051 -0.144,0.076c0.006,0.04 0.022,0.104 0.05,0.184c0.03,0.081 0.044,0.162 0.044,0.239c0,0.034 -0.008,0.076 -0.026,0.127c-0.021,0.053 -0.046,0.093 -0.08,0.123c-0.046,0.039 -0.1,0.071 -0.155,0.094c-0.059,0.022 -0.146,0.03 -0.265,0.03c-0.169,0 -0.297,-0.039 -0.385,-0.12c-0.087,-0.082 -0.13,-0.186 -0.13,-0.317c0,-0.112 0.044,-0.215 0.135,-0.306c0.088,-0.089 0.198,-0.163 0.328,-0.222c0.126,-0.059 0.271,-0.106 0.437,-0.141c0.163,-0.031 0.319,-0.048 0.46,-0.048c0.193,0 0.372,0.011 0.537,0.036c0.164,0.022 0.31,0.069 0.439,0.14c0.125,0.071 0.225,0.174 0.297,0.31c0.075,0.132 0.11,0.309 0.11,0.523c0,0.227 -0.005,0.497 -0.015,0.808c-0.008,0.313 -0.012,0.518 -0.012,0.615c0,0.092 0.012,0.163 0.039,0.215c0.029,0.054 0.071,0.09 0.127,0.117c0.034,0.017 0.088,0.026 0.16,0.028c0.073,0.005 0.141,0.007 0.202,0.007l0,0.22l-0.002,0l0,-0.002zm-1.495,-1.571c-0.115,0.038 -0.225,0.082 -0.336,0.133c-0.111,0.048 -0.202,0.1 -0.272,0.153c-0.077,0.056 -0.134,0.13 -0.176,0.218c-0.042,0.087 -0.064,0.19 -0.064,0.311c0,0.156 0.035,0.27 0.106,0.341c0.072,0.071 0.161,0.105 0.267,0.105c0.11,0 0.2,-0.021 0.273,-0.068c0.071,-0.044 0.136,-0.099 0.189,-0.166l0.013,-1.027z" id="svg_8"/>
    <path d="m33.42,22.02801c-0.279,0 -0.525,-0.041 -0.74,-0.123c-0.214,-0.08 -0.39,-0.191 -0.528,-0.33c-0.138,-0.146 -0.243,-0.314 -0.313,-0.51c-0.069,-0.194 -0.103,-0.406 -0.103,-0.637c0,-0.209 0.042,-0.407 0.125,-0.596c0.084,-0.188 0.197,-0.357 0.34,-0.499c0.147,-0.146 0.329,-0.266 0.547,-0.353c0.221,-0.088 0.46,-0.131 0.724,-0.131c0.37,0 0.663,0.07 0.879,0.211c0.215,0.14 0.322,0.327 0.322,0.566c0,0.143 -0.037,0.259 -0.114,0.35c-0.077,0.089 -0.208,0.131 -0.396,0.131c-0.149,0 -0.277,-0.036 -0.378,-0.107c-0.103,-0.073 -0.152,-0.168 -0.152,-0.283c0,-0.099 0.015,-0.196 0.048,-0.293c0.032,-0.098 0.052,-0.17 0.057,-0.222c-0.022,-0.035 -0.05,-0.063 -0.084,-0.081c-0.033,-0.021 -0.087,-0.031 -0.161,-0.031c-0.09,0 -0.171,0.022 -0.246,0.064c-0.073,0.043 -0.145,0.117 -0.209,0.224c-0.061,0.102 -0.111,0.236 -0.147,0.406c-0.038,0.168 -0.058,0.371 -0.058,0.608c0,0.357 0.086,0.646 0.253,0.866c0.167,0.219 0.367,0.329 0.603,0.329c0.224,0 0.4,-0.051 0.532,-0.15s0.248,-0.24 0.352,-0.425l0.226,0.159c-0.062,0.122 -0.137,0.234 -0.223,0.337c-0.088,0.1 -0.19,0.191 -0.312,0.27c-0.127,0.082 -0.256,0.145 -0.386,0.186c-0.133,0.044 -0.285,0.064 -0.458,0.064z" id="svg_9"/>
    <path d="m38.904,21.93101l-1.813,0l0,-0.219c0.041,-0.005 0.088,-0.011 0.144,-0.015c0.055,-0.007 0.095,-0.018 0.121,-0.032c0.041,-0.021 0.07,-0.054 0.086,-0.095c0.02,-0.046 0.028,-0.106 0.028,-0.188l0,-1.412c0,-0.207 -0.039,-0.361 -0.116,-0.465c-0.078,-0.104 -0.188,-0.154 -0.333,-0.154c-0.079,0 -0.154,0.013 -0.226,0.037c-0.068,0.024 -0.136,0.058 -0.203,0.105c-0.057,0.04 -0.104,0.082 -0.139,0.122c-0.037,0.044 -0.065,0.081 -0.089,0.113l0,1.62c0,0.073 0.009,0.133 0.027,0.176c0.017,0.044 0.051,0.079 0.103,0.108c0.029,0.017 0.069,0.032 0.118,0.047c0.048,0.017 0.097,0.025 0.142,0.032l0,0.219l-1.839,0l0,-0.219c0.052,-0.005 0.104,-0.011 0.152,-0.015c0.049,-0.007 0.096,-0.018 0.132,-0.032c0.064,-0.024 0.107,-0.058 0.133,-0.103c0.022,-0.047 0.036,-0.106 0.036,-0.181l0,-3.364c0,-0.065 -0.016,-0.133 -0.047,-0.207c-0.028,-0.071 -0.072,-0.125 -0.127,-0.161c-0.039,-0.026 -0.098,-0.047 -0.174,-0.062s-0.144,-0.027 -0.206,-0.029l0,-0.222l1.504,-0.077l0.046,0.049l0,2.076l0.011,0c0.077,-0.068 0.146,-0.13 0.207,-0.187c0.061,-0.053 0.137,-0.111 0.225,-0.165c0.075,-0.05 0.171,-0.092 0.291,-0.125c0.117,-0.034 0.246,-0.052 0.386,-0.052c0.326,0 0.57,0.094 0.734,0.28c0.163,0.188 0.245,0.433 0.245,0.739l0,1.479c0,0.075 0.013,0.134 0.033,0.18c0.023,0.045 0.063,0.078 0.124,0.105c0.037,0.014 0.076,0.029 0.121,0.043c0.041,0.012 0.099,0.022 0.162,0.029l0.001,0.222l0,0z" id="svg_10"/>
    <path d="m42.426,21.21001c-0.069,0.115 -0.156,0.223 -0.253,0.325c-0.102,0.101 -0.215,0.188 -0.34,0.26c-0.135,0.078 -0.272,0.134 -0.41,0.175c-0.139,0.039 -0.296,0.059 -0.475,0.059c-0.3,0 -0.557,-0.042 -0.772,-0.126c-0.215,-0.086 -0.395,-0.201 -0.535,-0.343c-0.139,-0.143 -0.246,-0.31 -0.313,-0.505c-0.071,-0.194 -0.105,-0.404 -0.105,-0.632c0,-0.205 0.037,-0.401 0.112,-0.59c0.077,-0.188 0.183,-0.357 0.322,-0.503c0.138,-0.143 0.309,-0.258 0.517,-0.347c0.21,-0.09 0.441,-0.133 0.699,-0.133c0.282,0 0.514,0.034 0.695,0.102c0.181,0.068 0.33,0.164 0.451,0.284c0.112,0.114 0.196,0.248 0.249,0.406c0.052,0.154 0.078,0.318 0.078,0.489l0,0.196l-2.04,0c0,0.414 0.078,0.727 0.237,0.941c0.159,0.216 0.412,0.323 0.757,0.323c0.19,0 0.358,-0.052 0.511,-0.156c0.15,-0.104 0.279,-0.234 0.387,-0.394l0.228,0.169zm-1.152,-1.147c0,-0.12 -0.006,-0.242 -0.019,-0.371c-0.014,-0.127 -0.033,-0.229 -0.064,-0.311c-0.033,-0.096 -0.078,-0.166 -0.139,-0.215c-0.06,-0.048 -0.134,-0.073 -0.225,-0.073c-0.156,0 -0.278,0.079 -0.373,0.237c-0.091,0.156 -0.141,0.402 -0.148,0.745l0.968,-0.012z" id="svg_11"/>
   </g>
   <g id="svg_12" opacity="0.86">
    <path d="m31.057,24.00601l-15.452,26.767l30.907,0l-15.455,-26.767zm-0.135,26.331c-3.418,0 -6.19,-2.772 -6.19,-6.192c0,-3.418 2.772,-6.191 6.19,-6.191c3.421,0 6.191,2.773 6.191,6.191c0.001,3.42 -2.771,6.192 -6.191,6.192z" fill="#FFFFFF" id="svg_13"/>
   </g>
  </g>
  <g id="hex_ms">
   <path d="m31.009,69.29801l31.006,-17.308l0,-34.681l-31.007,-17.309l-31.008,17.31l0,34.681l31.009,17.307zm-28.752,-50.664l28.751,-16.048l28.75,16.048l0,32.03l-28.749,16.05l-28.752,-16.05l0,-32.03z" id="outline_21_"/>
   <polygon fill="#00546B" id="background_34_" points="59.757997314453405,50.664003173828405 59.757997314453405,18.63400439453153 31.007997314453405,2.586000244140905 2.2559984130862176,18.63400439453153 2.2559984130862176,50.664003173828405 31.00900439453153,66.71402148437528 "/>
   <polygon fill="#2E456B" id="background_33_" points="30.92299822998075,9.385988037109655 54.18100146484403,22.367006103515905 54.18100146484403,48.27700976562528 30.92299822998075,61.25900439453153 "/>
   <g id="svg_14">
    <path d="m25.699,21.93201l-2.322,0l0,-0.235c0.069,-0.007 0.155,-0.017 0.252,-0.03c0.1,-0.017 0.169,-0.029 0.203,-0.046c0.076,-0.03 0.128,-0.072 0.16,-0.123c0.033,-0.053 0.048,-0.119 0.048,-0.2l0,-3.2l-1.469,3.765l-0.381,0c-0.021,-0.066 -0.064,-0.198 -0.135,-0.397c-0.073,-0.196 -0.13,-0.352 -0.174,-0.473l-1.085,-2.941l0,2.605c0,0.248 0.017,0.438 0.051,0.567c0.033,0.128 0.088,0.227 0.159,0.286c0.053,0.041 0.143,0.082 0.272,0.12c0.131,0.037 0.219,0.061 0.273,0.067l0,0.235l-1.842,0l0,-0.235c0.05,-0.007 0.134,-0.019 0.245,-0.043c0.115,-0.021 0.209,-0.057 0.279,-0.108c0.082,-0.056 0.136,-0.151 0.163,-0.285c0.029,-0.133 0.043,-0.325 0.043,-0.572l0,-2.122c0,-0.127 -0.016,-0.234 -0.048,-0.321c-0.033,-0.086 -0.081,-0.151 -0.146,-0.202c-0.081,-0.063 -0.163,-0.104 -0.248,-0.121c-0.084,-0.019 -0.169,-0.029 -0.256,-0.037l0,-0.235l1.974,0l1.056,2.821l0.891,-2.287c0.03,-0.086 0.06,-0.186 0.087,-0.304c0.028,-0.117 0.043,-0.194 0.045,-0.23l1.896,0l0,0.235c-0.063,0.006 -0.132,0.013 -0.201,0.027c-0.071,0.013 -0.14,0.026 -0.202,0.045c-0.079,0.027 -0.132,0.07 -0.156,0.125c-0.026,0.055 -0.038,0.118 -0.038,0.186l0,3.035c0,0.072 0.012,0.132 0.038,0.183c0.024,0.047 0.077,0.091 0.156,0.127c0.041,0.02 0.104,0.036 0.197,0.052c0.092,0.017 0.163,0.026 0.214,0.033l0,0.233l0.001,0z" fill="#FFFFFF" id="svg_15"/>
    <path d="m29.515,19.15701c-0.09,0.015 -0.18,0.048 -0.265,0.104c-0.086,0.054 -0.155,0.139 -0.212,0.253c-0.174,0.364 -0.353,0.756 -0.535,1.169c-0.182,0.414 -0.386,0.86 -0.608,1.342c-0.125,0.27 -0.245,0.486 -0.361,0.646c-0.118,0.16 -0.227,0.285 -0.331,0.372c-0.096,0.081 -0.191,0.138 -0.287,0.174c-0.096,0.037 -0.188,0.052 -0.286,0.052c-0.19,0 -0.345,-0.052 -0.462,-0.157c-0.119,-0.108 -0.18,-0.229 -0.18,-0.359c0,-0.058 0.008,-0.111 0.022,-0.157c0.013,-0.049 0.04,-0.101 0.083,-0.15c0.032,-0.046 0.081,-0.083 0.148,-0.114s0.145,-0.047 0.229,-0.047c0.111,0 0.219,0.039 0.322,0.118c0.101,0.08 0.207,0.188 0.32,0.327c0.067,-0.066 0.146,-0.166 0.245,-0.3s0.169,-0.268 0.216,-0.406c-0.24,-0.504 -0.451,-0.939 -0.636,-1.308c-0.186,-0.368 -0.393,-0.779 -0.622,-1.234c-0.05,-0.097 -0.117,-0.17 -0.203,-0.225c-0.085,-0.053 -0.174,-0.086 -0.269,-0.099l0,-0.219l1.848,0l0,0.219c-0.068,0.004 -0.146,0.019 -0.235,0.046c-0.091,0.028 -0.136,0.064 -0.136,0.109c0,0.018 0.004,0.033 0.01,0.052c0.006,0.021 0.019,0.048 0.032,0.083c0.069,0.14 0.166,0.337 0.292,0.587c0.125,0.25 0.271,0.54 0.438,0.877c0.125,-0.286 0.229,-0.532 0.316,-0.737c0.089,-0.204 0.173,-0.407 0.256,-0.606c0.021,-0.049 0.031,-0.089 0.034,-0.118c0.004,-0.029 0.005,-0.05 0.005,-0.059c0,-0.036 -0.019,-0.067 -0.053,-0.095c-0.035,-0.028 -0.076,-0.052 -0.124,-0.07c-0.051,-0.022 -0.098,-0.037 -0.146,-0.047c-0.044,-0.011 -0.083,-0.017 -0.113,-0.021l0,-0.219l1.247,0l0,0.217l0.001,0z" fill="#FFFFFF" id="svg_16"/>
    <path d="m31.407,22.04901c-0.26,0 -0.504,-0.031 -0.731,-0.098c-0.227,-0.063 -0.418,-0.143 -0.574,-0.232l-0.208,0.213l-0.257,0l-0.041,-1.55l0.261,0c0.059,0.147 0.135,0.305 0.224,0.468c0.093,0.161 0.196,0.311 0.313,0.437c0.123,0.135 0.26,0.249 0.412,0.332c0.153,0.084 0.33,0.126 0.535,0.126c0.271,0 0.481,-0.065 0.628,-0.201c0.145,-0.135 0.22,-0.302 0.22,-0.504c0,-0.168 -0.064,-0.308 -0.187,-0.421c-0.123,-0.115 -0.314,-0.213 -0.574,-0.297c-0.17,-0.056 -0.326,-0.104 -0.466,-0.15c-0.143,-0.048 -0.275,-0.094 -0.4,-0.144c-0.288,-0.114 -0.503,-0.277 -0.643,-0.491c-0.139,-0.215 -0.208,-0.451 -0.208,-0.716c0,-0.17 0.034,-0.326 0.11,-0.481c0.072,-0.156 0.177,-0.293 0.313,-0.415c0.135,-0.117 0.303,-0.21 0.512,-0.282c0.207,-0.075 0.431,-0.11 0.676,-0.11c0.238,0 0.46,0.031 0.667,0.099s0.369,0.134 0.488,0.2l0.184,-0.182l0.264,0l0.024,1.46l-0.262,0c-0.061,-0.156 -0.132,-0.317 -0.214,-0.479c-0.079,-0.168 -0.166,-0.303 -0.258,-0.411c-0.097,-0.116 -0.212,-0.211 -0.34,-0.28c-0.129,-0.071 -0.28,-0.104 -0.453,-0.104c-0.217,0 -0.395,0.061 -0.532,0.184c-0.139,0.123 -0.206,0.274 -0.206,0.456c0,0.17 0.059,0.311 0.178,0.418c0.121,0.111 0.309,0.205 0.561,0.291c0.148,0.049 0.3,0.099 0.458,0.149c0.155,0.049 0.29,0.099 0.413,0.144c0.29,0.115 0.511,0.27 0.664,0.469c0.151,0.199 0.229,0.444 0.229,0.738c0,0.187 -0.044,0.366 -0.13,0.538c-0.085,0.173 -0.204,0.317 -0.35,0.432c-0.164,0.127 -0.349,0.225 -0.56,0.293c-0.211,0.068 -0.457,0.101 -0.74,0.101z" fill="#FFFFFF" id="svg_17"/>
    <path d="m37.58,18.12301c0.21,0.195 0.376,0.429 0.501,0.7c0.124,0.273 0.186,0.589 0.186,0.938c0,0.496 -0.124,0.933 -0.373,1.309c-0.249,0.377 -0.601,0.646 -1.054,0.812c0.005,0.24 0.076,0.447 0.217,0.623c0.139,0.176 0.302,0.262 0.491,0.262c0.117,0 0.219,-0.007 0.307,-0.021c0.087,-0.012 0.167,-0.028 0.237,-0.047l0,0.265c-0.113,0.049 -0.284,0.098 -0.511,0.147c-0.226,0.049 -0.463,0.075 -0.709,0.075c-0.339,0 -0.616,-0.103 -0.833,-0.305c-0.221,-0.202 -0.342,-0.485 -0.369,-0.846c-0.285,-0.029 -0.55,-0.102 -0.795,-0.213c-0.247,-0.111 -0.464,-0.264 -0.648,-0.456c-0.185,-0.188 -0.329,-0.412 -0.438,-0.673c-0.108,-0.26 -0.162,-0.545 -0.162,-0.856c0,-0.352 0.061,-0.668 0.181,-0.951c0.121,-0.285 0.284,-0.531 0.493,-0.732c0.207,-0.199 0.455,-0.354 0.739,-0.459c0.283,-0.108 0.587,-0.162 0.908,-0.162s0.621,0.054 0.903,0.155c0.28,0.103 0.521,0.25 0.729,0.435zm-0.777,3.065c0.09,-0.183 0.155,-0.39 0.196,-0.622c0.041,-0.23 0.06,-0.494 0.06,-0.784c0,-0.249 -0.017,-0.489 -0.051,-0.721c-0.036,-0.238 -0.097,-0.445 -0.181,-0.63c-0.087,-0.182 -0.201,-0.329 -0.344,-0.441c-0.144,-0.108 -0.32,-0.165 -0.535,-0.165c-0.363,0 -0.64,0.173 -0.829,0.52c-0.189,0.346 -0.284,0.832 -0.284,1.462c0,0.27 0.02,0.521 0.061,0.76c0.042,0.236 0.107,0.443 0.197,0.621c0.089,0.179 0.203,0.319 0.342,0.419c0.14,0.1 0.311,0.149 0.514,0.149c0.2,0 0.369,-0.05 0.514,-0.151c0.142,-0.102 0.254,-0.242 0.34,-0.417z" fill="#FFFFFF" id="svg_18"/>
    <path d="m42.718,20.55801l-0.085,1.374l-3.944,0l0,-0.235c0.071,-0.007 0.154,-0.017 0.248,-0.03s0.157,-0.022 0.188,-0.035c0.072,-0.029 0.122,-0.068 0.149,-0.12c0.028,-0.051 0.042,-0.114 0.042,-0.19l0,-3.022c0,-0.072 -0.011,-0.132 -0.031,-0.18c-0.023,-0.047 -0.077,-0.092 -0.16,-0.129c-0.063,-0.029 -0.14,-0.052 -0.227,-0.065c-0.087,-0.019 -0.158,-0.032 -0.21,-0.04l0,-0.235l2.352,0l0,0.235c-0.064,0.008 -0.141,0.013 -0.229,0.027c-0.087,0.01 -0.162,0.025 -0.226,0.045c-0.079,0.027 -0.132,0.067 -0.158,0.122c-0.025,0.056 -0.038,0.118 -0.038,0.188l0,2.816c0,0.133 0.009,0.238 0.027,0.313c0.016,0.076 0.053,0.132 0.105,0.168c0.051,0.039 0.123,0.064 0.22,0.076c0.092,0.009 0.221,0.015 0.385,0.015c0.163,0 0.319,-0.008 0.472,-0.026c0.152,-0.021 0.26,-0.062 0.326,-0.127c0.103,-0.104 0.208,-0.245 0.315,-0.433c0.108,-0.188 0.193,-0.358 0.259,-0.512l0.22,0l0,0z" fill="#FFFFFF" id="svg_19"/>
   </g>
   <g id="g3001_1_" opacity="0.88" transform="translate(230.46 6.4962)">
    <path d="m-187.357,40.03401c-1.534,-0.038 -2.72,0.113 -3.716,0.533c-0.286,0.116 -0.747,0.116 -0.783,0.479c0.15,0.154 0.171,0.403 0.305,0.612c0.229,0.383 0.632,0.902 0.997,1.168c0.4,0.307 0.804,0.615 1.225,0.883c0.747,0.457 1.588,0.727 2.315,1.186c0.422,0.269 0.844,0.611 1.267,0.9c0.208,0.151 0.341,0.401 0.609,0.495c0,-0.017 0,-0.037 0,-0.055c-0.134,-0.172 -0.172,-0.422 -0.306,-0.613c-0.191,-0.191 -0.383,-0.364 -0.574,-0.555c-0.556,-0.745 -1.244,-1.397 -1.991,-1.935c-0.613,-0.42 -1.953,-0.995 -2.199,-1.702c0,0 -0.021,-0.02 -0.04,-0.038c0.421,-0.041 0.919,-0.192 1.322,-0.306c0.65,-0.174 1.244,-0.135 1.912,-0.309c0.309,-0.077 0.612,-0.17 0.921,-0.268c0,-0.057 0,-0.114 0,-0.169c-0.346,-0.347 -0.594,-0.808 -0.959,-1.132c-0.976,-0.842 -2.047,-1.665 -3.156,-2.354c-0.594,-0.384 -1.362,-0.632 -1.992,-0.957c-0.229,-0.116 -0.612,-0.173 -0.746,-0.364c-0.345,-0.421 -0.537,-0.977 -0.784,-1.474c-0.557,-1.054 -1.092,-2.222 -1.571,-3.331c-0.344,-0.747 -0.556,-1.493 -0.977,-2.184c-1.97,-3.253 -4.115,-5.224 -7.407,-7.158c-0.708,-0.401 -1.552,-0.574 -2.45,-0.784c-0.479,-0.02 -0.957,-0.057 -1.436,-0.077c-0.307,-0.132 -0.613,-0.497 -0.88,-0.67c-1.093,-0.69 -3.906,-2.181 -4.71,-0.211c-0.518,1.245 0.765,2.471 1.205,3.104c0.325,0.438 0.746,0.938 0.979,1.435c0.133,0.324 0.17,0.669 0.305,1.015c0.307,0.842 0.593,1.78 0.995,2.565c0.213,0.4 0.441,0.821 0.708,1.187c0.153,0.21 0.423,0.308 0.479,0.649c-0.266,0.383 -0.287,0.957 -0.438,1.438c-0.689,2.162 -0.422,4.843 0.555,6.43c0.306,0.48 1.034,1.533 2.009,1.132c0.861,-0.346 0.671,-1.438 0.919,-2.395c0.06,-0.228 0.021,-0.381 0.136,-0.536c0,0.021 0,0.038 0,0.038c0.268,0.538 0.535,1.054 0.784,1.589c0.592,0.939 1.628,1.914 2.487,2.565c0.46,0.348 0.824,0.938 1.399,1.149c0,-0.021 0,-0.04 0,-0.059c-0.021,0 -0.021,0 -0.039,0c-0.117,-0.172 -0.287,-0.249 -0.44,-0.383c-0.345,-0.345 -0.726,-0.765 -0.997,-1.147c-0.801,-1.074 -1.511,-2.26 -2.144,-3.484c-0.306,-0.594 -0.574,-1.244 -0.822,-1.838c-0.114,-0.23 -0.114,-0.573 -0.308,-0.688c-0.287,0.42 -0.707,0.784 -0.917,1.301c-0.363,0.824 -0.401,1.839 -0.537,2.891c-0.075,0.018 -0.038,0 -0.075,0.038c-0.613,-0.154 -0.822,-0.783 -1.052,-1.321c-0.575,-1.358 -0.672,-3.54 -0.174,-5.111c0.134,-0.402 0.709,-1.664 0.479,-2.049c-0.114,-0.362 -0.498,-0.573 -0.708,-0.86c-0.25,-0.364 -0.518,-0.824 -0.688,-1.226c-0.461,-1.073 -0.688,-2.259 -1.188,-3.33c-0.229,-0.5 -0.631,-1.016 -0.957,-1.473c-0.363,-0.518 -0.765,-0.883 -1.053,-1.493c-0.096,-0.212 -0.23,-0.555 -0.075,-0.786c0.039,-0.151 0.114,-0.211 0.268,-0.247c0.249,-0.212 0.957,0.056 1.206,0.172c0.708,0.287 1.303,0.557 1.896,0.956c0.269,0.19 0.556,0.556 0.898,0.651c0.135,0 0.269,0 0.402,0c0.613,0.134 1.304,0.039 1.877,0.212c1.014,0.324 1.935,0.802 2.757,1.318c2.508,1.59 4.576,3.849 5.973,6.547c0.229,0.44 0.326,0.845 0.536,1.301c0.401,0.938 0.9,1.897 1.301,2.816c0.401,0.898 0.784,1.818 1.36,2.563c0.287,0.402 1.436,0.613 1.953,0.823c0.38,0.172 0.976,0.326 1.319,0.536c0.65,0.402 1.302,0.862 1.913,1.303c0.303,0.229 1.26,0.708 1.318,1.092l0,0l0,0z" fill="#FFFFFF" id="path16_1_"/>
    <path d="m-206.885,23.39801c-0.324,0 -0.556,0.037 -0.784,0.097c0,0 0,0.017 0,0.04c0.019,0 0.019,0 0.039,0c0.152,0.305 0.421,0.516 0.611,0.782c0.154,0.305 0.286,0.611 0.439,0.92c0.02,-0.022 0.038,-0.039 0.038,-0.039c0.268,-0.192 0.402,-0.499 0.402,-0.957c-0.114,-0.135 -0.136,-0.27 -0.229,-0.401c-0.112,-0.193 -0.363,-0.288 -0.516,-0.442l0,0z" fill="#FFFFFF" id="path18_1_"/>
   </g>
  </g>
  <g id="hex_py">
   <path d="m31.01201,69.29901l31.004,-17.31l0,-34.681l-31.007,-17.308l-31.009,17.308l0,34.681l31.012,17.31zm-28.754,-50.665l28.751,-16.048l28.751,16.048l0,32.031l-28.751,16.048l-28.751,-16.048l0,-32.031z" id="outline_18_"/>
   <polygon fill="#00B3A1" id="background_32_" points="59.760011474609655,50.66501025390653 59.760011474609655,18.63400439453153 31.00900439453153,2.586000244140905 2.257997314453405,18.63400439453153 2.257997314453405,50.66501025390653 31.00900439453153,66.7150285644534 "/>
   <polygon fill="#00BFB4" id="background_31_" points="30.92202929687528,9.385011474609655 54.179017822265905,22.364991943359655 54.179017822265905,48.276002685547155 30.924989501953405,61.260011474609655 "/>
   <g id="svg_20" transform="translate(0 -308.27)">
    <path d="m30.35801,361.04801c-3.194,-0.117 -5.173,-1.064 -5.676,-2.719l-0.061,-0.193l-0.009,-3.247c-0.007,-3.716 -0.004,-3.791 0.192,-4.383c0.361,-1.079 1.217,-1.775 2.55,-2.077l0.295,-0.069l3.67,-0.017c2.629,-0.009 3.72,-0.022 3.845,-0.045c0.736,-0.126 1.219,-0.319 1.67,-0.659c0.54,-0.404 0.986,-1.101 1.187,-1.849c0.149,-0.563 0.146,-0.504 0.162,-2.477l0.014,-1.834l2.645,0l0.255,0.07c1.377,0.386 2.374,1.688 2.799,3.652c0.164,0.758 0.166,0.784 0.167,2.712c0,1.877 -0.001,1.896 -0.132,2.507c-0.129,0.608 -0.298,1.101 -0.551,1.605c-0.508,1.022 -1.258,1.714 -2.206,2.035c-0.541,0.183 -0.086,0.171 -5.413,0.183l-4.8,0.015l0,0.872l3.183,0.014l3.183,0.013l0.013,1.566c0.006,0.858 0.004,1.638 -0.008,1.728c-0.026,0.221 -0.118,0.479 -0.249,0.704c-0.139,0.231 -0.551,0.648 -0.835,0.832c-0.853,0.569 -2.157,0.916 -3.874,1.029c-0.58,0.04 -1.4,0.053 -2.016,0.032l0,0z" fill="#FED142" id="svg_21" stroke="#000000" stroke-miterlimit="10" stroke-width="4"/>
    <path d="m21.09801,354.38701c-0.723,-0.13 -1.432,-0.567 -1.936,-1.19c-0.953,-1.177 -1.43,-3.142 -1.372,-5.611c0.038,-1.536 0.27,-2.676 0.735,-3.647c0.602,-1.251 1.505,-1.992 2.719,-2.24c0.266,-0.054 0.279,-0.054 4.969,-0.054c2.584,0 4.72,-0.004 4.744,-0.013c0.035,-0.014 0.041,-0.072 0.041,-0.451c0,-0.237 -0.003,-0.437 -0.006,-0.439c-0.006,-0.004 -1.439,-0.013 -3.188,-0.02l-3.184,-0.013l-0.008,-1.653c-0.006,-1.813 -0.007,-1.789 0.149,-2.123c0.536,-1.154 2.119,-1.855 4.658,-2.062c0.184,-0.016 0.679,-0.033 1.103,-0.043c2.811,-0.054 4.871,0.46 5.954,1.485c0.121,0.112 0.277,0.281 0.349,0.377c0.162,0.211 0.364,0.616 0.439,0.888l0.061,0.204l0,3.414c0,3.188 -0.004,3.428 -0.048,3.658c-0.055,0.292 -0.189,0.707 -0.302,0.93c-0.388,0.767 -1.104,1.321 -2.049,1.586c-0.615,0.173 -0.336,0.163 -4.404,0.181c-4.04,0.018 -3.795,0.009 -4.362,0.168c-1.1,0.311 -1.907,1.169 -2.237,2.371c-0.148,0.54 -0.145,0.49 -0.161,2.477l-0.014,1.848l-1.232,0.005c-0.929,0.002 -1.277,-0.006 -1.418,-0.033l0,0z" fill="#3571A3" id="svg_22" stroke="#000000" stroke-miterlimit="10" stroke-width="4"/>
   </g>
   <g id="svg_23">
    <path d="m23.31401,18.72001c0,0.24 -0.052,0.449 -0.152,0.621c-0.098,0.178 -0.235,0.316 -0.411,0.427c-0.184,0.111 -0.388,0.193 -0.62,0.243c-0.232,0.052 -0.492,0.077 -0.784,0.077l-0.349,0l0,1.203c0,0.071 0.013,0.137 0.041,0.188c0.026,0.056 0.078,0.099 0.154,0.13c0.04,0.016 0.106,0.031 0.196,0.051c0.09,0.019 0.167,0.031 0.228,0.038l0,0.234l-2.319,0l0,-0.234c0.058,-0.007 0.138,-0.018 0.232,-0.028c0.096,-0.012 0.165,-0.023 0.202,-0.038c0.078,-0.036 0.132,-0.074 0.157,-0.121c0.024,-0.046 0.037,-0.11 0.037,-0.192l0,-3.02c0,-0.072 -0.013,-0.131 -0.037,-0.184c-0.023,-0.051 -0.075,-0.094 -0.157,-0.127c-0.056,-0.025 -0.132,-0.046 -0.226,-0.066c-0.094,-0.019 -0.162,-0.03 -0.209,-0.036l0,-0.237l2.363,0c0.554,0 0.967,0.089 1.241,0.267c0.273,0.174 0.413,0.443 0.413,0.804zm-1.18,0.156c0,-0.323 -0.063,-0.564 -0.194,-0.721c-0.128,-0.154 -0.36,-0.234 -0.691,-0.234l-0.251,0l0,1.882l0.128,0c0.328,0 0.58,-0.077 0.75,-0.228c0.172,-0.153 0.258,-0.384 0.258,-0.699z" id="svg_24"/>
    <path d="m27.00801,19.15801c-0.09,0.011 -0.177,0.047 -0.264,0.101c-0.085,0.054 -0.156,0.141 -0.211,0.253c-0.176,0.366 -0.352,0.758 -0.535,1.173c-0.183,0.411 -0.388,0.858 -0.611,1.34c-0.124,0.269 -0.244,0.484 -0.361,0.647c-0.115,0.158 -0.225,0.282 -0.33,0.37c-0.096,0.08 -0.191,0.138 -0.285,0.175c-0.095,0.036 -0.19,0.053 -0.288,0.053c-0.192,0 -0.345,-0.053 -0.462,-0.16c-0.117,-0.106 -0.178,-0.227 -0.178,-0.359c0,-0.057 0.007,-0.107 0.022,-0.155c0.013,-0.049 0.038,-0.1 0.08,-0.151c0.032,-0.045 0.082,-0.083 0.149,-0.113c0.067,-0.031 0.144,-0.047 0.229,-0.047c0.112,0 0.22,0.039 0.322,0.118c0.103,0.078 0.208,0.188 0.32,0.327c0.064,-0.066 0.147,-0.166 0.246,-0.299c0.096,-0.134 0.168,-0.269 0.215,-0.407c-0.24,-0.502 -0.451,-0.939 -0.638,-1.31c-0.185,-0.366 -0.393,-0.779 -0.62,-1.233c-0.05,-0.096 -0.119,-0.171 -0.202,-0.225c-0.084,-0.052 -0.174,-0.086 -0.269,-0.097l0,-0.22l1.848,0l0,0.22c-0.069,0.003 -0.147,0.017 -0.238,0.045c-0.086,0.028 -0.133,0.064 -0.133,0.107c0,0.02 0.003,0.034 0.009,0.053c0.007,0.021 0.02,0.049 0.035,0.084c0.068,0.14 0.163,0.334 0.29,0.586c0.126,0.249 0.27,0.541 0.438,0.876c0.124,-0.284 0.232,-0.53 0.318,-0.735c0.088,-0.206 0.174,-0.406 0.254,-0.605c0.02,-0.05 0.032,-0.09 0.036,-0.121c0.002,-0.026 0.005,-0.048 0.005,-0.056c0,-0.035 -0.018,-0.069 -0.054,-0.098c-0.035,-0.026 -0.077,-0.05 -0.124,-0.07c-0.05,-0.02 -0.099,-0.035 -0.146,-0.044c-0.046,-0.012 -0.085,-0.019 -0.114,-0.021l0,-0.22l1.246,0l0,0.218l0.001,0z" id="svg_25"/>
    <path d="m29.31601,21.79201c-0.128,0.056 -0.266,0.105 -0.412,0.152c-0.146,0.044 -0.325,0.067 -0.537,0.067c-0.313,0 -0.546,-0.075 -0.697,-0.23c-0.153,-0.148 -0.229,-0.368 -0.229,-0.652l0,-1.852l-0.542,0l0,-0.329l0.555,0l0,-0.915l0.977,0l0,0.915l0.849,0l0,0.329l-0.843,0l0,1.652c0,0.233 0.034,0.4 0.099,0.5c0.067,0.098 0.184,0.147 0.354,0.147c0.054,0 0.13,-0.005 0.228,-0.011c0.098,-0.01 0.165,-0.017 0.201,-0.028l0,0.255l-0.003,0z" id="svg_26"/>
    <path d="m33.45301,21.93201l-1.813,0l0,-0.22c0.039,-0.005 0.088,-0.011 0.142,-0.015c0.055,-0.007 0.096,-0.019 0.121,-0.032c0.042,-0.021 0.071,-0.056 0.088,-0.097c0.018,-0.042 0.025,-0.105 0.025,-0.188l0,-1.411c0,-0.207 -0.037,-0.361 -0.116,-0.465c-0.077,-0.104 -0.188,-0.155 -0.33,-0.155c-0.08,0 -0.156,0.013 -0.224,0.037c-0.07,0.025 -0.138,0.058 -0.205,0.105c-0.06,0.041 -0.106,0.082 -0.141,0.123c-0.035,0.042 -0.066,0.081 -0.09,0.11l0,1.623c0,0.073 0.01,0.133 0.028,0.176c0.02,0.044 0.052,0.079 0.101,0.108c0.031,0.017 0.072,0.032 0.121,0.046c0.048,0.016 0.097,0.025 0.143,0.033l0,0.22l-1.842,0l0,-0.22c0.054,-0.005 0.104,-0.011 0.156,-0.015c0.048,-0.007 0.092,-0.019 0.13,-0.032c0.065,-0.025 0.109,-0.06 0.132,-0.105c0.025,-0.044 0.036,-0.104 0.036,-0.179l0,-3.365c0,-0.063 -0.017,-0.132 -0.045,-0.203c-0.03,-0.074 -0.073,-0.127 -0.127,-0.165c-0.041,-0.027 -0.098,-0.045 -0.177,-0.06c-0.075,-0.015 -0.144,-0.026 -0.203,-0.029l0,-0.221l1.503,-0.08l0.044,0.051l0,2.075l0.012,0c0.077,-0.067 0.146,-0.132 0.208,-0.186c0.06,-0.055 0.135,-0.111 0.225,-0.17c0.074,-0.046 0.171,-0.088 0.289,-0.122c0.12,-0.03 0.249,-0.052 0.388,-0.052c0.326,0 0.571,0.096 0.734,0.284c0.165,0.185 0.246,0.431 0.246,0.737l0,1.479c0,0.075 0.01,0.135 0.033,0.18c0.021,0.043 0.063,0.077 0.124,0.104c0.036,0.017 0.075,0.03 0.12,0.041c0.045,0.013 0.097,0.023 0.162,0.032l0,0.22l0.002,0l0,0.003z" id="svg_27"/>
    <path d="m36.81101,19.29401c0.149,0.14 0.262,0.304 0.341,0.496c0.079,0.194 0.116,0.402 0.116,0.628c0,0.225 -0.037,0.436 -0.115,0.634s-0.189,0.367 -0.339,0.508c-0.16,0.152 -0.349,0.267 -0.568,0.348c-0.22,0.078 -0.473,0.12 -0.757,0.12c-0.246,0 -0.47,-0.035 -0.677,-0.105c-0.207,-0.071 -0.388,-0.177 -0.548,-0.317c-0.151,-0.136 -0.274,-0.3 -0.36,-0.5c-0.09,-0.198 -0.134,-0.418 -0.134,-0.665c0,-0.242 0.037,-0.456 0.114,-0.644c0.08,-0.188 0.196,-0.356 0.352,-0.502c0.147,-0.143 0.332,-0.251 0.548,-0.327c0.221,-0.079 0.464,-0.118 0.733,-0.118c0.282,0 0.53,0.039 0.742,0.118c0.218,0.075 0.4,0.183 0.552,0.326zm-0.774,2.09c0.046,-0.114 0.077,-0.248 0.098,-0.412c0.022,-0.16 0.033,-0.347 0.033,-0.559c0,-0.142 -0.011,-0.304 -0.03,-0.482c-0.022,-0.184 -0.051,-0.326 -0.091,-0.428c-0.051,-0.129 -0.115,-0.229 -0.201,-0.3c-0.085,-0.074 -0.193,-0.11 -0.325,-0.11c-0.141,0 -0.257,0.04 -0.343,0.117c-0.084,0.082 -0.15,0.183 -0.197,0.306c-0.041,0.116 -0.07,0.251 -0.086,0.403c-0.016,0.153 -0.025,0.313 -0.025,0.482c0,0.219 0.008,0.399 0.022,0.543c0.013,0.146 0.046,0.288 0.101,0.436c0.047,0.123 0.111,0.224 0.2,0.295c0.086,0.071 0.195,0.106 0.328,0.106c0.121,0 0.226,-0.031 0.313,-0.102c0.085,-0.064 0.154,-0.163 0.203,-0.295z" id="svg_28"/>
    <path d="m41.64201,21.93201l-1.813,0l0,-0.22c0.039,-0.005 0.084,-0.011 0.139,-0.015c0.056,-0.007 0.096,-0.019 0.126,-0.032c0.041,-0.021 0.072,-0.056 0.089,-0.097c0.019,-0.042 0.027,-0.105 0.027,-0.188l0,-1.411c0,-0.205 -0.038,-0.361 -0.113,-0.464c-0.076,-0.104 -0.187,-0.156 -0.334,-0.156c-0.08,0 -0.157,0.013 -0.226,0.037c-0.07,0.025 -0.138,0.058 -0.204,0.105c-0.058,0.041 -0.105,0.082 -0.141,0.123c-0.037,0.042 -0.064,0.081 -0.09,0.11l0,1.623c0,0.068 0.012,0.128 0.031,0.176c0.021,0.048 0.054,0.083 0.101,0.108c0.031,0.017 0.071,0.032 0.118,0.046c0.049,0.016 0.097,0.025 0.142,0.033l0,0.22l-1.835,0l0,-0.22c0.05,-0.005 0.103,-0.011 0.154,-0.02c0.05,-0.004 0.092,-0.015 0.13,-0.027c0.064,-0.021 0.109,-0.057 0.133,-0.102c0.024,-0.047 0.035,-0.107 0.035,-0.183l0,-1.756c0,-0.063 -0.015,-0.122 -0.046,-0.184c-0.035,-0.062 -0.074,-0.109 -0.128,-0.147c-0.038,-0.024 -0.081,-0.043 -0.138,-0.062c-0.058,-0.016 -0.116,-0.027 -0.182,-0.033l0,-0.22l1.439,-0.079l0.045,0.047l0,0.437l0.012,0c0.057,-0.05 0.124,-0.111 0.205,-0.181c0.08,-0.07 0.154,-0.127 0.223,-0.175c0.074,-0.046 0.172,-0.088 0.294,-0.122c0.118,-0.03 0.249,-0.052 0.387,-0.052c0.327,0 0.572,0.096 0.737,0.28c0.163,0.187 0.245,0.434 0.245,0.741l0,1.479c0,0.075 0.013,0.135 0.033,0.18c0.022,0.043 0.063,0.077 0.124,0.104c0.032,0.012 0.071,0.026 0.119,0.041c0.047,0.015 0.1,0.024 0.161,0.032l0,0.224l0.001,0z" id="svg_29"/>
   </g>
  </g>
  <g id="hex_ph">
   <path d="m31.009,69.29801l31.004,-17.308l0,-34.681l-31.007,-17.309l-31.006,17.309l0,34.681l31.009,17.308zm-28.751,-50.664l28.748,-16.048l28.751,16.048l0,32.03l-28.748,16.05l-28.751,-16.05l0,-32.03l0,0z" id="outline_16_"/>
   <polygon fill="#777BB3" id="background_23_" points="59.75699023437528,50.664003173828405 59.75699023437528,18.63400439453153 31.005983154297155,2.586000244140905 2.256989757538122,18.63400439453153 2.256989757538122,50.664003173828405 31.00900439453153,66.71400622558622 "/>
   <polygon fill="#9F97B6" id="background_22_" points="30.921998779297155,9.386003295898718 54.17898730468778,22.367006103515905 54.17898730468778,48.27700976562528 30.921998779297155,61.25900439453153 "/>
   <polygon fill="#FFFFFF" id="svg_30" opacity="0.78" points="21.66299609375028,26.05301074218778 21.66299609375028,52.31900195312528 28.359010498047155,52.31900195312528 28.359010498047155,39.20601062011747 28.359010498047155,31.71701220703153 33.507997314453405,31.71701220703153 33.507997314453405,37.89900378417997 30.934022705078405,37.89900378417997 30.934022705078405,42.53300646972684 40.205995361328405,42.53300646972684 40.205995361328405,26.05301074218778 "/>
   <g id="svg_31">
    <path d="m28.605,20.43801c0,0.423 -0.142,0.785 -0.426,1.089c-0.283,0.306 -0.642,0.458 -1.075,0.458c-0.192,0 -0.35,-0.019 -0.471,-0.06c-0.119,-0.037 -0.22,-0.086 -0.298,-0.142l-0.024,0l0,0.847c0,0.071 0.018,0.133 0.049,0.185c0.03,0.051 0.075,0.091 0.13,0.115c0.056,0.021 0.131,0.043 0.232,0.058c0.099,0.021 0.181,0.03 0.248,0.034l0,0.224l-2.183,0l0,-0.224c0.05,-0.005 0.114,-0.011 0.19,-0.022c0.075,-0.012 0.135,-0.023 0.171,-0.036c0.064,-0.02 0.108,-0.058 0.132,-0.111c0.024,-0.053 0.035,-0.115 0.035,-0.181l0,-3.089c-0.007,-0.066 -0.022,-0.124 -0.046,-0.177c-0.027,-0.049 -0.065,-0.093 -0.121,-0.133c-0.04,-0.023 -0.094,-0.046 -0.158,-0.064c-0.067,-0.017 -0.132,-0.029 -0.196,-0.032l0,-0.222l1.473,-0.078l0.044,0.039l0,0.334l0.024,0.008c0.133,-0.137 0.281,-0.242 0.441,-0.313c0.162,-0.077 0.323,-0.112 0.48,-0.112c0.416,0 0.744,0.147 0.986,0.44c0.242,0.295 0.363,0.681 0.363,1.165zm-1.084,0.009c0,-0.149 -0.01,-0.295 -0.032,-0.433c-0.022,-0.139 -0.061,-0.261 -0.118,-0.368c-0.053,-0.109 -0.126,-0.197 -0.214,-0.261c-0.089,-0.064 -0.2,-0.099 -0.329,-0.099s-0.232,0.023 -0.312,0.069c-0.078,0.047 -0.146,0.104 -0.205,0.176l0,1.713c0.013,0.04 0.036,0.091 0.069,0.153c0.036,0.063 0.067,0.115 0.104,0.155c0.05,0.054 0.105,0.094 0.171,0.12c0.063,0.027 0.135,0.038 0.212,0.038c0.197,0 0.356,-0.106 0.477,-0.322c0.116,-0.211 0.177,-0.525 0.177,-0.941z" fill="#FFFFFF" id="svg_32"/>
    <path d="m32.918,21.90501l-1.813,0l0,-0.22c0.04,-0.006 0.086,-0.008 0.14,-0.016c0.056,-0.007 0.095,-0.018 0.121,-0.029c0.043,-0.022 0.071,-0.056 0.09,-0.098c0.018,-0.041 0.027,-0.104 0.027,-0.188l0,-1.411c0,-0.208 -0.04,-0.362 -0.117,-0.465c-0.078,-0.104 -0.188,-0.154 -0.33,-0.154c-0.081,0 -0.158,0.012 -0.227,0.036c-0.069,0.024 -0.137,0.059 -0.204,0.104c-0.06,0.042 -0.104,0.083 -0.14,0.125c-0.035,0.04 -0.065,0.08 -0.089,0.111l0,1.62c0,0.074 0.011,0.134 0.027,0.176c0.017,0.045 0.053,0.082 0.103,0.109c0.031,0.017 0.069,0.033 0.118,0.046c0.051,0.014 0.098,0.025 0.144,0.032l0,0.22l-1.84,0l0,-0.22c0.053,-0.006 0.104,-0.008 0.151,-0.016c0.05,-0.007 0.095,-0.018 0.134,-0.029c0.063,-0.025 0.108,-0.06 0.132,-0.104c0.022,-0.047 0.035,-0.105 0.035,-0.182l0,-3.366c0,-0.063 -0.016,-0.13 -0.046,-0.203c-0.03,-0.072 -0.073,-0.126 -0.128,-0.164c-0.04,-0.026 -0.098,-0.045 -0.173,-0.062c-0.077,-0.015 -0.146,-0.024 -0.206,-0.028l0,-0.221l1.505,-0.078l0.044,0.049l0,2.076l0.012,0c0.075,-0.068 0.146,-0.129 0.206,-0.186c0.061,-0.053 0.136,-0.11 0.226,-0.166c0.072,-0.051 0.171,-0.09 0.29,-0.125s0.248,-0.05 0.388,-0.05c0.324,0 0.569,0.092 0.732,0.28c0.165,0.186 0.246,0.433 0.246,0.738l0,1.479c0,0.073 0.011,0.134 0.033,0.179c0.021,0.045 0.063,0.077 0.123,0.104c0.036,0.018 0.076,0.031 0.121,0.042c0.043,0.011 0.098,0.023 0.162,0.03l0,0.22l0.003,0l0,0.005z" fill="#FFFFFF" id="svg_33"/>
    <path d="m36.871,20.43801c0,0.423 -0.142,0.785 -0.425,1.089c-0.283,0.306 -0.644,0.458 -1.076,0.458c-0.193,0 -0.351,-0.019 -0.471,-0.06c-0.121,-0.037 -0.221,-0.086 -0.299,-0.142l-0.024,0l0,0.847c0,0.071 0.016,0.133 0.048,0.185c0.03,0.051 0.074,0.091 0.132,0.115c0.055,0.021 0.131,0.043 0.23,0.058c0.098,0.021 0.182,0.03 0.248,0.034l0,0.224l-2.182,0l0,-0.224c0.05,-0.005 0.114,-0.011 0.189,-0.022s0.135,-0.023 0.173,-0.036c0.063,-0.02 0.106,-0.058 0.132,-0.111c0.022,-0.053 0.033,-0.115 0.033,-0.181l0,-3.089c-0.006,-0.066 -0.021,-0.124 -0.046,-0.177c-0.026,-0.049 -0.064,-0.093 -0.119,-0.133c-0.039,-0.023 -0.094,-0.046 -0.16,-0.064c-0.066,-0.017 -0.133,-0.029 -0.197,-0.032l0,-0.222l1.472,-0.078l0.047,0.039l0,0.334l0.024,0.008c0.131,-0.137 0.28,-0.242 0.441,-0.313c0.162,-0.077 0.322,-0.112 0.48,-0.112c0.416,0 0.743,0.147 0.985,0.44c0.244,0.295 0.365,0.681 0.365,1.165zm-1.084,0.009c0,-0.149 -0.012,-0.295 -0.035,-0.433c-0.019,-0.139 -0.061,-0.261 -0.116,-0.368c-0.053,-0.109 -0.126,-0.197 -0.214,-0.261c-0.09,-0.064 -0.199,-0.099 -0.327,-0.099c-0.129,0 -0.236,0.023 -0.313,0.069c-0.078,0.047 -0.146,0.104 -0.203,0.176l0,1.713c0.01,0.04 0.033,0.091 0.067,0.153c0.034,0.063 0.067,0.115 0.103,0.155c0.051,0.054 0.107,0.094 0.171,0.12c0.063,0.027 0.135,0.038 0.213,0.038c0.197,0 0.355,-0.106 0.476,-0.322c0.119,-0.211 0.178,-0.525 0.178,-0.941z" fill="#FFFFFF" id="svg_34"/>
   </g>
  </g>
  <g id="hex_cs">
   <path d="m31.008,69.3l31.006,-17.311l0,-34.681l-31.006,-17.308l-31.008,17.309l0,34.681l31.008,17.31zm-28.751,-50.665l28.751,-16.05l28.749,16.05l0,32.031l-28.749,16.048l-28.751,-16.048l0,-32.031z" id="outline_15_"/>
   <polygon fill="#264DE4" id="background_21_" points="59.75700549316434,50.66599444580106 59.75700549316434,18.635005752563757 31.008004943847936,2.585002700805944 2.256006042480749,18.635005752563757 2.256006042480749,50.66599444580106 31.008004943847936,66.71399859619169 "/>
   <polygon fill="#2965F1" id="background_20_" points="30.922006408691686,9.38599757385282 54.17900256347684,22.368999282837194 54.17900256347684,48.2790048522952 30.925004760742468,61.260003845215124 "/>
   <polygon fill="#EBEBEB" id="polygon2993" points="19.622003356933874,36.350003997803014 20.03800372314481,40.98899630737333 30.417001525879186,40.98899630737333 30.417001525879186,36.350003997803014 "/>
   <polygon fill="#EBEBEB" id="polygon2995" points="18.78800372314481,26.960994522095007 19.21000079345731,31.60000209045438 30.417001525879186,31.60000209045438 30.417001525879186,26.960994522095007 30.40000323486356,26.960994522095007 "/>
   <polygon fill="#EBEBEB" id="polygon2997" points="30.417001525879186,48.394006530762 30.395005981445593,48.398996154785436 25.231004516601843,47.00500277709989 24.90200213623075,43.305002014160436 22.39200000000028,43.305002014160436 20.24600390625028,43.305002014160436 20.894006530762,50.5869996948245 30.395005981445593,53.22599200439481 30.417001525879186,53.219003479004186 "/>
   <polygon fill="#FFFFFF" id="polygon3005" points="41.18100146484403,36.350003997803014 42.017999450683874,26.960994522095007 30.40000323486356,26.960994522095007 30.40000323486356,31.60000209045438 36.934999267578405,31.60000209045438 36.513002197265905,36.350003997803014 30.40000323486356,36.350003997803014 30.40000323486356,40.98899630737333 36.11000231933622,40.98899630737333 35.572999755859655,47.00199298095731 30.40000323486356,48.39600924682645 30.40000323486356,53.22300128173856 39.90799884033231,50.5869996948245 39.97800616455106,49.80399874877958 41.06700305175809,37.594999114990514 "/>
   <g id="svg_35">
    <path d="m26.54,21.487c-0.314,0 -0.607,-0.051 -0.88,-0.152c-0.274,-0.102 -0.514,-0.25 -0.716,-0.441c-0.198,-0.19 -0.356,-0.425 -0.472,-0.704c-0.114,-0.28 -0.172,-0.586 -0.172,-0.919c0,-0.334 0.058,-0.643 0.174,-0.925c0.117,-0.281 0.279,-0.527 0.487,-0.736c0.205,-0.204 0.451,-0.36 0.739,-0.473c0.287,-0.111 0.596,-0.165 0.924,-0.165c0.238,0 0.455,0.026 0.648,0.086c0.196,0.059 0.361,0.123 0.496,0.195l0.186,-0.166l0.264,0l0.027,1.564l-0.267,0c-0.15,-0.479 -0.33,-0.828 -0.543,-1.053c-0.211,-0.225 -0.468,-0.338 -0.771,-0.338c-0.378,0 -0.664,0.169 -0.862,0.503c-0.196,0.331 -0.297,0.801 -0.297,1.403c0,0.339 0.036,0.632 0.104,0.874c0.066,0.239 0.154,0.432 0.264,0.58c0.115,0.153 0.254,0.265 0.412,0.338c0.161,0.071 0.336,0.106 0.527,0.106c0.282,0 0.532,-0.076 0.751,-0.229c0.222,-0.154 0.422,-0.385 0.604,-0.695l0.26,0.157c-0.087,0.177 -0.184,0.337 -0.297,0.476c-0.11,0.139 -0.238,0.26 -0.383,0.36c-0.159,0.111 -0.335,0.197 -0.526,0.261c-0.191,0.062 -0.418,0.093 -0.681,0.093z" fill="#FFFFFF" id="svg_36"/>
    <path d="m30.511,21.487c-0.261,0 -0.504,-0.034 -0.731,-0.099s-0.419,-0.143 -0.575,-0.231l-0.207,0.212l-0.256,0l-0.039,-1.549l0.259,0c0.06,0.147 0.134,0.304 0.224,0.467c0.092,0.163 0.195,0.309 0.313,0.438c0.122,0.136 0.262,0.244 0.412,0.33c0.151,0.085 0.331,0.127 0.532,0.127c0.273,0 0.485,-0.067 0.63,-0.202c0.146,-0.134 0.219,-0.302 0.219,-0.505c0,-0.165 -0.062,-0.309 -0.186,-0.421c-0.124,-0.114 -0.315,-0.211 -0.574,-0.294c-0.17,-0.055 -0.324,-0.105 -0.467,-0.15c-0.141,-0.049 -0.274,-0.097 -0.399,-0.146c-0.288,-0.113 -0.501,-0.277 -0.641,-0.49c-0.141,-0.214 -0.21,-0.453 -0.21,-0.717c0,-0.169 0.035,-0.327 0.109,-0.483c0.071,-0.152 0.177,-0.293 0.315,-0.416c0.132,-0.113 0.304,-0.207 0.511,-0.279c0.206,-0.073 0.433,-0.107 0.676,-0.107c0.238,0 0.46,0.03 0.666,0.098c0.209,0.067 0.372,0.134 0.49,0.199l0.184,-0.182l0.262,0l0.025,1.46l-0.26,0c-0.061,-0.157 -0.133,-0.317 -0.213,-0.481c-0.081,-0.165 -0.167,-0.302 -0.257,-0.411c-0.1,-0.117 -0.213,-0.211 -0.343,-0.279c-0.128,-0.069 -0.279,-0.104 -0.452,-0.104c-0.219,0 -0.395,0.06 -0.531,0.185c-0.139,0.122 -0.207,0.273 -0.207,0.455c0,0.172 0.059,0.312 0.179,0.419c0.12,0.11 0.307,0.205 0.561,0.289c0.149,0.05 0.3,0.101 0.455,0.151c0.156,0.05 0.293,0.098 0.414,0.143c0.293,0.115 0.513,0.27 0.666,0.469c0.151,0.199 0.228,0.444 0.228,0.74c0,0.183 -0.044,0.363 -0.13,0.535c-0.088,0.175 -0.204,0.317 -0.35,0.435c-0.16,0.126 -0.348,0.223 -0.56,0.291c-0.213,0.067 -0.46,0.103 -0.742,0.103z" fill="#FFFFFF" id="svg_37"/>
    <path d="m34.523,21.487c-0.262,0 -0.505,-0.034 -0.732,-0.099c-0.227,-0.064 -0.417,-0.143 -0.575,-0.231l-0.209,0.212l-0.256,0l-0.038,-1.549l0.259,0c0.06,0.147 0.132,0.304 0.225,0.467c0.089,0.163 0.194,0.309 0.313,0.438c0.121,0.136 0.26,0.244 0.413,0.33c0.15,0.085 0.327,0.127 0.531,0.127c0.274,0 0.483,-0.067 0.628,-0.202c0.147,-0.134 0.219,-0.302 0.219,-0.505c0,-0.165 -0.06,-0.309 -0.184,-0.421c-0.124,-0.114 -0.317,-0.211 -0.575,-0.294c-0.17,-0.055 -0.325,-0.105 -0.466,-0.15c-0.143,-0.049 -0.274,-0.097 -0.4,-0.146c-0.288,-0.113 -0.501,-0.277 -0.641,-0.49c-0.142,-0.214 -0.212,-0.453 -0.212,-0.717c0,-0.169 0.039,-0.327 0.11,-0.483c0.073,-0.152 0.18,-0.293 0.317,-0.416c0.133,-0.113 0.304,-0.207 0.509,-0.279c0.208,-0.073 0.434,-0.107 0.677,-0.107c0.236,0 0.46,0.03 0.667,0.098s0.371,0.134 0.488,0.199l0.186,-0.182l0.261,0l0.026,1.46l-0.261,0c-0.061,-0.157 -0.13,-0.317 -0.212,-0.481c-0.083,-0.165 -0.167,-0.302 -0.259,-0.411c-0.1,-0.117 -0.213,-0.211 -0.34,-0.279c-0.129,-0.069 -0.28,-0.104 -0.454,-0.104c-0.218,0 -0.395,0.06 -0.532,0.185c-0.137,0.122 -0.208,0.273 -0.208,0.455c0,0.172 0.061,0.312 0.183,0.419c0.117,0.11 0.305,0.205 0.558,0.289c0.149,0.05 0.302,0.101 0.456,0.151c0.154,0.05 0.294,0.098 0.413,0.143c0.291,0.115 0.515,0.27 0.667,0.469s0.226,0.444 0.226,0.74c0,0.183 -0.042,0.363 -0.129,0.535c-0.085,0.175 -0.202,0.317 -0.35,0.435c-0.161,0.126 -0.348,0.223 -0.559,0.291c-0.212,0.067 -0.457,0.103 -0.74,0.103z" fill="#FFFFFF" id="svg_38"/>
   </g>
  </g>
  <g id="hex_ht">
   <path d="m31.007,69.299l31.008,-17.311l0,-34.68l-31.008,-17.308l-31.007,17.308l0,34.68l31.007,17.311zm-28.751,-50.664l28.751,-16.05l28.75,16.05l0,32.031l-28.75,16.049l-28.751,-16.049l0,-32.031z" id="outline_14_"/>
   <polygon fill="#E44D26" id="background_26_" points="59.75699786376981,50.66600207519559 59.75699786376981,18.634996215820593 31.00699786376981,2.58499316406278 2.255006591797155,18.634996215820593 2.255006591797155,50.66600207519559 31.00699786376981,66.71499804687528 "/>
   <polygon fill="#F16529" id="background_25_" points="30.922006408691686,9.386003295898718 54.17800311279325,22.369005004883093 54.17800311279325,48.278993408203405 30.924005310058874,61.26100329589872 "/>
   <g id="svg_39">
    <path d="m26.622,21.885l-2.318,0l0,-0.236c0.052,-0.005 0.127,-0.01 0.222,-0.018c0.098,-0.008 0.164,-0.022 0.201,-0.036c0.073,-0.029 0.125,-0.069 0.153,-0.12c0.029,-0.049 0.041,-0.111 0.041,-0.188l0,-1.475l-1.828,0l0,1.442c0,0.068 0.016,0.128 0.044,0.183c0.029,0.055 0.08,0.098 0.15,0.129c0.037,0.015 0.103,0.033 0.195,0.05c0.092,0.019 0.168,0.029 0.224,0.034l0,0.235l-2.313,0l0,-0.235c0.052,-0.002 0.125,-0.01 0.225,-0.021c0.096,-0.009 0.167,-0.021 0.212,-0.04c0.072,-0.025 0.122,-0.065 0.148,-0.117c0.031,-0.055 0.045,-0.118 0.045,-0.189l0,-3.029c0,-0.072 -0.013,-0.131 -0.038,-0.18s-0.077,-0.091 -0.155,-0.126c-0.06,-0.026 -0.137,-0.051 -0.23,-0.071c-0.093,-0.021 -0.163,-0.034 -0.205,-0.039l0,-0.232l2.314,0l0,0.232c-0.063,0.005 -0.136,0.016 -0.223,0.032c-0.088,0.016 -0.152,0.03 -0.198,0.044c-0.08,0.026 -0.132,0.069 -0.156,0.126c-0.025,0.056 -0.038,0.118 -0.038,0.182l0,1.28l1.828,0l0,-1.248c0,-0.072 -0.012,-0.131 -0.039,-0.18c-0.026,-0.049 -0.078,-0.091 -0.155,-0.126c-0.054,-0.024 -0.124,-0.049 -0.21,-0.069c-0.088,-0.021 -0.158,-0.034 -0.209,-0.041l0,-0.235l2.314,0l0,0.235c-0.064,0.005 -0.137,0.013 -0.218,0.026c-0.082,0.014 -0.152,0.03 -0.219,0.05c-0.074,0.026 -0.127,0.067 -0.153,0.124c-0.026,0.056 -0.038,0.117 -0.038,0.184l0,3.034c0,0.071 0.012,0.133 0.038,0.183s0.079,0.093 0.153,0.129c0.049,0.019 0.119,0.036 0.21,0.051c0.092,0.018 0.167,0.027 0.227,0.032l0,0.234l-0.001,0z" id="svg_40"/>
    <path d="m31.017,18.827l-0.234,0c-0.063,-0.181 -0.162,-0.378 -0.299,-0.587c-0.139,-0.21 -0.265,-0.322 -0.38,-0.338c-0.065,-0.009 -0.146,-0.015 -0.238,-0.021c-0.096,-0.007 -0.176,-0.01 -0.246,-0.01l-0.141,0l0,3.358c0,0.071 0.013,0.138 0.04,0.191c0.025,0.055 0.074,0.1 0.153,0.13c0.047,0.02 0.117,0.038 0.215,0.059c0.099,0.019 0.182,0.031 0.249,0.04l0,0.234l-2.387,0l0,-0.234c0.057,-0.007 0.14,-0.015 0.246,-0.027s0.178,-0.022 0.216,-0.039c0.078,-0.034 0.13,-0.077 0.157,-0.131s0.04,-0.119 0.04,-0.192l0,-3.389l-0.143,0c-0.068,0 -0.148,0.003 -0.244,0.009c-0.095,0.005 -0.174,0.012 -0.237,0.02c-0.115,0.018 -0.244,0.131 -0.382,0.338c-0.137,0.21 -0.237,0.407 -0.3,0.59l-0.234,0l0,-1.226l4.149,0l0,1.225l0,0z" id="svg_41"/>
    <path d="m37.149,21.885l-2.322,0l0,-0.236c0.071,-0.007 0.155,-0.016 0.253,-0.032c0.101,-0.013 0.168,-0.028 0.205,-0.045c0.074,-0.029 0.127,-0.07 0.159,-0.123c0.032,-0.051 0.049,-0.118 0.049,-0.198l0,-3.199l-1.471,3.763l-0.382,0c-0.019,-0.066 -0.064,-0.198 -0.134,-0.396c-0.073,-0.196 -0.129,-0.355 -0.174,-0.474l-1.085,-2.942l0,2.604c0,0.25 0.018,0.438 0.052,0.57c0.033,0.127 0.086,0.223 0.159,0.285c0.052,0.041 0.142,0.082 0.271,0.12c0.13,0.037 0.22,0.06 0.272,0.066l0,0.234l-1.841,0l0,-0.234c0.051,-0.007 0.133,-0.021 0.247,-0.04c0.112,-0.022 0.205,-0.061 0.277,-0.114c0.08,-0.054 0.136,-0.149 0.163,-0.283c0.028,-0.135 0.042,-0.322 0.042,-0.571l0,-2.121c0,-0.13 -0.015,-0.236 -0.048,-0.321s-0.08,-0.155 -0.145,-0.204c-0.08,-0.061 -0.164,-0.103 -0.246,-0.12c-0.086,-0.02 -0.172,-0.032 -0.257,-0.037l0,-0.235l1.973,0l1.056,2.822l0.891,-2.289c0.03,-0.085 0.059,-0.187 0.086,-0.304c0.029,-0.116 0.043,-0.192 0.045,-0.229l1.898,0l0,0.235c-0.063,0.005 -0.132,0.013 -0.203,0.024c-0.069,0.013 -0.14,0.028 -0.202,0.049c-0.078,0.027 -0.13,0.066 -0.156,0.123c-0.025,0.055 -0.036,0.119 -0.036,0.188l0,3.032c0,0.073 0.011,0.134 0.036,0.183c0.026,0.05 0.078,0.092 0.156,0.128c0.041,0.02 0.107,0.036 0.198,0.051c0.091,0.018 0.162,0.028 0.212,0.035l0,0.235l0.002,0z" id="svg_42"/>
    <path d="m41.619,20.512l-0.085,1.373l-3.944,0l0,-0.236c0.071,-0.007 0.153,-0.015 0.247,-0.029c0.096,-0.013 0.158,-0.025 0.188,-0.037c0.071,-0.029 0.122,-0.068 0.15,-0.118c0.028,-0.051 0.041,-0.113 0.041,-0.192l0,-3.022c0,-0.071 -0.01,-0.13 -0.032,-0.178c-0.021,-0.048 -0.074,-0.092 -0.159,-0.129c-0.064,-0.028 -0.139,-0.052 -0.225,-0.067c-0.088,-0.02 -0.158,-0.032 -0.211,-0.039l0,-0.235l2.35,0l0,0.235c-0.063,0.005 -0.14,0.016 -0.227,0.026c-0.088,0.013 -0.163,0.026 -0.229,0.047c-0.076,0.027 -0.131,0.066 -0.156,0.12c-0.026,0.056 -0.04,0.119 -0.04,0.19l0,2.814c0,0.134 0.011,0.239 0.028,0.316c0.019,0.074 0.053,0.131 0.104,0.167c0.055,0.039 0.125,0.063 0.22,0.075c0.093,0.011 0.223,0.016 0.389,0.016c0.159,0 0.316,-0.01 0.47,-0.028c0.15,-0.021 0.261,-0.061 0.326,-0.127c0.102,-0.102 0.207,-0.244 0.314,-0.432c0.109,-0.186 0.195,-0.357 0.258,-0.51l0.223,0l0,0z" id="svg_43"/>
   </g>
   <polygon fill="#EBEBEB" id="polygon3032_2_" points="24.34500292968778,32.31700305175809 31.019006530762,32.31700305175809 31.019006530762,27.599000732422155 31.004998962402624,27.599000732422155 19.18600634765653,27.599000732422155 19.299005310058874,28.864000122070593 20.459001342773718,41.86900500488309 31.019006530762,41.86900500488309 31.019006530762,37.151002685547155 24.77500323486356,37.151002685547155 "/>
   <polygon fill="#EBEBEB" id="polygon3034_2_" points="25.40700701904325,44.229005615234655 22.854005615234655,44.229005615234655 20.67099932861356,44.229005615234655 21.333001892090124,51.64200000000028 30.99900225830106,54.32600573730497 31.019006530762,54.317994873047155 31.019006530762,49.40800646972684 30.99900225830106,49.41200427246122 25.7430055541995,47.99400500488309 "/>
   <polygon fill="#FFFFFF" id="polygon3044_2_" points="31.004998962402624,41.86900500488309 36.814996520996374,41.86900500488309 36.269006530762,47.99099902343778 31.004998962402624,49.41200427246122 31.004998962402624,54.31999377441434 40.680002014160436,51.64200000000028 40.752008239746374,50.84300402832059 41.859002868652624,38.41800097656278 41.976999084472936,37.151002685547155 40.70400408935575,37.151002685547155 31.004998962402624,37.151002685547155 "/>
   <polygon fill="#FFFFFF" id="polygon3046_2_" points="31.004998962402624,32.30699328613309 31.004998962402624,32.31700305175809 42.390008728027624,32.31700305175809 42.390008728027624,32.31700305175809 42.40500811767606,32.31700305175809 42.49900225830106,31.25399951171903 42.715997497558874,28.864000122070593 42.827997009277624,27.599000732422155 31.004998962402624,27.599000732422155 31.004998962402624,30.528993408203405 "/>
  </g>
  <g id="hex_js">
   <path d="m31.008,69.29801l31.005,-17.307l0,-34.684l-31.006,-17.307l-31.007,17.307l0,34.684l31.008,17.307zm-28.751,-50.664l28.75,-16.05l28.751,16.05l0,32.031l-28.75,16.05l-28.751,-16.05l0,-32.031z" id="outline_17_"/>
   <polygon fill="#E5A228" id="background_24_" points="59.758004943847936,50.66499499511747 59.758004943847936,18.633989135742468 31.00699786376981,2.5840013427737176 2.254998962402624,18.633989135742468 2.254998962402624,50.66499499511747 31.008004943847936,66.71501330566434 "/>
   <polygon fill="#F1BF26" id="background_19_" points="30.92299822998075,9.385011474609655 54.17800311279325,22.369005004883093 54.17800311279325,48.27900866699247 30.924997131347936,61.26002673339872 "/>
   <g id="svg_44">
    <g id="svg_45">
     <polygon fill="none" id="svg_46" points="30.92299822998075,50.53199938964872 36.004998962402624,48.97401599121122 36.614999572754186,43.56300524902372 30.935006896972936,43.56300524902372 30.935006896972936,50.50602893066434 "/>
     <polygon fill="#FFFFFF" id="svg_47" points="30.935006896972936,43.56300524902372 36.614999572754186,43.56300524902372 35.961007873535436,48.97401599121122 30.92299822998075,50.55101184082059 30.935006896972936,50.50602893066434 30.935006896972936,55.15300158691434 30.92299822998075,55.16999987792997 40.08400897216825,52.44099597167997 41.38601092529325,38.41200427246122 30.935006896972936,38.41200427246122 "/>
     <polygon fill="#FFFFFF" id="svg_48" points="36.28800372314481,31.716996948242468 36.79799822998075,36.31099108886747 41.38601092529325,36.21901110839872 40.651010314941686,26.565995971679968 30.935006896972936,26.565995971679968 30.935006896972936,31.716996948242468 "/>
    </g>
    <g id="svg_49">
     <polygon fill="none" id="svg_50" points="30.92299822998075,50.53199938964872 36.004998962402624,48.97401599121122 36.614999572754186,43.56300524902372 30.935006896972936,43.56300524902372 30.935006896972936,50.50602893066434 "/>
     <polygon fill="#ECEDEE" id="svg_51" points="20.83201007080106,43.56300524902372 30.935006896972936,43.56300524902372 30.935006896972936,38.41200427246122 25.8470094604495,38.41200427246122 26.46000079345731,31.716996948242468 30.935006896972936,31.716996948242468 30.935006896972936,26.565995971679968 22.42299822998075,26.565995971679968 "/>
     <polygon fill="#ECEDEE" id="svg_52" points="25.935006896972936,48.94899157714872 25.478997985840124,45.62202624511747 20.62900714111356,45.62202624511747 21.3680055541995,52.68098620605497 30.935006896972936,55.15300158691434 30.935006896972936,50.50602893066434 "/>
    </g>
   </g>
   <g id="svg_53">
    <path d="m17.285,19.94501c-0.081,0.011 -0.149,0.02 -0.206,0.031c-0.056,0.01 -0.119,0.023 -0.188,0.041c-0.082,0.022 -0.136,0.063 -0.16,0.119c-0.022,0.056 -0.033,0.12 -0.033,0.191l0,2.364c0,0.216 -0.043,0.415 -0.133,0.597c-0.086,0.179 -0.206,0.333 -0.358,0.457c-0.156,0.119 -0.329,0.211 -0.52,0.271c-0.191,0.062 -0.396,0.094 -0.612,0.094c-0.378,0 -0.68,-0.092 -0.911,-0.271c-0.231,-0.182 -0.345,-0.43 -0.345,-0.746c0,-0.188 0.053,-0.342 0.158,-0.466c0.105,-0.121 0.251,-0.183 0.436,-0.183c0.175,0 0.315,0.054 0.418,0.154c0.105,0.103 0.156,0.229 0.156,0.379c0,0.13 -0.045,0.248 -0.136,0.36c-0.088,0.108 -0.191,0.208 -0.305,0.302l0,0.038c0.019,0.041 0.058,0.075 0.12,0.104c0.058,0.029 0.118,0.043 0.183,0.043c0.24,0 0.432,-0.088 0.57,-0.262c0.139,-0.171 0.208,-0.435 0.208,-0.785l0,-2.419c0,-0.071 -0.013,-0.132 -0.034,-0.182c-0.021,-0.048 -0.075,-0.092 -0.161,-0.126c-0.061,-0.025 -0.134,-0.049 -0.22,-0.066c-0.085,-0.02 -0.158,-0.03 -0.215,-0.04l0,-0.235l2.288,0l0,0.236l0,0z" id="svg_54"/>
    <path d="m21.07,23.92801c-0.089,0.039 -0.194,0.074 -0.313,0.105s-0.248,0.048 -0.381,0.048c-0.248,0 -0.431,-0.036 -0.548,-0.107c-0.115,-0.077 -0.193,-0.181 -0.237,-0.318l-0.017,0c-0.068,0.069 -0.136,0.129 -0.199,0.175c-0.063,0.051 -0.13,0.091 -0.203,0.123c-0.095,0.046 -0.186,0.08 -0.273,0.101c-0.088,0.022 -0.211,0.033 -0.366,0.033c-0.236,0 -0.435,-0.068 -0.601,-0.206c-0.164,-0.138 -0.247,-0.322 -0.247,-0.548c0,-0.132 0.019,-0.245 0.054,-0.334c0.038,-0.092 0.088,-0.173 0.154,-0.243c0.062,-0.064 0.132,-0.119 0.211,-0.16c0.079,-0.043 0.167,-0.081 0.259,-0.12c0.182,-0.066 0.401,-0.134 0.654,-0.205c0.254,-0.07 0.439,-0.137 0.558,-0.192l0,-0.289c0,-0.054 -0.005,-0.119 -0.012,-0.2c-0.009,-0.083 -0.027,-0.153 -0.052,-0.208c-0.028,-0.065 -0.072,-0.117 -0.134,-0.162c-0.06,-0.045 -0.14,-0.067 -0.237,-0.067c-0.089,0 -0.165,0.013 -0.224,0.038c-0.058,0.026 -0.106,0.051 -0.144,0.077c0.007,0.038 0.024,0.101 0.052,0.184c0.029,0.083 0.042,0.161 0.042,0.238c0,0.034 -0.006,0.076 -0.027,0.128c-0.018,0.05 -0.043,0.092 -0.077,0.122c-0.047,0.04 -0.098,0.073 -0.154,0.096c-0.06,0.021 -0.148,0.031 -0.267,0.031c-0.17,0 -0.298,-0.041 -0.385,-0.122c-0.087,-0.08 -0.13,-0.188 -0.13,-0.318c0,-0.112 0.045,-0.213 0.135,-0.303c0.089,-0.09 0.198,-0.163 0.328,-0.224c0.126,-0.059 0.271,-0.106 0.437,-0.139c0.165,-0.033 0.317,-0.051 0.46,-0.051c0.195,0 0.375,0.011 0.537,0.034c0.163,0.023 0.31,0.07 0.44,0.143c0.123,0.072 0.223,0.174 0.297,0.309c0.074,0.134 0.11,0.307 0.11,0.524c0,0.227 -0.006,0.495 -0.014,0.807c-0.008,0.311 -0.014,0.519 -0.014,0.615c0,0.092 0.014,0.164 0.041,0.216s0.068,0.092 0.126,0.115c0.033,0.018 0.087,0.026 0.159,0.031c0.075,0.003 0.141,0.005 0.201,0.005l0,0.218l0.001,0zm-1.497,-1.572c-0.114,0.037 -0.226,0.083 -0.337,0.133c-0.111,0.047 -0.202,0.099 -0.273,0.154c-0.074,0.055 -0.131,0.129 -0.173,0.217c-0.046,0.089 -0.065,0.189 -0.065,0.311c0,0.157 0.035,0.271 0.107,0.342c0.071,0.071 0.161,0.104 0.265,0.104c0.111,0 0.203,-0.021 0.275,-0.068c0.071,-0.043 0.135,-0.101 0.188,-0.167l0.013,-1.026z" id="svg_55"/>
    <path d="m24.743,21.21901c-0.092,0.014 -0.178,0.048 -0.265,0.102c-0.087,0.056 -0.156,0.139 -0.214,0.254c-0.139,0.292 -0.278,0.589 -0.414,0.888c-0.135,0.299 -0.271,0.587 -0.399,0.868c-0.04,0.083 -0.087,0.192 -0.138,0.325c-0.051,0.134 -0.095,0.254 -0.127,0.363l-0.556,0c-0.231,-0.539 -0.43,-0.984 -0.594,-1.336c-0.164,-0.356 -0.338,-0.735 -0.521,-1.142c-0.041,-0.095 -0.107,-0.169 -0.197,-0.224c-0.089,-0.054 -0.18,-0.087 -0.273,-0.099l0,-0.22l1.861,0l0,0.22c-0.07,0.002 -0.149,0.017 -0.243,0.045c-0.092,0.029 -0.139,0.064 -0.139,0.108c0,0.012 0.004,0.03 0.012,0.053c0.008,0.024 0.019,0.052 0.031,0.082c0.065,0.153 0.16,0.373 0.291,0.661c0.13,0.286 0.268,0.591 0.414,0.908c0.099,-0.22 0.196,-0.436 0.287,-0.645c0.091,-0.211 0.203,-0.478 0.339,-0.804c0.02,-0.049 0.028,-0.087 0.033,-0.117c0.003,-0.032 0.003,-0.052 0.003,-0.062c0,-0.037 -0.017,-0.068 -0.053,-0.097c-0.036,-0.024 -0.076,-0.05 -0.126,-0.069c-0.051,-0.02 -0.098,-0.036 -0.145,-0.047c-0.046,-0.008 -0.084,-0.016 -0.116,-0.02l0,-0.221l1.248,0l0,0.226l0.001,0z" id="svg_56"/>
    <path d="m28.255,23.92801c-0.087,0.039 -0.193,0.074 -0.313,0.105c-0.119,0.031 -0.247,0.048 -0.381,0.048c-0.248,0 -0.43,-0.036 -0.546,-0.107c-0.117,-0.077 -0.195,-0.181 -0.238,-0.318l-0.017,0c-0.069,0.069 -0.135,0.129 -0.199,0.175c-0.063,0.051 -0.129,0.091 -0.204,0.123c-0.094,0.046 -0.185,0.08 -0.272,0.101c-0.088,0.022 -0.209,0.033 -0.367,0.033c-0.233,0 -0.434,-0.068 -0.598,-0.206c-0.166,-0.138 -0.249,-0.322 -0.249,-0.548c0,-0.132 0.019,-0.245 0.054,-0.334c0.037,-0.092 0.089,-0.173 0.155,-0.243c0.06,-0.064 0.129,-0.119 0.209,-0.16c0.078,-0.043 0.166,-0.081 0.261,-0.12c0.183,-0.066 0.399,-0.134 0.653,-0.205c0.254,-0.07 0.439,-0.137 0.558,-0.192l0,-0.289c0,-0.054 -0.004,-0.119 -0.013,-0.2c-0.009,-0.083 -0.026,-0.153 -0.052,-0.208c-0.027,-0.065 -0.073,-0.117 -0.132,-0.162c-0.062,-0.045 -0.141,-0.067 -0.239,-0.067c-0.087,0 -0.162,0.013 -0.223,0.038c-0.059,0.026 -0.108,0.051 -0.143,0.077c0.006,0.038 0.023,0.101 0.051,0.184c0.029,0.083 0.044,0.161 0.044,0.238c0,0.034 -0.011,0.076 -0.027,0.128c-0.021,0.05 -0.045,0.092 -0.079,0.122c-0.047,0.04 -0.101,0.073 -0.156,0.096c-0.058,0.021 -0.146,0.031 -0.264,0.031c-0.171,0 -0.299,-0.041 -0.387,-0.122c-0.086,-0.08 -0.128,-0.188 -0.128,-0.318c0,-0.112 0.043,-0.213 0.135,-0.303c0.088,-0.09 0.198,-0.163 0.325,-0.224c0.126,-0.059 0.273,-0.106 0.439,-0.139c0.163,-0.033 0.317,-0.051 0.459,-0.051c0.195,0 0.374,0.011 0.537,0.034c0.162,0.023 0.309,0.07 0.44,0.143c0.123,0.072 0.223,0.174 0.296,0.309c0.076,0.134 0.109,0.307 0.109,0.524c0,0.227 -0.003,0.495 -0.012,0.807c-0.01,0.311 -0.014,0.519 -0.014,0.615c0,0.092 0.014,0.164 0.039,0.216c0.027,0.052 0.071,0.092 0.127,0.115c0.034,0.018 0.087,0.026 0.161,0.031c0.073,0.003 0.141,0.005 0.201,0.005l0,0.22l0,0l0,-0.002zm-1.495,-1.572c-0.115,0.037 -0.227,0.083 -0.337,0.133c-0.111,0.047 -0.203,0.099 -0.272,0.154c-0.077,0.055 -0.134,0.129 -0.177,0.217c-0.042,0.089 -0.063,0.189 -0.063,0.311c0,0.157 0.036,0.271 0.105,0.342c0.072,0.071 0.161,0.104 0.267,0.104c0.11,0 0.203,-0.021 0.274,-0.068c0.07,-0.043 0.135,-0.101 0.189,-0.167l0.014,-1.026z" id="svg_57"/>
    <path d="m30.317,24.10901c-0.264,0 -0.508,-0.032 -0.732,-0.099c-0.227,-0.063 -0.418,-0.142 -0.576,-0.229l-0.207,0.211l-0.257,0l-0.04,-1.548l0.261,0c0.059,0.146 0.133,0.303 0.224,0.465c0.089,0.164 0.195,0.311 0.313,0.438c0.123,0.138 0.261,0.245 0.413,0.331c0.152,0.084 0.328,0.127 0.531,0.127c0.274,0 0.484,-0.067 0.63,-0.202c0.146,-0.136 0.218,-0.302 0.218,-0.505c0,-0.166 -0.061,-0.306 -0.184,-0.42c-0.124,-0.115 -0.316,-0.215 -0.574,-0.298c-0.17,-0.054 -0.327,-0.104 -0.468,-0.149c-0.142,-0.047 -0.277,-0.095 -0.4,-0.143c-0.286,-0.113 -0.501,-0.279 -0.641,-0.492c-0.138,-0.215 -0.209,-0.452 -0.209,-0.717c0,-0.169 0.035,-0.327 0.109,-0.483c0.072,-0.152 0.178,-0.291 0.316,-0.413c0.132,-0.116 0.301,-0.209 0.51,-0.282c0.207,-0.073 0.431,-0.107 0.675,-0.107c0.237,0 0.462,0.03 0.669,0.097c0.206,0.068 0.369,0.133 0.487,0.2l0.186,-0.181l0.262,0l0.024,1.459l-0.259,0c-0.062,-0.155 -0.132,-0.316 -0.213,-0.479c-0.082,-0.166 -0.167,-0.303 -0.26,-0.412c-0.099,-0.116 -0.212,-0.209 -0.341,-0.277c-0.13,-0.071 -0.279,-0.106 -0.453,-0.106c-0.217,0 -0.395,0.062 -0.531,0.185c-0.138,0.123 -0.209,0.275 -0.209,0.456c0,0.172 0.063,0.31 0.184,0.423c0.119,0.105 0.305,0.202 0.56,0.285c0.147,0.052 0.3,0.102 0.455,0.15c0.153,0.051 0.293,0.1 0.412,0.146c0.294,0.111 0.514,0.268 0.666,0.467c0.151,0.197 0.229,0.443 0.229,0.738c0,0.186 -0.043,0.366 -0.131,0.537c-0.084,0.175 -0.202,0.317 -0.349,0.432c-0.163,0.129 -0.35,0.226 -0.559,0.294c-0.211,0.068 -0.459,0.101 -0.741,0.101z" id="svg_58"/>
    <path d="m34.222,24.08701c-0.279,0 -0.525,-0.04 -0.741,-0.12c-0.214,-0.083 -0.391,-0.192 -0.528,-0.333c-0.14,-0.144 -0.242,-0.313 -0.312,-0.507c-0.067,-0.195 -0.103,-0.408 -0.103,-0.639c0,-0.209 0.043,-0.408 0.126,-0.597c0.081,-0.19 0.196,-0.354 0.337,-0.497c0.148,-0.147 0.332,-0.268 0.549,-0.354c0.219,-0.085 0.461,-0.132 0.723,-0.132c0.372,0 0.661,0.07 0.879,0.211c0.214,0.14 0.321,0.329 0.321,0.566c0,0.146 -0.037,0.262 -0.114,0.349c-0.075,0.09 -0.207,0.134 -0.396,0.134c-0.151,0 -0.276,-0.036 -0.376,-0.109c-0.103,-0.072 -0.155,-0.166 -0.155,-0.282c0,-0.1 0.017,-0.195 0.048,-0.294c0.034,-0.095 0.053,-0.169 0.057,-0.22c-0.02,-0.035 -0.049,-0.063 -0.082,-0.083c-0.036,-0.02 -0.089,-0.028 -0.16,-0.028c-0.092,0 -0.174,0.021 -0.248,0.064c-0.075,0.043 -0.145,0.115 -0.209,0.221c-0.062,0.103 -0.111,0.237 -0.148,0.406c-0.038,0.168 -0.055,0.372 -0.055,0.608c0,0.359 0.083,0.646 0.251,0.868c0.169,0.22 0.369,0.329 0.603,0.329c0.226,0 0.4,-0.052 0.532,-0.149c0.132,-0.101 0.249,-0.243 0.352,-0.424l0.226,0.156c-0.062,0.121 -0.138,0.234 -0.223,0.337c-0.088,0.101 -0.19,0.191 -0.311,0.27c-0.128,0.082 -0.256,0.144 -0.388,0.187c-0.131,0.044 -0.283,0.062 -0.455,0.062z" id="svg_59"/>
    <path d="m38.787,21.54901c0,0.152 -0.046,0.287 -0.143,0.404c-0.092,0.114 -0.216,0.172 -0.372,0.172c-0.148,0 -0.273,-0.037 -0.375,-0.111c-0.101,-0.073 -0.152,-0.181 -0.152,-0.326c0,-0.072 0.006,-0.126 0.016,-0.162c0.01,-0.042 0.02,-0.077 0.027,-0.111c-0.093,0.003 -0.189,0.036 -0.292,0.097c-0.102,0.059 -0.193,0.139 -0.271,0.239l0,1.656c0,0.07 0.01,0.128 0.032,0.176c0.023,0.045 0.058,0.082 0.111,0.107c0.045,0.022 0.115,0.042 0.215,0.056c0.101,0.016 0.173,0.024 0.216,0.027l0,0.219l-2.018,0l0,-0.221c0.05,-0.003 0.1,-0.01 0.152,-0.017c0.052,-0.007 0.095,-0.017 0.132,-0.029c0.065,-0.021 0.108,-0.055 0.132,-0.102c0.024,-0.047 0.035,-0.107 0.035,-0.181l0,-1.759c0,-0.072 -0.016,-0.137 -0.049,-0.192c-0.036,-0.057 -0.077,-0.103 -0.123,-0.139c-0.039,-0.023 -0.084,-0.044 -0.14,-0.06c-0.056,-0.015 -0.116,-0.026 -0.181,-0.033l0,-0.22l1.438,-0.078l0.047,0.045l0,0.438l0.012,0c0.139,-0.161 0.286,-0.288 0.441,-0.379s0.317,-0.137 0.486,-0.137c0.188,0 0.338,0.057 0.453,0.173c0.114,0.118 0.171,0.266 0.171,0.448z" id="svg_60"/>
    <path d="m40.903,23.99201l-1.906,0l0,-0.221c0.051,-0.003 0.102,-0.009 0.152,-0.017c0.051,-0.003 0.095,-0.015 0.129,-0.029c0.065,-0.022 0.111,-0.058 0.138,-0.104c0.024,-0.046 0.041,-0.105 0.041,-0.179l0,-1.759c0,-0.068 -0.019,-0.131 -0.05,-0.184c-0.033,-0.052 -0.073,-0.097 -0.121,-0.128c-0.037,-0.025 -0.093,-0.048 -0.166,-0.069c-0.072,-0.022 -0.139,-0.036 -0.201,-0.043l0,-0.22l1.479,-0.078l0.047,0.045l0,2.396c0,0.071 0.015,0.13 0.045,0.181c0.029,0.048 0.071,0.084 0.13,0.109c0.04,0.019 0.084,0.033 0.133,0.047c0.048,0.015 0.098,0.026 0.15,0.033l0,0.22l0,0zm-0.441,-4.116c0,0.151 -0.059,0.282 -0.177,0.391c-0.117,0.105 -0.255,0.161 -0.418,0.161c-0.162,0 -0.302,-0.056 -0.421,-0.161c-0.116,-0.108 -0.177,-0.239 -0.177,-0.391c0,-0.155 0.061,-0.283 0.177,-0.394c0.119,-0.109 0.259,-0.163 0.421,-0.163c0.163,0 0.303,0.054 0.42,0.163c0.116,0.111 0.175,0.239 0.175,0.394z" id="svg_61"/>
    <path d="m44.857,22.52101c0,0.426 -0.142,0.79 -0.428,1.092c-0.279,0.306 -0.641,0.458 -1.074,0.458c-0.193,0 -0.35,-0.021 -0.471,-0.061c-0.121,-0.036 -0.22,-0.087 -0.298,-0.143l-0.024,0l0,0.85c0,0.068 0.016,0.13 0.047,0.182c0.032,0.053 0.074,0.092 0.131,0.116c0.056,0.021 0.132,0.043 0.231,0.06c0.099,0.019 0.182,0.029 0.249,0.032l0,0.224l-2.183,0l0,-0.224c0.051,-0.003 0.115,-0.011 0.19,-0.022c0.076,-0.012 0.136,-0.021 0.172,-0.034c0.063,-0.021 0.107,-0.06 0.131,-0.112c0.023,-0.055 0.035,-0.114 0.035,-0.184l0,-3.087c-0.005,-0.067 -0.022,-0.124 -0.047,-0.176c-0.024,-0.051 -0.064,-0.094 -0.119,-0.133c-0.04,-0.026 -0.094,-0.048 -0.159,-0.064c-0.067,-0.016 -0.133,-0.027 -0.196,-0.034l0,-0.22l1.472,-0.078l0.046,0.039l0,0.334l0.024,0.008c0.133,-0.137 0.28,-0.241 0.441,-0.316c0.16,-0.072 0.321,-0.111 0.481,-0.111c0.415,0 0.743,0.146 0.984,0.442c0.243,0.294 0.365,0.682 0.365,1.162zm-1.084,0.013c0,-0.151 -0.011,-0.294 -0.033,-0.435c-0.021,-0.137 -0.062,-0.26 -0.118,-0.368c-0.054,-0.107 -0.126,-0.192 -0.214,-0.259c-0.091,-0.064 -0.2,-0.096 -0.327,-0.096c-0.131,0 -0.235,0.021 -0.314,0.066c-0.077,0.044 -0.146,0.104 -0.204,0.176l0,1.712c0.012,0.04 0.036,0.091 0.071,0.155c0.032,0.063 0.067,0.114 0.102,0.153c0.051,0.053 0.106,0.094 0.173,0.119c0.063,0.026 0.134,0.039 0.209,0.039c0.199,0 0.357,-0.105 0.477,-0.32c0.12,-0.213 0.178,-0.527 0.178,-0.942z" id="svg_62"/>
    <path d="m47.491,23.85401c-0.129,0.054 -0.267,0.106 -0.414,0.15c-0.146,0.045 -0.325,0.068 -0.538,0.068c-0.313,0 -0.545,-0.077 -0.697,-0.229c-0.15,-0.152 -0.228,-0.37 -0.228,-0.654l0,-1.851l-0.543,0l0,-0.329l0.556,0l0,-0.914l0.977,0l0,0.914l0.848,0l0,0.329l-0.844,0l0,1.651c0,0.234 0.035,0.401 0.102,0.5c0.065,0.098 0.181,0.148 0.352,0.148c0.055,0 0.131,-0.004 0.229,-0.013c0.095,-0.008 0.162,-0.018 0.202,-0.028l0,0.258l-0.002,0z" id="svg_63"/>
   </g>
  </g>
  <g id="hex_wp">
   <path d="m31.168,69.657l31.167,-17.398l0,-34.861l-31.168,-17.398l-31.167,17.398l0,34.86l31.168,17.399zm-28.899,-50.929l28.898,-16.131l28.899,16.131l0,32.197l-28.898,16.133l-28.899,-16.133l0,-32.197z" id="svg_64"/>
   <polygon fill="#FFFFFF" id="svg_65" points="60.06599597167997,50.927003662109655 60.06599597167997,18.729997436523718 31.166993896484655,2.5970018310549676 2.268007080078405,18.729997436523718 2.268007080078405,50.927003662109655 31.16800097656278,67.05800036621122 "/>
   <path d="m22.383,36.549c-2.01,-5.966 -3.653,-10.958 -3.652,-11.093c0,-0.141 0.521,-0.289 1.212,-0.347c1.422,-0.118 2.089,-0.594 1.622,-1.155c-0.256,-0.309 -0.723,-0.333 -3.853,-0.196c-1.959,0.083 -3.561,0.083 -3.561,-0.004c0,-0.375 1.4,-2.103 2.873,-3.546c3.769,-3.695 8.798,-5.735 14.138,-5.735c2.417,0 4.223,0.305 6.729,1.136c2.031,0.674 5.202,2.459 6.417,3.612l0.604,0.575l-0.959,0.279c-1.221,0.356 -2.215,1.371 -2.516,2.565c-0.313,1.247 0.069,2.5 1.503,4.914c2.555,4.302 2.57,6.008 0.132,14.044c-0.907,2.986 -1.698,5.478 -1.759,5.538c-0.059,0.059 -0.158,-0.026 -0.22,-0.194c-0.333,-0.923 -7.314,-21.636 -7.314,-21.705c0,-0.043 0.418,-0.091 0.928,-0.102c1.508,-0.037 2.016,-0.254 2.016,-0.859l0,-0.535l-5.937,-0.01c-4.659,-0.009 -5.96,0.049 -6.044,0.271c-0.223,0.577 0.149,0.917 1.151,1.049c0.559,0.073 1.154,0.151 1.323,0.174c0.187,0.025 0.931,1.731 1.911,4.392l1.603,4.351l-2.233,6.717c-1.23,3.695 -2.287,6.717 -2.349,6.715s-1.754,-4.884 -3.765,-10.851l0,0zm18.811,15.811c0,-0.029 1.488,-4.323 3.305,-9.539c4.084,-11.719 4.358,-12.704 4.373,-15.688c0.009,-1.988 0.048,-2.224 0.312,-1.865c0.512,0.702 1.552,3.626 1.915,5.387c0.396,1.924 0.455,5.803 0.117,7.711c-0.752,4.243 -3.032,8.456 -6.129,11.323c-1.662,1.537 -3.893,3.069 -3.893,2.671zm-20.936,-0.338c-4.829,-3.098 -8.158,-8.067 -9.148,-13.657c-0.359,-2.03 -0.274,-5.656 0.188,-7.891c0.394,-1.909 1.22,-4.189 1.438,-3.972c0.092,0.094 9.703,26.343 9.703,26.504c0,0.267 -0.786,-0.088 -2.181,-0.984zm8.186,2.982c-2.256,-0.29 -3.229,-0.592 -3.089,-0.958c0.065,-0.17 1.409,-4.064 2.986,-8.656c1.576,-4.591 2.947,-8.495 3.047,-8.674c0.14,-0.257 0.234,-0.186 0.43,0.325c0.972,2.541 6.104,16.731 6.104,16.88c0,0.45 -4.989,1.371 -7.082,1.304c-0.482,-0.015 -1.56,-0.114 -2.396,-0.221zm6.533,1.879c11.369,-1.982 19.72,-12.935 18.451,-24.201c-0.636,-5.649 -2.675,-9.823 -6.77,-13.85c-4.288,-4.217 -9.508,-6.358 -15.496,-6.358c-4.136,0 -7.999,1.071 -11.599,3.22c-2.24,1.336 -5.643,4.624 -7.047,6.811c-5.277,8.218 -4.936,18.083 0.897,25.842c4.968,6.607 13.426,9.955 21.564,8.536l0,0zm-8.033,1.308c-4.826,-0.913 -9.031,-3.117 -12.469,-6.539c-9.159,-9.121 -9.364,-23.827 -0.461,-33.2c3.4,-3.583 7.813,-6.011 12.557,-6.91c2.348,-0.445 6.836,-0.445 9.182,0c8.617,1.635 15.735,8.176 18.18,16.709c3.236,11.294 -2.167,23.113 -12.858,28.124c-2.968,1.39 -5.534,1.961 -9.258,2.057c-2.195,0.056 -3.687,-0.017 -4.873,-0.241z" fill="#464646" id="svg_66"/>
  </g>
 </g>
</svg>