<?xml version="1.0" encoding="utf-8"?>
<!-- Generator: Adobe Illustrator 15.0.0, SVG Export Plug-In . SVG Version: 6.00 Build 0)  -->
<!DOCTYPE svg PUBLIC "-//W3C//DTD SVG 1.1//EN" "http://www.w3.org/Graphics/SVG/1.1/DTD/svg11.dtd">
<svg version="1.1" id="Layer_1" xmlns="http://www.w3.org/2000/svg" xmlns:xlink="http://www.w3.org/1999/xlink" x="0px" y="0px"
	 width="291.333px" height="36px" viewBox="0 0 291.333 36" enable-background="new 0 0 291.333 36" xml:space="preserve">
<g>
	<path stroke="#FFFFFF" stroke-miterlimit="10" d="M7.162,14.099c0.383-0.07,0.939-0.209,1.322-0.209
		c0.174,0,0.313,0.174,0.313,0.348c0,0.522-0.695,0.905-1.044,1.184C7.231,15.803,5.491,17.23,4.83,17.23
		c-0.66,0-3.236-1.601-3.131-2.575C2.185,9.332,10.641,3.103,16,3.103c2.332,0,3.445,1.74,3.445,3.897
		c0,4.489-5.776,13.466-8.422,17.293c0.592,1.462-1.426,3.932-2.505,4.002c-0.8,0.069-1.983-0.766-1.983-1.636
		c0-0.487,0.313-0.974,0.592-1.356c6.055-8.665,9.256-15.067,9.256-16.842c0-0.557-0.244-1.427-0.939-1.427
		c-1.844,0.244-7.272,3.688-9.152,7.238L7.162,14.099z"/>
	<path stroke="#FFFFFF" stroke-miterlimit="10" d="M33.33,20.327l0.279,1.531c-1.844,1.636-5.428,5.916-7.969,5.916
		c-1.322,0-1.948-1.114-1.948-2.297c0-2.088,1.879-4.385,2.993-5.985l-0.07-0.069c-2.019,1.496-3.793,3.306-5.359,5.324
		c-0.521,0.66-1.809,2.365-2.748,2.365c-1.531,0-1.914-2.191-1.949-3.375c-0.104-2.4,2.088-5.915,4.106-7.62
		c0.452-0.383,0.766-0.417,1.356-0.417c2.088,0.069,1.914,0.557,1.914,0.765c0,1.357-4.384,4.872-4.384,5.706
		c0,0.21,0.174,0.384,0.382,0.384c0.244,0,0.558-0.313,0.697-0.487c2.783-3.549,9.186-7.83,10.195-7.83
		c0.139,0,0.348,0.175,0.557,0.662c0.208,0.522,0.417,1.148,0.521,1.879c0,1.357-4.28,4.002-4.28,6.402
		c0,0.313,0.278,0.627,0.626,0.627c0.836,0,2.367-1.219,2.993-1.74L33.33,20.327z"/>
	<path stroke="#FFFFFF" stroke-miterlimit="10" d="M45.128,12.707c-1.636,3.306-1.914,4.593-5.742,4.35
		c-1.184,1.531-3.166,4.384-3.166,6.472c0,0.766,0.243,1.219,1.043,1.219c1.114,0,2.367-1.045,5.986-3.619l0.174,1.531
		c-2.054,1.879-5.811,5.602-8.77,5.602c-1.356,0-2.191-0.939-2.191-2.331c0-1.147,0.452-2.471,0.904-3.479l-0.069-0.069
		l-1.774,1.427l-0.383-1.322c2.088-1.602,4.001-3.375,5.289-5.568c-2.123,0-1.462-0.139-3.307,0.139l0.383-0.626
		c1.88-3.062,2.158-3.619,5.881-3.758c1.044-1.426,1.81-3.062,3.828-3.062c0.452,0,1.113,0.104,1.113,0.661
		c0,0.626-1.009,1.775-1.357,2.262L45.128,12.707z"/>
	<path stroke="#FFFFFF" stroke-miterlimit="10" d="M56.125,22.032c-2.123,2.471-5.95,5.742-9.395,5.742
		c-2.541,0-3.724-2.262-3.793-4.559c-0.14-4.559,4.906-9.221,9.43-9.187c1.113,0,2.505,0.278,2.505,1.67
		c0,1.705-1.704,4.28-8.386,6.471l-0.069,0.766c-0.104,1.322,1.044,1.775,2.157,1.775c2.471,0,5.394-2.541,7.237-4.002
		L56.125,22.032z M51.81,16.43c0-0.243-0.174-0.452-0.418-0.382c-1.74,0.452-3.758,2.122-4.697,4.419
		C49.757,19.422,51.844,17.021,51.81,16.43z"/>
	<path stroke="#FFFFFF" stroke-miterlimit="10" d="M58.075,19.666c-1.218,1.915-2.679,2.819-4.175,4.315l-0.14-1.531
		c0.905-0.73,1.636-1.601,2.297-2.54c-0.731-0.069-0.94-0.348-0.94-1.079c0-2.505,3.55-5.01,4.385-5.01
		c0.348,0,0.627,0.278,0.627,0.592c0,0.348-0.104,0.661-0.244,0.974c3.271-0.453,5.185-0.87,5.532-0.453
		c0.522,0.661,0.766,1.218,0.835,1.844c0,1.079-0.66,1.601-1.461,2.262c-1.01,0.87-2.715,2.575-2.715,3.967
		c0,0.557,0.558,0.975,1.08,0.975c1.496,0,3.688-2.262,4.836-3.132l0.244,1.287c-1.322,1.496-5.324,5.358-7.308,5.358
		c-1.462,0-2.366-1.357-2.366-2.679c0-2.366,1.81-4.211,3.201-5.881l-0.069-0.069L58.075,19.666z"/>
	<path stroke="#FFFFFF" stroke-miterlimit="10" d="M73.421,24.85c-0.661,0.521-2.888,2.332-3.688,2.332
		c-0.975,0-2.992-2.297-3.062-4.105c-0.14-4.35,8.907-8.804,12.943-8.909c1.602-0.035,2.262,1.253,2.262,1.67
		c0,0.418-0.904,0.766-1.218,0.871c0.661,0.278,1.01,0.661,1.01,1.426c0,1.114-3.028,3.549-3.028,5.185
		c0,0.591,0.523,0.835,1.079,0.835c1.462,0,3.445-1.774,4.941-2.784l0.278,1.288c-1.496,1.705-6.159,5.428-7.863,5.428
		c-1.149,0-1.671-0.835-1.671-1.844c0-1.113,0.835-2.958,1.287-3.897l-0.069-0.069L73.421,24.85z M69.21,23.946
		c0.035,0.174,0.174,0.801,0.697,0.696c0.695-0.14,1.773-0.035,8.664-6.994l-0.07-0.07C70.22,20.118,69.21,22.241,69.21,23.946z"/>
	<path stroke="#FFFFFF" stroke-miterlimit="10" d="M88.525,20.675c-0.766,0.556-1.393,1.079-1.393,2.053
		c0,0.8,0.836,1.879,2.646,1.879c2.645,0,5.672-2.437,7.689-4.002l0.418,1.357c-2.122,2.262-6.021,5.706-9.325,5.706
		c-2.68,0-3.967-2.505-3.967-5.08c0-2.922,1.044-4.001,3.305-5.706c1.566-1.183,4.907-3.062,6.855-3.062
		c1.078,0,1.566,0.557,1.566,1.601c0,1.914-2.749,4.593-3.689,4.593c-0.8,0-1.147-0.87-1.183-1.531L88.525,20.675z"/>
	<path stroke="#FFFFFF" stroke-miterlimit="10" d="M109.265,12.707c-1.635,3.306-1.914,4.593-5.741,4.35
		c-1.184,1.531-3.167,4.384-3.167,6.472c0,0.766,0.244,1.219,1.044,1.219c1.114,0,2.366-1.045,5.985-3.619l0.174,1.531
		c-2.053,1.879-5.811,5.602-8.769,5.602c-1.356,0-2.192-0.939-2.192-2.331c0-1.147,0.453-2.471,0.904-3.479l-0.068-0.069
		l-1.775,1.427l-0.383-1.322c2.088-1.602,4.002-3.375,5.289-5.568c-2.122,0-1.461-0.139-3.306,0.139l0.383-0.626
		c1.88-3.062,2.157-3.619,5.881-3.758c1.044-1.426,1.81-3.062,3.827-3.062c0.453,0,1.113,0.104,1.113,0.661
		c0,0.626-1.008,1.775-1.357,2.262L109.265,12.707z"/>
	<path stroke="#FFFFFF" stroke-miterlimit="10" d="M117.166,22.694c-1.566,1.913-4.629,5.045-7.273,5.045
		c-2.053,0-2.992-2.367-2.992-4.141c0-4.245,4.35-8.386,6.438-8.386c0.592,0,1.531,0.208,1.531,0.974
		c0,1.74-3.445,4.836-4.906,5.845c-0.278,1.427,0.243,2.192,1.844,2.192c1.845,0,3.654-1.844,5.046-2.854L117.166,22.694z
		 M113.825,13.02c0-1.427,1.67-2.68,3.027-2.68c0.626,0,1.147,0.453,1.147,1.079c0,1.392-1.287,3.097-2.783,3.097
		C114.381,14.516,113.825,13.855,113.825,13.02z"/>
	<path stroke="#FFFFFF" stroke-miterlimit="10" d="M129.728,14.237c0.695,0,1.043,0.453,1.043,1.149c0,1.392-2.018,4.663-2.889,5.88
		c0.384,0.349,0.627,0.453,1.184,0.453c0.904,0,2.192-0.87,2.958-1.393l0.243,1.462c-1.218,1.392-2.505,2.47-4.453,2.47
		c-0.731,0-1.219-0.486-1.811-0.904c-0.974,1.113-4.488,4.176-5.845,4.176c-2.054,0-3.445-2.609-3.445-5.254
		c0-4.802,4.28-8.143,5.498-8.143c0.487,0,2.088,0.069,2.088,0.8c0,1.566-3.271,5.081-4.524,6.124
		c-0.174,0.558-0.521,1.497-0.521,2.054s0.14,1.356,0.836,1.356c1.009,0,3.758-2.539,4.488-3.236c-0.139-1.6,0.8-2.922,1.739-4.105
		C126.978,16.256,128.509,14.237,129.728,14.237z"/>
	<path stroke="#FFFFFF" stroke-miterlimit="10" d="M144.726,22.032c-2.122,2.471-5.949,5.742-9.395,5.742
		c-2.541,0-3.723-2.262-3.793-4.559c-0.139-4.559,4.906-9.221,9.43-9.187c1.113,0,2.506,0.278,2.506,1.67
		c0,1.705-1.705,4.28-8.387,6.471l-0.069,0.766c-0.104,1.322,1.044,1.775,2.157,1.775c2.471,0,5.395-2.541,7.238-4.002
		L144.726,22.032z M140.412,16.43c0-0.243-0.174-0.452-0.418-0.382c-1.74,0.452-3.758,2.122-4.697,4.419
		C138.359,19.422,140.447,17.021,140.412,16.43z"/>
	<path stroke="#FFFFFF" stroke-miterlimit="10" d="M170.792,8.218c-2.541,0.243-5.115,0.73-7.481,1.635v0.069h0.938
		c0.174,0,1.879-0.139,1.879,0.383c0,0.417-0.766,0.591-1.078,0.626c-1.705,0.278-4.141,1.357-5.775,1.357
		c-0.801,0-1.322-0.417-1.322-1.218c0-0.591,0.348-1.809,0.486-2.401c0.453-1.844,1.602-2.609,3.307-3.375
		c3.305-1.427,8.211-2.436,11.83-2.436c2.609,0,6.089,0.418,8.316,1.844c2.54,1.636,3.653,4.767,3.653,7.69
		c0,5.01-4.141,8.977-8.247,11.308c-3.758,2.123-10.021,3.897-14.371,3.897c-0.8,0-2.296,0-2.992-0.382
		c-0.66-0.349-0.801-1.184-0.801-1.846c0-2.574,1.811-4.871,3.342-6.784L170.792,8.218z M163.902,20.675
		c-1.078,1.427-0.939,1.913-0.73,2.366c0.14,0.209,0.557,0.591,1.983,0.626c2.401,0.034,5.567-0.661,8.003-1.497
		c7.307-2.574,9.848-6.263,9.848-9.324c0-4.489-7.133-4.593-10.265-4.767c-0.278,1.113-0.452,1.67-1.148,2.575L163.902,20.675z"/>
	<path stroke="#FFFFFF" stroke-miterlimit="10" d="M196.961,22.032c-2.122,2.471-5.95,5.742-9.395,5.742
		c-2.54,0-3.724-2.262-3.794-4.559c-0.139-4.559,4.906-9.221,9.43-9.187c1.114,0,2.506,0.278,2.506,1.67
		c0,1.705-1.705,4.28-8.386,6.471l-0.069,0.766c-0.105,1.322,1.043,1.775,2.157,1.775c2.47,0,5.394-2.541,7.237-4.002
		L196.961,22.032z M192.647,16.43c0-0.243-0.175-0.452-0.418-0.382c-1.739,0.452-3.759,2.122-4.697,4.419
		C190.594,19.422,192.681,17.021,192.647,16.43z"/>
	<path stroke="#FFFFFF" stroke-miterlimit="10" d="M209.175,14.237c0.697,0,1.045,0.453,1.045,1.149c0,1.392-2.019,4.663-2.889,5.88
		c0.383,0.349,0.627,0.453,1.184,0.453c0.904,0,2.191-0.87,2.958-1.393l0.243,1.462c-1.217,1.392-2.506,2.47-4.453,2.47
		c-0.731,0-1.219-0.486-1.811-0.904c-0.975,1.113-4.488,4.176-5.846,4.176c-2.053,0-3.443-2.609-3.443-5.254
		c0-4.802,4.278-8.143,5.497-8.143c0.486,0,2.087,0.069,2.087,0.8c0,1.566-3.271,5.081-4.523,6.124
		c-0.174,0.558-0.521,1.497-0.521,2.054s0.139,1.356,0.836,1.356c1.008,0,3.757-2.539,4.488-3.236c-0.14-1.6,0.8-2.922,1.74-4.105
		C206.427,16.256,207.958,14.237,209.175,14.237z"/>
	<path stroke="#FFFFFF" stroke-miterlimit="10" d="M224.175,22.032c-2.123,2.471-5.95,5.742-9.395,5.742
		c-2.541,0-3.725-2.262-3.793-4.559c-0.139-4.559,4.906-9.221,9.43-9.187c1.113,0,2.505,0.278,2.505,1.67
		c0,1.705-1.705,4.28-8.386,6.471l-0.069,0.766c-0.104,1.322,1.044,1.775,2.157,1.775c2.471,0,5.393-2.541,7.238-4.002
		L224.175,22.032z M219.861,16.43c0-0.243-0.175-0.452-0.418-0.382c-1.739,0.452-3.758,2.122-4.697,4.419
		C217.808,19.422,219.895,17.021,219.861,16.43z"/>
	<path stroke="#FFFFFF" stroke-miterlimit="10" d="M234.755,22.067c-1.914,1.983-5.186,5.498-8.178,5.498
		c-2.54,0-3.098-2.471-3.098-4.523c0-3.654,1.566-7.586,3.828-10.37c3.063-3.792,6.368-7.029,7.48-7.029
		c0.593,0,0.731,0.835,0.697,1.287c-0.244,3.306-1.148,6.368-8.699,13.675c-0.313,0.592-0.418,1.565-0.244,2.401
		c0.313,0.801,0.801,1.496,1.74,1.496c1.914,0,4.594-2.227,5.984-3.479L234.755,22.067z M227.552,17.404
		c2.471-2.296,4.628-5.637,5.254-7.62c-1.705,0.835-3.688,3.967-5.324,7.551L227.552,17.404z"/>
	<path stroke="#FFFFFF" stroke-miterlimit="10" d="M248.327,21.997c-1.566,1.984-3.098,2.819-5.638,2.819
		c-1.461,1.496-3.166,2.609-5.358,2.609c-1.81,0-3.479-1.81-3.618-4.976c-0.07-2.609,1.217-4.35,3.166-5.846
		c1.879-1.531,4.385-2.47,6.507-2.575c0.767-0.035,1.914,0.313,1.914,1.253c0,0.521-0.418,0.731-0.8,0.939
		c1.043,0.278,1.252,1.009,1.252,2.053c0,1.531-0.696,2.749-1.357,4.106c1.531,0.278,2.506-1.044,3.585-1.845L248.327,21.997z
		 M237.714,20.362c-0.767,0.766-1.428,2.123-1.428,3.201c0,1.009,0.661,1.322,1.531,1.322c1.148,0,1.879-0.661,2.68-1.392
		c-0.244-0.558-0.418-1.009-0.418-1.601c0-1.81,1.636-4.002,1.496-4.071C240.393,18.518,238.757,19.353,237.714,20.362z"/>
	<path stroke="#FFFFFF" stroke-miterlimit="10" d="M246.971,33.028c-0.278,0.521-0.905,1.461-1.566,1.461
		c-0.8,0-1.009-0.939-1.009-1.565c-0.035-1.739,0.73-3.479,2.157-5.498c1.601-2.262,3.341-5.114,5.603-8.942l-0.07-0.069
		l-5.497,5.254l-0.14-1.636l9.221-9.917c0.836-0.905,1.461-1.914,2.785-1.914c0.486,0,1.6,0.174,1.6,0.835
		c0,0.766-1.81,2.436-2.366,3.027c-1.183,1.253-2.261,2.54-2.958,4.106l0.07,0.07c1.496-1.079,5.01-3.375,6.889-3.375
		c0.94,0,1.463,0.731,1.463,1.636c0,1.914-1.741,4.315-5.638,7.759c2.993,0.209,3.688-0.348,7.411-3.549l0.244,1.602
		c-2.575,2.505-5.707,5.01-9.465,5.01c-0.939,0-1.635-0.277-2.471-0.695c-0.521,0.104-1.043,0.209-1.601,0.209
		c-0.487,0-0.938-0.105-1.392-0.209L246.971,33.028z M258.001,20.709c0.383-0.486,0.869-1.079,0.869-1.705
		c0-0.243-0.104-0.487-0.383-0.487c-0.557,0-2.227,1.079-2.68,1.392c-1.286,0.939-2.261,2.122-3.201,3.375
		c1.01-0.069,1.984,0.035,2.924,0.348L258.001,20.709z"/>
	<path stroke="#FFFFFF" stroke-miterlimit="10" d="M277.802,22.032c-2.123,2.471-5.949,5.742-9.395,5.742
		c-2.541,0-3.723-2.262-3.793-4.559c-0.139-4.559,4.906-9.221,9.429-9.187c1.114,0,2.505,0.278,2.505,1.67
		c0,1.705-1.703,4.28-8.385,6.471l-0.068,0.766c-0.105,1.322,1.043,1.775,2.157,1.775c2.47,0,5.392-2.541,7.236-4.002
		L277.802,22.032z M273.488,16.43c0-0.243-0.176-0.452-0.418-0.382c-1.738,0.452-3.758,2.122-4.697,4.419
		C271.435,19.422,273.522,17.021,273.488,16.43z"/>
	<path stroke="#FFFFFF" stroke-miterlimit="10" d="M279.751,19.666c-1.217,1.915-2.679,2.819-4.174,4.315l-0.141-1.531
		c0.904-0.73,1.636-1.601,2.297-2.54c-0.729-0.069-0.939-0.348-0.939-1.079c0-2.505,3.55-5.01,4.385-5.01
		c0.348,0,0.627,0.278,0.627,0.592c0,0.348-0.105,0.661-0.244,0.974c3.271-0.453,5.185-0.87,5.532-0.453
		c0.522,0.661,0.767,1.218,0.835,1.844c0,1.079-0.661,1.601-1.462,2.262c-1.009,0.87-2.713,2.575-2.713,3.967
		c0,0.557,0.556,0.975,1.079,0.975c1.495,0,3.688-2.262,4.835-3.132l0.244,1.287c-1.323,1.496-5.323,5.358-7.308,5.358
		c-1.461,0-2.366-1.357-2.366-2.679c0-2.366,1.81-4.211,3.201-5.881l-0.068-0.069L279.751,19.666z"/>
</g>
</svg>
