<?xml version="1.0" encoding="utf-8"?>
<!-- Generator: Adobe Illustrator 15.0.0, SVG Export Plug-In . SVG Version: 6.00 Build 0)  -->
<!DOCTYPE svg PUBLIC "-//W3C//DTD SVG 1.1//EN" "http://www.w3.org/Graphics/SVG/1.1/DTD/svg11.dtd">
<svg version="1.1" id="Layer_1" xmlns="http://www.w3.org/2000/svg" xmlns:xlink="http://www.w3.org/1999/xlink" x="0px" y="0px"
	 width="51000px" height="162648px" viewBox="0 0 51 162.648" enable-background="new 0 0 51 162.648" xml:space="preserve">
<g>
	<path d="M17.784,2.267l0.858,8.823c-2.961,0.531-5.137,1.608-6.525,3.231c-1.389,1.624-2.083,3.814-2.083,6.571
		c0,2.921,0.617,5.121,1.854,6.603c1.235,1.48,2.68,2.221,4.334,2.221c1.062,0,1.965-0.312,2.711-0.935
		c0.745-0.623,1.393-1.711,1.946-3.263c0.367-1.062,1.021-3.482,1.96-7.26c1.205-4.861,2.686-8.271,4.442-10.232
		c2.471-2.757,5.483-4.136,9.037-4.136c2.287,0,4.427,0.648,6.418,1.945s3.508,3.165,4.549,5.606
		c1.042,2.44,1.563,5.386,1.563,8.838c0,5.637-1.236,9.88-3.707,12.729c-2.471,2.85-5.77,4.345-9.895,4.488l-0.398-9.068
		c2.308-0.388,3.967-1.221,4.979-2.496c1.011-1.277,1.516-3.191,1.516-5.744c0-2.635-0.541-4.698-1.623-6.188
		c-0.695-0.96-1.623-1.439-2.787-1.439c-1.063,0-1.972,0.448-2.727,1.348c-0.961,1.144-1.961,3.921-3.003,8.333
		c-1.042,4.411-2.119,7.674-3.231,9.787c-1.113,2.114-2.635,3.769-4.564,4.963c-1.931,1.195-4.315,1.792-7.154,1.792
		c-2.573,0-4.983-0.715-7.23-2.144c-2.247-1.431-3.917-3.452-5.009-6.066s-1.639-5.871-1.639-9.772
		c0-5.678,1.312-10.038,3.937-13.081C8.936,4.677,12.76,2.859,17.784,2.267z"/>
	<path d="M3.171,46.044h44.911v8.608H24.248L35.705,64.73v10.6L23.819,64.21L3.171,76.127v-9.282l14.613-8.18l-4.197-4.013H3.171
		V46.044z"/>
	<path d="M3.171,81.243h32.534v8.608H3.171V81.243z M40.117,81.243h7.965v8.608h-7.965V81.243z"/>
	<path d="M3.171,98.674h44.911v8.608H3.171V98.674z"/>
	<path d="M3.171,116.105h44.911v8.608H3.171V116.105z"/>
	<path d="M12.454,130.505l1.317,8.639c-1.675,0.368-2.946,1.113-3.814,2.236c-0.868,1.123-1.302,2.696-1.302,4.718
		c0,2.226,0.409,3.9,1.226,5.024c0.572,0.755,1.337,1.133,2.298,1.133c0.653,0,1.194-0.204,1.624-0.612
		c0.408-0.429,0.786-1.389,1.133-2.88c1.532-6.943,2.931-11.345,4.197-13.203c1.756-2.573,4.197-3.86,7.321-3.86
		c2.819,0,5.188,1.113,7.107,3.34c1.92,2.226,2.881,5.677,2.881,10.354c0,4.452-0.726,7.761-2.176,9.925
		c-1.45,2.165-3.595,3.656-6.434,4.474l-1.501-8.119c1.267-0.347,2.237-1.006,2.911-1.976s1.01-2.354,1.01-4.151
		c0-2.267-0.316-3.891-0.949-4.87c-0.449-0.654-1.031-0.98-1.746-0.98c-0.613,0-1.133,0.285-1.563,0.857
		c-0.572,0.776-1.379,3.457-2.42,8.042c-1.041,4.584-2.318,7.786-3.83,9.604c-1.532,1.797-3.666,2.696-6.402,2.696
		c-2.982,0-5.545-1.246-7.689-3.737c-2.145-2.492-3.217-6.179-3.217-11.06c0-4.432,0.898-7.939,2.696-10.522
		C6.929,132.991,9.37,131.301,12.454,130.505z"/>
</g>
</svg>
